<?xml version="1.0" encoding="utf-8"?>
<!-- Generator: Adobe Illustrator 21.0.2, SVG Export Plug-In . SVG Version: 6.00 Build 0)  -->
<svg version="1.1" id="Layer_1" xmlns="http://www.w3.org/2000/svg" xmlns:xlink="http://www.w3.org/1999/xlink" x="0px" y="0px"
	 viewBox="0 0 433.4 268.9" style="enable-background:new 0 0 433.4 268.9;" xml:space="preserve">
<style type="text/css">
	.st0{fill:#666667;}
	.st1{fill:none;stroke:#808184;stroke-width:0.5;stroke-linejoin:round;stroke-miterlimit:10;}
	.st2{fill:#ED302F;}
	.st3{fill:#005C97;}
	.st4{fill:none;stroke:#BBBDBF;stroke-width:0.5;stroke-miterlimit:10;}
</style>
<g>
	<g>
		<path class="st0" d="M35.6,102.4c0,3.2-1.3,4.8-3.8,4.8c-1.5,0-2.5-0.5-3.1-1.6c-0.4-0.9-0.7-2.3-0.7-4.2v-2.9
			c0-1.9,0.2-3.2,0.6-4.1c0.6-1.3,1.7-1.9,3.3-1.9c2.2,0,3.4,1.1,3.4,3.2h-2.1c0-1.1-0.4-1.7-1.4-1.7c-0.7,0-1.2,0.5-1.5,1.4
			c-0.2,0.7-0.3,1.7-0.3,3v0.8c0.6-0.8,1.4-1.2,2.4-1.2c1.1,0,1.9,0.4,2.4,1.2C35.4,99.9,35.6,101,35.6,102.4z M33.5,102.5
			c0-1-0.1-1.7-0.3-2.1c-0.2-0.6-0.7-0.9-1.3-0.9c-1.1,0-1.7,1-1.7,3c0,1,0.1,1.7,0.3,2.2c0.3,0.6,0.7,0.9,1.4,0.9
			c0.7,0,1.2-0.3,1.4-1C33.4,104.2,33.5,103.5,33.5,102.5z"/>
		<path class="st0" d="M37.8,107v-2.2h2v2.2H37.8z"/>
		<path class="st0" d="M49.7,102.4c0,3.2-1.3,4.8-3.8,4.8c-1.5,0-2.5-0.5-3.1-1.6c-0.4-0.9-0.7-2.3-0.7-4.2v-2.9
			c0-1.9,0.2-3.2,0.6-4.1c0.6-1.3,1.7-1.9,3.3-1.9c2.2,0,3.4,1.1,3.4,3.2h-2.1c0-1.1-0.4-1.7-1.4-1.7c-0.7,0-1.2,0.5-1.5,1.4
			c-0.2,0.7-0.3,1.7-0.3,3v0.8c0.6-0.8,1.4-1.2,2.4-1.2c1.1,0,1.9,0.4,2.4,1.2C49.4,99.9,49.7,101,49.7,102.4z M47.5,102.5
			c0-1-0.1-1.7-0.3-2.1c-0.2-0.6-0.7-0.9-1.3-0.9c-1.1,0-1.7,1-1.7,3c0,1,0.1,1.7,0.3,2.2c0.3,0.6,0.7,0.9,1.4,0.9
			c0.7,0,1.2-0.3,1.4-1C47.4,104.2,47.5,103.5,47.5,102.5z"/>
	</g>
</g>
<g>
	<g>
		<path class="st0" d="M53.8,93.3c0,1.5-0.5,2.2-1.6,2.2c-1.1,0-1.6-0.7-1.6-2.2c0-1.5,0.6-2.2,1.7-2.2c0.6,0,1.1,0.2,1.4,0.7
			C53.7,92.2,53.8,92.7,53.8,93.3z M52.8,93.3c0-0.4,0-0.7-0.1-0.9c-0.1-0.4-0.3-0.6-0.6-0.6c-0.5,0-0.7,0.5-0.7,1.6
			c0,1,0.2,1.5,0.7,1.5c0.3,0,0.5-0.2,0.6-0.6C52.8,94.1,52.8,93.8,52.8,93.3z M53,100.2h-0.7l3.9-9.1H57L53,100.2z M58.7,97.7
			c0,1.5-0.5,2.2-1.6,2.2s-1.6-0.7-1.6-2.2c0-1.5,0.6-2.2,1.7-2.2c0.6,0,1.1,0.2,1.4,0.7C58.6,96.6,58.7,97.1,58.7,97.7z M57.8,97.7
			c0-0.4,0-0.7-0.1-0.9c-0.1-0.4-0.3-0.6-0.6-0.6c-0.5,0-0.7,0.5-0.7,1.6c0,1,0.2,1.5,0.7,1.5c0.3,0,0.5-0.2,0.6-0.6
			C57.8,98.5,57.8,98.2,57.8,97.7z"/>
	</g>
</g>
<g>
	<g>
		<path class="st0" d="M78.7,17.6V5.9c-0.5,0.5-1.3,1.1-2.4,1.7V5.6c1-0.6,1.9-1.3,2.6-2.1h1.9v14.2H78.7z"/>
		<path class="st0" d="M92.2,11.7c0,2.1-0.2,3.5-0.5,4.4c-0.5,1.2-1.6,1.8-3.2,1.8c-1.6,0-2.6-0.6-3.2-1.7c-0.4-0.8-0.6-2.3-0.6-4.4
			V8.3c0-1.6,0.2-2.8,0.7-3.6c0.6-1,1.6-1.6,3.1-1.6c1.5,0,2.5,0.5,3.1,1.4c0.4,0.7,0.6,1.9,0.6,3.6V11.7z M90.1,9.6
			c0-1.8-0.1-3-0.2-3.5c-0.2-0.9-0.7-1.4-1.4-1.4c-0.7,0-1.2,0.5-1.4,1.4c-0.2,0.6-0.2,1.8-0.2,3.5v2.1c0,1.6,0.1,2.8,0.2,3.4
			c0.2,0.9,0.7,1.3,1.4,1.3c0.8,0,1.2-0.5,1.5-1.5c0.1-0.5,0.2-1.5,0.2-3.1V9.6z"/>
		<path class="st0" d="M94.5,17.6v-2.2h2v2.2H94.5z"/>
		<path class="st0" d="M106.2,13.7c0,2.8-1.3,4.1-3.8,4.1c-1.3,0-2.3-0.3-2.9-0.9c-0.6-0.6-0.9-1.6-0.9-2.9h2.1
			c0,1.5,0.5,2.3,1.6,2.3c1.1,0,1.7-0.8,1.7-2.5c0-1.1-0.2-1.9-0.6-2.3c-0.4-0.4-1.1-0.6-2.2-0.6V9.4c1,0,1.6-0.2,2-0.5
			c0.4-0.4,0.6-1,0.6-2c0-1.5-0.5-2.2-1.5-2.2c-1,0-1.5,0.7-1.5,2.1h-2.1V6.3c0.1-2.1,1.3-3.1,3.7-3.1c1.3,0,2.2,0.3,2.7,0.9
			c0.6,0.6,0.9,1.5,0.9,2.7c0,2-0.7,3.1-2.1,3.4c0.9,0.2,1.4,0.6,1.8,1.2C106,11.9,106.2,12.7,106.2,13.7z"/>
	</g>
</g>
<g>
	<g>
		<path class="st0" d="M110.6,4.1c0,1.5-0.5,2.2-1.6,2.2c-1.1,0-1.6-0.7-1.6-2.2c0-1.5,0.6-2.2,1.7-2.2c0.6,0,1.1,0.2,1.4,0.7
			C110.5,3,110.6,3.5,110.6,4.1z M109.6,4.1c0-0.4,0-0.7-0.1-0.9c-0.1-0.4-0.3-0.6-0.6-0.6c-0.5,0-0.7,0.5-0.7,1.6
			c0,1,0.2,1.5,0.7,1.5c0.3,0,0.5-0.2,0.6-0.6C109.6,5,109.6,4.6,109.6,4.1z M109.8,11h-0.7l3.9-9.1h0.7L109.8,11z M115.6,8.6
			c0,1.5-0.5,2.2-1.6,2.2s-1.6-0.7-1.6-2.2c0-1.5,0.6-2.2,1.7-2.2c0.6,0,1.1,0.2,1.4,0.7C115.5,7.4,115.6,7.9,115.6,8.6z M114.6,8.6
			c0-0.4,0-0.7-0.1-0.9c-0.1-0.4-0.3-0.6-0.6-0.6c-0.5,0-0.7,0.5-0.7,1.6c0,1,0.2,1.5,0.7,1.5c0.3,0,0.5-0.2,0.6-0.6
			C114.6,9.4,114.6,9,114.6,8.6z"/>
	</g>
</g>
<line class="st1" x1="0" y1="241.6" x2="424.6" y2="241.6"/>
<g>
	<g>
		<path class="st0" d="M142.6,196c0,1-0.3,1.8-0.8,2.3c-0.6,0.5-1.3,0.8-2.3,0.8c-1.1,0-2-0.3-2.5-0.8c-0.5-0.5-0.8-1.4-0.8-2.5
			v-0.1h1.4v0.1c0,0.7,0.1,1.3,0.4,1.6c0.3,0.4,0.8,0.7,1.5,0.7c1.2,0,1.8-0.6,1.8-1.9c0-0.6-0.2-1.1-0.6-1.6
			c-0.2-0.2-0.6-0.5-1.4-1c-1-0.6-1.7-1.1-2-1.4c-0.5-0.6-0.8-1.3-0.8-2.2c0-0.9,0.3-1.7,0.9-2.2c0.6-0.5,1.3-0.7,2.2-0.7
			c2,0,3,0.9,3,2.8v0.4h-1.4v-0.3c0-0.6-0.1-1-0.3-1.3c-0.3-0.3-0.7-0.5-1.3-0.5c-0.5,0-0.9,0.2-1.2,0.5c-0.3,0.3-0.4,0.7-0.4,1.3
			c0,0.7,0.3,1.2,0.8,1.6c0,0,0.6,0.4,1.6,1.1c0.9,0.6,1.5,1,1.7,1.3C142.4,194.3,142.6,195.1,142.6,196z"/>
		<path class="st0" d="M149.4,198.8h-1.2l0-1.1c-0.5,0.8-1.3,1.2-2.2,1.2c-0.7,0-1.2-0.2-1.6-0.7c-0.3-0.4-0.5-1-0.5-1.7
			c0-1.1,0.4-1.9,1.3-2.3c0.6-0.3,1.5-0.4,2.8-0.4v-0.4c0-0.7-0.1-1.1-0.2-1.4c-0.2-0.4-0.5-0.6-1.1-0.6c-0.4,0-0.7,0.1-1,0.3
			c-0.3,0.2-0.4,0.5-0.4,0.9v0.1h-1.3v-0.1c0-0.7,0.3-1.3,0.8-1.6c0.5-0.3,1.1-0.5,1.9-0.5c0.9,0,1.6,0.2,1.9,0.7
			c0.3,0.4,0.5,1.1,0.5,2v3C149.3,197.2,149.3,198.1,149.4,198.8z M148,195.7v-1h-0.3c-1.7,0-2.5,0.6-2.5,1.7c0,1,0.4,1.6,1.2,1.6
			c0.6,0,1-0.3,1.3-0.8C147.9,196.8,148,196.3,148,195.7z"/>
		<path class="st0" d="M156.5,190.7l-2.3,8.1h-1.4l-2.2-8.1h1.4l1.6,6.8l1.7-6.8H156.5z"/>
		<path class="st0" d="M159.1,188.8h-1.4v-1.4h1.4V188.8z M159.1,198.8h-1.3v-8.1h1.3V198.8z"/>
		<path class="st0" d="M166.6,198.8h-1.3v-5.2c0-0.7,0-1.2-0.1-1.4c-0.2-0.5-0.5-0.7-1.1-0.7c-0.5,0-1,0.3-1.3,0.8
			c-0.2,0.5-0.4,1-0.4,1.6v4.8h-1.3v-6.3c0-0.7,0-1.3-0.1-1.8h1.2v1.1c0.4-0.9,1.1-1.3,2.1-1.3c1.4,0,2.1,0.8,2.1,2.5V198.8z"/>
		<path class="st0" d="M174.1,190.7c0,0.1,0,0.3,0,0.6c0,0.3,0,0.5,0,0.7v7.1c0,1-0.2,1.7-0.7,2.1c-0.5,0.4-1.2,0.7-2.2,0.7
			c-1.7,0-2.5-0.8-2.5-2.3h1.4c0,1,0.4,1.5,1.2,1.5c0.6,0,1.1-0.2,1.3-0.7c0.1-0.3,0.2-0.8,0.2-1.5v-1.1c-0.4,0.6-1.1,0.9-1.9,0.9
			c-1,0-1.7-0.4-2.1-1.3c-0.2-0.6-0.4-1.4-0.4-2.6c0-1.3,0.1-2.3,0.4-2.9c0.4-0.9,1.1-1.4,2-1.4c0.9,0,1.5,0.4,1.9,1.1v-0.9H174.1z
			 M172.8,194.5c0-0.9-0.1-1.6-0.2-2c-0.2-0.7-0.7-1-1.3-1c-0.7,0-1.1,0.4-1.3,1.1c-0.1,0.4-0.2,1.2-0.2,2.2c0,0.9,0.1,1.6,0.2,2
			c0.2,0.7,0.6,1,1.2,1c0.7,0,1.2-0.4,1.4-1.2C172.7,196.2,172.8,195.5,172.8,194.5z"/>
		<path class="st0" d="M183.2,191.8c-0.1,0-0.2,0-0.3,0c-0.6,0-1.1,0.2-1.4,0.6c-0.3,0.4-0.5,0.9-0.5,1.5v5h-1.3v-6.6
			c0-0.5,0-1,0-1.5h1.2v1.1c0.4-0.8,1.1-1.2,2-1.2C183.1,190.6,183.2,191,183.2,191.8z"/>
		<path class="st0" d="M189.4,198.8h-1.2l0-1.1c-0.5,0.8-1.3,1.2-2.2,1.2c-0.7,0-1.2-0.2-1.6-0.7c-0.3-0.4-0.5-1-0.5-1.7
			c0-1.1,0.4-1.9,1.3-2.3c0.6-0.3,1.5-0.4,2.8-0.4v-0.4c0-0.7-0.1-1.1-0.2-1.4c-0.2-0.4-0.5-0.6-1.1-0.6c-0.4,0-0.7,0.1-1,0.3
			c-0.3,0.2-0.4,0.5-0.4,0.9v0.1h-1.3v-0.1c0-0.7,0.3-1.3,0.8-1.6c0.5-0.3,1.1-0.5,1.9-0.5c0.9,0,1.6,0.2,1.9,0.7
			c0.3,0.4,0.5,1.1,0.5,2v3C189.4,197.2,189.4,198.1,189.4,198.8z M188.1,195.7v-1h-0.3c-1.7,0-2.5,0.6-2.5,1.7c0,1,0.4,1.6,1.2,1.6
			c0.6,0,1-0.3,1.3-0.8C188,196.8,188.1,196.3,188.1,195.7z"/>
		<path class="st0" d="M194.6,198.8c-0.4,0-0.7,0.1-0.9,0.1c-0.7,0-1.2-0.2-1.5-0.5c-0.2-0.3-0.3-0.8-0.3-1.5v-5.2h-1.2v-0.9h1.2
			v-1.5l1.3-0.6v2h1.4v0.9h-1.4v5.1c0,0.4,0.1,0.7,0.2,0.9c0.1,0.2,0.4,0.2,0.7,0.2c0.1,0,0.3,0,0.6-0.1V198.8z"/>
		<path class="st0" d="M201.1,194.9h-4.2v0.5c0,0.8,0.1,1.4,0.2,1.8c0.2,0.5,0.6,0.8,1.2,0.8c0.9,0,1.4-0.6,1.5-1.8h1.2
			c-0.1,1.8-1,2.7-2.7,2.7c-1.1,0-1.9-0.4-2.3-1.1c-0.3-0.6-0.5-1.5-0.5-2.7c0-1.4,0.1-2.5,0.4-3.1c0.4-1,1.2-1.5,2.5-1.5
			c1.2,0,1.9,0.4,2.3,1.3c0.2,0.5,0.4,1.4,0.4,2.7V194.9z M199.8,194.1c0-0.8-0.1-1.3-0.2-1.6c-0.2-0.6-0.6-1-1.2-1
			c-0.9,0-1.4,0.5-1.5,1.6c0,0.4-0.1,0.7-0.1,1H199.8z"/>
		<path class="st0" d="M207.4,196.6c0,1.6-0.8,2.4-2.5,2.4c-1.7,0-2.5-0.9-2.4-2.6h1.3c0,0.2,0,0.3,0,0.4c0.1,0.8,0.5,1.3,1.2,1.3
			c0.8,0,1.2-0.4,1.2-1.2c0-0.4-0.1-0.8-0.4-1.1c-0.2-0.2-0.5-0.4-1.1-0.7c-0.8-0.4-1.2-0.7-1.4-0.9c-0.4-0.4-0.6-0.9-0.6-1.5
			c0-0.7,0.2-1.2,0.7-1.6c0.4-0.3,1-0.5,1.7-0.5c0.8,0,1.4,0.2,1.8,0.6c0.4,0.4,0.5,1,0.6,1.8h-1.3c0-1-0.4-1.5-1.1-1.5
			c-0.3,0-0.6,0.1-0.8,0.3c-0.2,0.2-0.3,0.5-0.3,0.8c0,0.4,0.2,0.7,0.5,0.9c0.2,0.1,0.5,0.4,1.1,0.7c0.7,0.4,1.1,0.7,1.3,0.9
			C207.2,195.5,207.4,196,207.4,196.6z"/>
		<path class="st0" d="M217.6,198.8h-1.2l0-1.1c-0.5,0.8-1.3,1.2-2.2,1.2c-0.7,0-1.2-0.2-1.6-0.7c-0.3-0.4-0.5-1-0.5-1.7
			c0-1.1,0.4-1.9,1.3-2.3c0.6-0.3,1.5-0.4,2.8-0.4v-0.4c0-0.7-0.1-1.1-0.2-1.4c-0.2-0.4-0.5-0.6-1.1-0.6c-0.4,0-0.7,0.1-1,0.3
			c-0.3,0.2-0.4,0.5-0.4,0.9v0.1h-1.3v-0.1c0-0.7,0.3-1.3,0.8-1.6c0.5-0.3,1.1-0.5,1.9-0.5c0.9,0,1.6,0.2,1.9,0.7
			c0.3,0.4,0.5,1.1,0.5,2v3C217.6,197.2,217.6,198.1,217.6,198.8z M216.3,195.7v-1H216c-1.7,0-2.5,0.6-2.5,1.7c0,1,0.4,1.6,1.2,1.6
			c0.6,0,1-0.3,1.3-0.8C216.2,196.8,216.3,196.3,216.3,195.7z"/>
		<path class="st0" d="M223,191.8c-0.1,0-0.2,0-0.3,0c-0.6,0-1.1,0.2-1.4,0.6c-0.3,0.4-0.5,0.9-0.5,1.5v5h-1.3v-6.6c0-0.5,0-1,0-1.5
			h1.2v1.1c0.4-0.8,1.1-1.2,2-1.2C223,190.6,223,191,223,191.8z"/>
		<path class="st0" d="M229.5,194.9h-4.2v0.5c0,0.8,0.1,1.4,0.2,1.8c0.2,0.5,0.6,0.8,1.2,0.8c0.9,0,1.4-0.6,1.5-1.8h1.2
			c-0.1,1.8-1,2.7-2.7,2.7c-1.1,0-1.9-0.4-2.3-1.1c-0.3-0.6-0.5-1.5-0.5-2.7c0-1.4,0.1-2.5,0.4-3.1c0.4-1,1.2-1.5,2.5-1.5
			c1.2,0,1.9,0.4,2.3,1.3c0.2,0.5,0.4,1.4,0.4,2.7V194.9z M228.2,194.1c0-0.8-0.1-1.3-0.2-1.6c-0.2-0.6-0.6-1-1.2-1
			c-0.9,0-1.4,0.5-1.5,1.6c0,0.4-0.1,0.7-0.1,1H228.2z"/>
		<path class="st0" d="M240.3,195c0,1.3-0.2,2.2-0.5,2.8c-0.4,0.8-1.3,1.2-2.4,1.2c-1.8,0-2.7-0.9-2.7-2.8h1.3
			c0,1.2,0.5,1.8,1.4,1.8c0.6,0,1.1-0.3,1.3-0.8c0.2-0.4,0.3-1.1,0.3-2.2c0-1.7-0.5-2.5-1.5-2.5c-0.4,0-0.7,0.1-1,0.3
			c-0.3,0.2-0.5,0.5-0.5,0.8h-1.2l0.2-6.2h5v1h-3.8l-0.2,3.9c0.5-0.6,1.1-0.8,1.8-0.8c1,0,1.6,0.4,2,1.1
			C240.2,193.1,240.3,193.9,240.3,195z"/>
		<path class="st0" d="M247.6,195.1c0,1.2-0.2,2.1-0.5,2.7c-0.5,0.8-1.2,1.2-2.3,1.2c-1.2,0-2-0.5-2.4-1.5c-0.3-0.7-0.4-1.8-0.4-3.3
			V192c0-1.4,0.2-2.5,0.5-3.2c0.5-1,1.3-1.5,2.5-1.5c1.7,0,2.6,0.9,2.6,2.6h-1.3c0-1.1-0.4-1.6-1.3-1.6c-0.7,0-1.1,0.4-1.4,1.2
			c-0.2,0.5-0.3,1.4-0.3,2.6v0.7c0.5-0.7,1.1-1.1,2-1.1C246.8,191.7,247.6,192.8,247.6,195.1z M246.3,195.2c0-0.7-0.1-1.3-0.2-1.6
			c-0.2-0.6-0.6-0.8-1.3-0.8c-1.1,0-1.6,0.9-1.6,2.7s0.5,2.7,1.6,2.7c0.6,0,1.1-0.3,1.3-1C246.2,196.6,246.3,196,246.3,195.2z"/>
		<path class="st0" d="M252.9,190.1c0,2-0.7,3.1-2.1,3.1c-1.4,0-2-1-2-2.9c0-2,0.7-3,2.1-3c0.8,0,1.4,0.3,1.7,0.9
			C252.8,188.6,252.9,189.2,252.9,190.1z M251.8,190.1c0-0.6,0-1-0.1-1.2c-0.1-0.5-0.4-0.7-0.8-0.7c-0.7,0-1,0.7-1,2.2
			c0,1.4,0.3,2,1,2c0.5,0,0.8-0.3,0.9-0.8C251.8,191.2,251.8,190.7,251.8,190.1z M257.4,187l-6,12.3h-0.9l6-12.3H257.4z
			 M259.1,195.9c0,2-0.7,3.1-2.1,3.1c-1.4,0-2-1-2-2.9c0-2,0.7-3,2.1-3c0.8,0,1.4,0.3,1.7,0.9C259,194.4,259.1,195.1,259.1,195.9z
			 M258.1,195.9c0-0.6,0-1-0.1-1.2c-0.1-0.5-0.4-0.7-0.8-0.7c-0.7,0-1,0.7-1,2.2c0,1.4,0.3,2,1,2c0.5,0,0.8-0.3,0.9-0.8
			C258,197.1,258.1,196.6,258.1,195.9z"/>
		<path class="st0" d="M269.7,198.8h-1.3v-5.2c0-0.7,0-1.2-0.1-1.4c-0.2-0.5-0.5-0.7-1.1-0.7c-1.1,0-1.6,0.8-1.6,2.4v4.9h-1.3v-11.6
			h1.3v4.4c0.5-0.7,1.2-1.1,2-1.1c1.4,0,2.1,0.8,2.1,2.5V198.8z"/>
		<path class="st0" d="M273.2,188.8h-1.4v-1.4h1.4V188.8z M273.1,198.8h-1.3v-8.1h1.3V198.8z"/>
		<path class="st0" d="M280.6,190.7c0,0.1,0,0.3,0,0.6c0,0.3,0,0.5,0,0.7v7.1c0,1-0.2,1.7-0.7,2.1c-0.5,0.4-1.2,0.7-2.2,0.7
			c-1.7,0-2.5-0.8-2.5-2.3h1.4c0,1,0.4,1.5,1.2,1.5c0.6,0,1.1-0.2,1.3-0.7c0.1-0.3,0.2-0.8,0.2-1.5v-1.1c-0.4,0.6-1.1,0.9-1.9,0.9
			c-1,0-1.7-0.4-2.1-1.3c-0.2-0.6-0.4-1.4-0.4-2.6c0-1.3,0.1-2.3,0.4-2.9c0.4-0.9,1.1-1.4,2-1.4c0.9,0,1.5,0.4,1.9,1.1v-0.9H280.6z
			 M279.3,194.5c0-0.9-0.1-1.6-0.2-2c-0.2-0.7-0.7-1-1.3-1c-0.7,0-1.1,0.4-1.3,1.1c-0.1,0.4-0.2,1.2-0.2,2.2c0,0.9,0.1,1.6,0.2,2
			c0.2,0.7,0.6,1,1.2,1c0.7,0,1.2-0.4,1.4-1.2C279.2,196.2,279.3,195.5,279.3,194.5z"/>
		<path class="st0" d="M288.1,198.8h-1.3v-5.2c0-0.7,0-1.2-0.1-1.4c-0.2-0.5-0.5-0.7-1.1-0.7c-1.1,0-1.6,0.8-1.6,2.4v4.9h-1.3v-11.6
			h1.3v4.4c0.5-0.7,1.2-1.1,2-1.1c1.4,0,2.1,0.8,2.1,2.5V198.8z"/>
		<path class="st0" d="M295.4,194.9h-4.2v0.5c0,0.8,0.1,1.4,0.2,1.8c0.2,0.5,0.6,0.8,1.2,0.8c0.9,0,1.4-0.6,1.5-1.8h1.2
			c-0.1,1.8-1,2.7-2.7,2.7c-1.1,0-1.9-0.4-2.3-1.1c-0.3-0.6-0.5-1.5-0.5-2.7c0-1.4,0.1-2.5,0.4-3.1c0.4-1,1.2-1.5,2.5-1.5
			c1.2,0,1.9,0.4,2.3,1.3c0.2,0.5,0.4,1.4,0.4,2.7V194.9z M294.2,194.1c0-0.8-0.1-1.3-0.2-1.6c-0.2-0.6-0.6-1-1.2-1
			c-0.9,0-1.4,0.5-1.5,1.6c0,0.4-0.1,0.7-0.1,1H294.2z"/>
		<path class="st0" d="M300.6,191.8c-0.1,0-0.2,0-0.3,0c-0.6,0-1.1,0.2-1.4,0.6c-0.3,0.4-0.5,0.9-0.5,1.5v5h-1.3v-6.6
			c0-0.5,0-1,0-1.5h1.2v1.1c0.4-0.8,1.1-1.2,2-1.2C300.5,190.6,300.6,191,300.6,191.8z"/>
		<path class="st0" d="M306.8,188.8h-1.4v-1.4h1.4V188.8z M306.7,198.8h-1.3v-8.1h1.3V198.8z"/>
		<path class="st0" d="M314.3,198.8H313v-5.2c0-0.7,0-1.2-0.1-1.4c-0.2-0.5-0.5-0.7-1.1-0.7c-0.5,0-1,0.3-1.3,0.8
			c-0.2,0.5-0.4,1-0.4,1.6v4.8h-1.3v-6.3c0-0.7,0-1.3-0.1-1.8h1.2v1.1c0.4-0.9,1.1-1.3,2.1-1.3c1.4,0,2.1,0.8,2.1,2.5V198.8z"/>
		<path class="st0" d="M325,198.8h-1.2l0-1.1c-0.5,0.8-1.3,1.2-2.2,1.2c-0.7,0-1.2-0.2-1.6-0.7c-0.3-0.4-0.5-1-0.5-1.7
			c0-1.1,0.4-1.9,1.3-2.3c0.6-0.3,1.5-0.4,2.8-0.4v-0.4c0-0.7-0.1-1.1-0.2-1.4c-0.2-0.4-0.5-0.6-1.1-0.6c-0.4,0-0.7,0.1-1,0.3
			c-0.3,0.2-0.4,0.5-0.4,0.9v0.1h-1.3v-0.1c0-0.7,0.3-1.3,0.8-1.6c0.5-0.3,1.1-0.5,1.9-0.5c0.9,0,1.6,0.2,1.9,0.7
			c0.3,0.4,0.5,1.1,0.5,2v3C325,197.2,325,198.1,325,198.8z M323.7,195.7v-1h-0.3c-1.7,0-2.5,0.6-2.5,1.7c0,1,0.4,1.6,1.2,1.6
			c0.6,0,1-0.3,1.3-0.8C323.6,196.8,323.7,196.3,323.7,195.7z"/>
		<path class="st0" d="M332.5,198.8h-1.3l0-1c-0.5,0.8-1.2,1.2-2,1.2c-1.4,0-2.2-0.8-2.2-2.5v-5.7h1.3v5.2c0,0.7,0.1,1.1,0.2,1.4
			c0.2,0.5,0.6,0.7,1.1,0.7c1.1,0,1.6-0.8,1.6-2.4v-4.9h1.3v6.3C332.5,197.7,332.5,198.2,332.5,198.8z"/>
		<path class="st0" d="M337.7,198.8c-0.4,0-0.7,0.1-0.9,0.1c-0.7,0-1.2-0.2-1.5-0.5c-0.2-0.3-0.3-0.8-0.3-1.5v-5.2h-1.2v-0.9h1.2
			v-1.5l1.3-0.6v2h1.4v0.9h-1.4v5.1c0,0.4,0.1,0.7,0.2,0.9c0.1,0.2,0.4,0.2,0.7,0.2c0.1,0,0.3,0,0.6-0.1V198.8z"/>
		<path class="st0" d="M344.4,194.7c0,1.5-0.2,2.5-0.5,3.1c-0.4,0.7-1.2,1.1-2.3,1.1c-1.2,0-1.9-0.4-2.3-1.1c-0.3-0.6-0.4-1.6-0.4-3
			c0-1.4,0.2-2.4,0.5-3c0.4-0.8,1.2-1.3,2.4-1.3c1.2,0,1.9,0.4,2.3,1.2C344.2,192.3,344.4,193.3,344.4,194.7z M343.1,195.6v-1.2
			c0-0.9-0.1-1.6-0.2-1.9c-0.2-0.7-0.6-1-1.3-1c-0.7,0-1.2,0.3-1.4,1c-0.1,0.4-0.2,1-0.2,1.9v1.2c0,0.8,0.1,1.3,0.2,1.7
			c0.2,0.6,0.7,0.8,1.3,0.8c0.6,0,1.1-0.3,1.3-0.8C343,196.9,343.1,196.3,343.1,195.6z"/>
		<path class="st0" d="M355.1,198.8h-1.3v-5.4c0-0.6-0.1-1-0.2-1.2c-0.2-0.4-0.5-0.6-1-0.6c-1,0-1.4,0.7-1.4,2.2v5.1H350v-5.5
			c0-0.6,0-1-0.1-1.2c-0.1-0.4-0.5-0.6-1-0.6c-0.5,0-0.8,0.2-1.1,0.7c-0.2,0.4-0.3,1-0.3,1.6v4.9h-1.3v-6.7c0-0.5,0-0.9-0.1-1.4h1.3
			v1.1c0.4-0.8,1.1-1.2,1.9-1.2c0.9,0,1.5,0.4,1.8,1.2c0.5-0.8,1.1-1.2,2-1.2c0.7,0,1.3,0.2,1.6,0.7c0.3,0.4,0.4,1.1,0.4,2V198.8z"
			/>
		<path class="st0" d="M362.2,198.8H361l0-1.1c-0.5,0.8-1.3,1.2-2.2,1.2c-0.7,0-1.2-0.2-1.6-0.7c-0.3-0.4-0.5-1-0.5-1.7
			c0-1.1,0.4-1.9,1.3-2.3c0.6-0.3,1.5-0.4,2.8-0.4v-0.4c0-0.7-0.1-1.1-0.2-1.4c-0.2-0.4-0.5-0.6-1.1-0.6c-0.4,0-0.7,0.1-1,0.3
			c-0.3,0.2-0.4,0.5-0.4,0.9v0.1H357v-0.1c0-0.7,0.3-1.3,0.8-1.6c0.5-0.3,1.1-0.5,1.9-0.5c0.9,0,1.6,0.2,1.9,0.7
			c0.3,0.4,0.5,1.1,0.5,2v3C362.1,197.2,362.2,198.1,362.2,198.8z M360.9,195.7v-1h-0.3c-1.7,0-2.5,0.6-2.5,1.7c0,1,0.4,1.6,1.2,1.6
			c0.6,0,1-0.3,1.3-0.8C360.8,196.8,360.9,196.3,360.9,195.7z"/>
		<path class="st0" d="M367.4,198.8c-0.4,0-0.7,0.1-0.9,0.1c-0.7,0-1.2-0.2-1.5-0.5c-0.2-0.3-0.3-0.8-0.3-1.5v-5.2h-1.2v-0.9h1.2
			v-1.5l1.3-0.6v2h1.4v0.9h-1.4v5.1c0,0.4,0.1,0.7,0.2,0.9c0.1,0.2,0.4,0.2,0.7,0.2c0.1,0,0.3,0,0.6-0.1V198.8z"/>
		<path class="st0" d="M370,188.8h-1.4v-1.4h1.4V188.8z M370,198.8h-1.3v-8.1h1.3V198.8z"/>
		<path class="st0" d="M377.1,196.3c0,1.8-0.8,2.7-2.5,2.7c-1.2,0-1.9-0.4-2.3-1.1c-0.3-0.6-0.4-1.5-0.4-2.9c0-1.4,0.1-2.4,0.4-3
			c0.4-0.9,1.2-1.4,2.4-1.4c0.9,0,1.6,0.2,2,0.6c0.4,0.4,0.5,1.1,0.5,2h-1.2c0-1.1-0.4-1.7-1.2-1.7c-0.7,0-1.1,0.4-1.3,1.1
			c-0.1,0.4-0.2,1.2-0.2,2.2c0,1.2,0.1,2.1,0.3,2.5c0.2,0.5,0.6,0.8,1.2,0.8c0.5,0,0.9-0.2,1.1-0.5c0.1-0.3,0.2-0.7,0.2-1.2H377.1z"
			/>
		<path class="st0" d="M141.8,214.1h-4.2v0.5c0,0.8,0.1,1.4,0.2,1.8c0.2,0.5,0.6,0.8,1.2,0.8c0.9,0,1.4-0.6,1.5-1.8h1.2
			c-0.1,1.8-1,2.7-2.7,2.7c-1.1,0-1.9-0.4-2.3-1.1c-0.3-0.6-0.5-1.5-0.5-2.7c0-1.4,0.1-2.5,0.4-3.1c0.4-1,1.2-1.5,2.5-1.5
			c1.2,0,1.9,0.4,2.3,1.3c0.2,0.5,0.4,1.4,0.4,2.7V214.1z M140.5,213.3c0-0.8-0.1-1.3-0.2-1.6c-0.2-0.6-0.6-1-1.2-1
			c-0.9,0-1.4,0.5-1.5,1.6c0,0.4-0.1,0.7-0.1,1H140.5z"/>
		<path class="st0" d="M149,218h-1.3v-5.2c0-0.7,0-1.2-0.1-1.4c-0.2-0.5-0.5-0.7-1.1-0.7c-0.5,0-1,0.3-1.3,0.8
			c-0.2,0.5-0.4,1-0.4,1.6v4.8h-1.3v-6.3c0-0.7,0-1.3-0.1-1.8h1.2v1.1c0.4-0.9,1.1-1.3,2.1-1.3c1.4,0,2.1,0.8,2.1,2.5V218z"/>
		<path class="st0" d="M154.5,211c-0.1,0-0.2,0-0.3,0c-0.6,0-1.1,0.2-1.4,0.6c-0.3,0.4-0.5,0.9-0.5,1.5v5h-1.3v-6.6c0-0.5,0-1,0-1.5
			h1.2v1.1c0.4-0.8,1.1-1.2,2-1.2C154.4,209.8,154.5,210.2,154.5,211z"/>
		<path class="st0" d="M161.1,213.9c0,1.5-0.2,2.5-0.5,3.1c-0.4,0.7-1.2,1.1-2.3,1.1c-1.2,0-1.9-0.4-2.3-1.1c-0.3-0.6-0.4-1.6-0.4-3
			c0-1.4,0.2-2.4,0.5-3c0.4-0.8,1.2-1.3,2.4-1.3c1.2,0,1.9,0.4,2.3,1.2C160.9,211.5,161.1,212.5,161.1,213.9z M159.8,214.8v-1.2
			c0-0.9-0.1-1.6-0.2-1.9c-0.2-0.7-0.6-1-1.3-1c-0.7,0-1.2,0.3-1.4,1c-0.1,0.4-0.2,1-0.2,1.9v1.2c0,0.8,0.1,1.3,0.2,1.7
			c0.2,0.6,0.7,0.8,1.3,0.8c0.6,0,1.1-0.3,1.3-0.8C159.7,216.1,159.8,215.5,159.8,214.8z"/>
		<path class="st0" d="M164.2,218h-1.3v-11.6h1.3V218z"/>
		<path class="st0" d="M167.6,218h-1.3v-11.6h1.3V218z"/>
		<path class="st0" d="M178.6,218h-1.3v-5.4c0-0.6-0.1-1-0.2-1.2c-0.2-0.4-0.5-0.6-1-0.6c-1,0-1.4,0.7-1.4,2.2v5.1h-1.3v-5.5
			c0-0.6,0-1-0.1-1.2c-0.1-0.4-0.5-0.6-1-0.6c-0.5,0-0.8,0.2-1.1,0.7c-0.2,0.4-0.3,1-0.3,1.6v4.9h-1.3v-6.7c0-0.5,0-0.9-0.1-1.4h1.3
			v1.1c0.4-0.8,1.1-1.2,1.9-1.2c0.9,0,1.5,0.4,1.8,1.2c0.5-0.8,1.1-1.2,2-1.2c0.7,0,1.3,0.2,1.6,0.7c0.3,0.4,0.4,1.1,0.4,2V218z"/>
		<path class="st0" d="M185.9,214.1h-4.2v0.5c0,0.8,0.1,1.4,0.2,1.8c0.2,0.5,0.6,0.8,1.2,0.8c0.9,0,1.4-0.6,1.5-1.8h1.2
			c-0.1,1.8-1,2.7-2.7,2.7c-1.1,0-1.9-0.4-2.3-1.1c-0.3-0.6-0.5-1.5-0.5-2.7c0-1.4,0.1-2.5,0.4-3.1c0.4-1,1.2-1.5,2.5-1.5
			c1.2,0,1.9,0.4,2.3,1.3c0.2,0.5,0.4,1.4,0.4,2.7V214.1z M184.6,213.3c0-0.8-0.1-1.3-0.2-1.6c-0.2-0.6-0.6-1-1.2-1
			c-0.9,0-1.4,0.5-1.5,1.6c0,0.4-0.1,0.7-0.1,1H184.6z"/>
		<path class="st0" d="M193.1,218h-1.3v-5.2c0-0.7,0-1.2-0.1-1.4c-0.2-0.5-0.5-0.7-1.1-0.7c-0.5,0-1,0.3-1.3,0.8
			c-0.2,0.5-0.4,1-0.4,1.6v4.8h-1.3v-6.3c0-0.7,0-1.3-0.1-1.8h1.2v1.1c0.4-0.9,1.1-1.3,2.1-1.3c1.4,0,2.1,0.8,2.1,2.5V218z"/>
		<path class="st0" d="M198.4,218c-0.4,0-0.7,0.1-0.9,0.1c-0.7,0-1.2-0.2-1.5-0.5c-0.2-0.3-0.3-0.8-0.3-1.5v-5.2h-1.2v-0.9h1.2v-1.5
			l1.3-0.6v2h1.4v0.9h-1.4v5.1c0,0.4,0.1,0.7,0.2,0.9c0.1,0.2,0.4,0.2,0.7,0.2c0.1,0,0.3,0,0.6-0.1V218z"/>
		<path class="st0" d="M208.9,213.8c0,1.3-0.1,2.3-0.4,2.9c-0.4,0.9-1.1,1.4-2.1,1.4c-0.8,0-1.4-0.3-1.8-0.9v3.8h-1.3v-9.2
			c0-0.9,0-1.5-0.1-1.9h1.2v1c0.5-0.8,1.1-1.1,2-1.1c1,0,1.7,0.4,2,1.3C208.8,211.6,208.9,212.6,208.9,213.8z M207.6,213.8
			c0-0.9-0.1-1.6-0.2-2c-0.2-0.7-0.6-1-1.3-1c-0.6,0-1.1,0.3-1.3,1c-0.2,0.5-0.3,1.3-0.3,2.3c0,1,0.1,1.7,0.2,2.1
			c0.2,0.7,0.7,1,1.4,1c0.7,0,1.1-0.4,1.3-1.2C207.6,215.5,207.6,214.8,207.6,213.8z"/>
		<path class="st0" d="M212,218h-1.3v-11.6h1.3V218z"/>
		<path class="st0" d="M219.1,218h-1.2l0-1.1c-0.5,0.8-1.3,1.2-2.2,1.2c-0.7,0-1.2-0.2-1.6-0.7c-0.3-0.4-0.5-1-0.5-1.7
			c0-1.1,0.4-1.9,1.3-2.3c0.6-0.3,1.5-0.4,2.8-0.4v-0.4c0-0.7-0.1-1.1-0.2-1.4c-0.2-0.4-0.5-0.6-1.1-0.6c-0.4,0-0.7,0.1-1,0.3
			c-0.3,0.2-0.4,0.5-0.4,0.9v0.1h-1.3v-0.1c0-0.7,0.3-1.3,0.8-1.6c0.5-0.3,1.1-0.5,1.9-0.5c0.9,0,1.6,0.2,1.9,0.7
			c0.3,0.4,0.5,1.1,0.5,2v3C219,216.4,219.1,217.3,219.1,218z M217.8,214.9v-1h-0.3c-1.7,0-2.5,0.6-2.5,1.7c0,1,0.4,1.6,1.2,1.6
			c0.6,0,1-0.3,1.3-0.8C217.7,216,217.8,215.5,217.8,214.9z"/>
		<path class="st0" d="M226.6,218h-1.3v-5.2c0-0.7,0-1.2-0.1-1.4c-0.2-0.5-0.5-0.7-1.1-0.7c-0.5,0-1,0.3-1.3,0.8
			c-0.2,0.5-0.4,1-0.4,1.6v4.8h-1.3v-6.3c0-0.7,0-1.3-0.1-1.8h1.2v1.1c0.4-0.9,1.1-1.3,2.1-1.3c1.4,0,2.1,0.8,2.1,2.5V218z"/>
		<path class="st0" d="M233.2,215.8c0,1.6-0.8,2.4-2.5,2.4c-1.7,0-2.5-0.9-2.4-2.6h1.3c0,0.2,0,0.3,0,0.4c0.1,0.8,0.5,1.3,1.2,1.3
			c0.8,0,1.2-0.4,1.2-1.2c0-0.4-0.1-0.8-0.4-1.1c-0.2-0.2-0.5-0.4-1.1-0.7c-0.8-0.4-1.2-0.7-1.4-0.9c-0.4-0.4-0.6-0.9-0.6-1.5
			c0-0.7,0.2-1.2,0.7-1.6c0.4-0.3,1-0.5,1.7-0.5c0.8,0,1.4,0.2,1.8,0.6c0.4,0.4,0.5,1,0.6,1.8h-1.3c0-1-0.4-1.5-1.1-1.5
			c-0.3,0-0.6,0.1-0.8,0.3c-0.2,0.2-0.3,0.5-0.3,0.8c0,0.4,0.2,0.7,0.5,0.9c0.2,0.1,0.5,0.4,1.1,0.7c0.7,0.4,1.1,0.7,1.3,0.9
			C233,214.7,233.2,215.2,233.2,215.8z"/>
	</g>
</g>
<rect x="73.4" y="25.5" class="st2" width="46.2" height="216.1"/>
<rect x="15.4" y="115.3" class="st3" width="46.2" height="126.3"/>
<g>
	<path class="st3" d="M139.8,59.4h-1.9l-2.2-8.1h1.7l1.5,6.5l1.5-6.5h1.6L139.8,59.4z"/>
	<path class="st3" d="M148.7,55.2c0,1.5-0.2,2.6-0.5,3.2c-0.4,0.8-1.2,1.2-2.5,1.2c-1.2,0-2.1-0.4-2.5-1.2c-0.3-0.6-0.5-1.6-0.5-3
		c0-1.4,0.2-2.4,0.5-3c0.5-0.8,1.3-1.3,2.5-1.3s2,0.4,2.4,1.1C148.6,52.8,148.7,53.8,148.7,55.2z M147.1,54.7c0-0.8,0-1.3-0.1-1.6
		c-0.2-0.5-0.5-0.8-1.1-0.8c-0.6,0-1,0.3-1.2,0.9c-0.1,0.3-0.2,0.9-0.2,1.6v1.4c0,0.7,0.1,1.2,0.2,1.5c0.2,0.5,0.6,0.8,1.1,0.8
		c0.5,0,0.9-0.2,1.1-0.8c0.1-0.3,0.2-0.8,0.2-1.5V54.7z"/>
	<path class="st3" d="M150.4,59.4V47.8h1.7v11.6H150.4z"/>
	<path class="st3" d="M158.1,59.4l0-0.9c-0.5,0.7-1.1,1.1-2,1.1c-1.4,0-2.1-0.8-2.1-2.4v-5.8h1.7v5.3c0,0.6,0,1,0.1,1.2
		c0.2,0.4,0.5,0.6,0.9,0.6c0.9,0,1.3-0.7,1.3-2v-5.1h1.7v6.5c0,0.2,0,0.4,0,0.7s0,0.5,0,0.8H158.1z"/>
	<path class="st3" d="M165.8,59.4v-5.3c0-0.6,0-1-0.1-1.2c-0.1-0.4-0.5-0.6-0.9-0.6c-0.5,0-0.8,0.2-1,0.7c-0.2,0.4-0.3,0.8-0.3,1.3
		v5.2h-1.7v-6.5c0-0.3,0-0.6,0-0.8s0-0.5,0-0.7h1.7v1c0.4-0.8,1.1-1.2,2-1.2c1.4,0,2.1,0.8,2.1,2.5v5.8H165.8z"/>
	<path class="st3" d="M172.8,59.4c-0.2,0-0.6,0.1-1,0.1c-0.8,0-1.3-0.1-1.6-0.4c-0.3-0.3-0.4-0.8-0.4-1.6v-4.9h-1.1v-1.2h1.1v-1.4
		l1.7-0.7v2.1h1.3v1.2h-1.3v4.7c0,0.4,0,0.7,0.1,0.8c0.1,0.2,0.4,0.3,0.7,0.3c0.1,0,0.3,0,0.6,0V59.4z"/>
	<path class="st3" d="M177.7,59.4l0-1c-0.5,0.7-1.2,1.1-2.1,1.1c-0.7,0-1.2-0.2-1.6-0.7c-0.3-0.4-0.5-1-0.5-1.7c0-1.2,0.4-2,1.2-2.4
		c0.6-0.3,1.5-0.4,2.8-0.4V54c0-0.6,0-1-0.1-1.2c-0.1-0.4-0.4-0.6-0.9-0.6c-0.7,0-1.1,0.4-1.1,1.2v0.1h-1.6v-0.1
		c0-1.5,0.9-2.2,2.8-2.2c0.9,0,1.6,0.2,2,0.7c0.4,0.4,0.5,1.1,0.5,2.1v2.9c0,0.6,0,1.1,0,1.6c0,0.4,0,0.8,0.1,1.1H177.7z
		 M177.5,55.4h-0.3c-1.3,0-2,0.5-2,1.6c0,0.9,0.3,1.4,1,1.4c0.9,0,1.3-0.7,1.3-2.1V55.4z"/>
	<path class="st3" d="M184.8,52.7c-0.1,0-0.1,0-0.2,0c-0.1,0-0.1,0-0.1,0c-1.2,0-1.8,0.7-1.8,2v4.7h-1.7v-6.6c0-0.2,0-0.4,0-0.6
		c0-0.2,0-0.5,0-0.8h1.6l0,1.1c0.4-0.8,1.1-1.2,2-1.2h0c0,0,0.1,0,0.1,0V52.7z"/>
	<path class="st3" d="M188.2,62.4h-1.6l0.9-3.1l-2.4-8.1h1.8l1.5,6l1.4-6h1.6L188.2,62.4z"/>
	<path class="st3" d="M137.9,74.8v0.6c0,0.7,0.1,1.3,0.2,1.6c0.2,0.4,0.5,0.6,1,0.6c0.8,0,1.2-0.6,1.2-1.7h1.6
		c-0.1,1-0.3,1.7-0.7,2.1c-0.4,0.5-1.1,0.7-2.1,0.7c-1.2,0-2-0.4-2.4-1.2c-0.3-0.6-0.4-1.5-0.4-2.8c0-1.4,0.2-2.4,0.5-3
		c0.4-0.9,1.3-1.4,2.5-1.4c1.2,0,2.1,0.5,2.4,1.4c0.2,0.5,0.3,1.5,0.3,3H137.9z M140.3,73.7c0-0.3,0-0.5,0-0.7c0-0.2,0-0.3,0-0.4
		c-0.1-0.8-0.5-1.2-1.1-1.2c-0.7,0-1.1,0.4-1.2,1.3c0,0.2,0,0.3,0,0.5c0,0.2,0,0.3,0,0.5H140.3z"/>
	<path class="st3" d="M147.6,78.6v-5.3c0-0.6,0-1-0.1-1.2c-0.1-0.4-0.5-0.6-0.9-0.6c-0.5,0-0.8,0.2-1,0.7c-0.2,0.4-0.3,0.8-0.3,1.3
		v5.2h-1.7V72c0-0.3,0-0.6,0-0.8s0-0.5,0-0.7h1.7v1c0.4-0.8,1.1-1.2,2-1.2c1.4,0,2.1,0.8,2.1,2.5v5.8H147.6z"/>
	<path class="st3" d="M155,71.9c-0.1,0-0.1,0-0.2,0c-0.1,0-0.1,0-0.1,0c-1.2,0-1.8,0.7-1.8,2v4.7h-1.7V72c0-0.2,0-0.4,0-0.6
		c0-0.2,0-0.5,0-0.8h1.6l0,1.1c0.4-0.8,1.1-1.2,2-1.2h0c0,0,0.1,0,0.1,0V71.9z"/>
	<path class="st3" d="M161.7,74.4c0,1.5-0.2,2.6-0.5,3.2c-0.4,0.8-1.2,1.2-2.5,1.2c-1.2,0-2.1-0.4-2.5-1.2c-0.3-0.6-0.5-1.6-0.5-3
		c0-1.4,0.2-2.4,0.5-3c0.5-0.8,1.3-1.3,2.5-1.3s2,0.4,2.4,1.1C161.6,72,161.7,73,161.7,74.4z M160,73.9c0-0.8,0-1.3-0.1-1.6
		c-0.2-0.5-0.5-0.8-1.1-0.8c-0.6,0-1,0.3-1.2,0.9c-0.1,0.3-0.2,0.9-0.2,1.6v1.4c0,0.7,0.1,1.2,0.2,1.5c0.2,0.5,0.6,0.8,1.1,0.8
		c0.5,0,0.9-0.2,1.1-0.8c0.1-0.3,0.2-0.8,0.2-1.5V73.9z"/>
	<path class="st3" d="M163.4,78.6V67h1.7v11.6H163.4z"/>
	<path class="st3" d="M167,78.6V67h1.7v11.6H167z"/>
	<path class="st3" d="M178.3,78.6v-5.5c0-0.5,0-0.9-0.1-1.1c-0.1-0.4-0.4-0.5-0.8-0.5s-0.7,0.2-0.9,0.6c-0.2,0.3-0.3,0.7-0.3,1.2
		v5.3h-1.7v-5.5c0-0.6,0-0.9-0.1-1.2c-0.1-0.3-0.4-0.4-0.8-0.4c-0.4,0-0.8,0.2-1,0.7c-0.1,0.4-0.2,0.8-0.2,1.3v5.1h-1.7v-6.8
		c0-0.2,0-0.5,0-0.7s0-0.4,0-0.6h1.7v1c0.4-0.8,1.1-1.2,1.9-1.2c0.9,0,1.5,0.4,1.8,1.2c0.6-0.8,1.2-1.2,2-1.2c0.8,0,1.4,0.3,1.7,0.9
		c0.2,0.4,0.3,1,0.3,1.9v5.5H178.3z"/>
	<path class="st3" d="M183.2,74.8v0.6c0,0.7,0.1,1.3,0.2,1.6c0.2,0.4,0.5,0.6,1,0.6c0.8,0,1.2-0.6,1.2-1.7h1.6
		c-0.1,1-0.3,1.7-0.7,2.1c-0.4,0.5-1.1,0.7-2.1,0.7c-1.2,0-2-0.4-2.4-1.2c-0.3-0.6-0.4-1.5-0.4-2.8c0-1.4,0.2-2.4,0.5-3
		c0.4-0.9,1.3-1.4,2.5-1.4c1.2,0,2.1,0.5,2.4,1.4c0.2,0.5,0.3,1.5,0.3,3H183.2z M185.7,73.7c0-0.3,0-0.5,0-0.7c0-0.2,0-0.3,0-0.4
		c-0.1-0.8-0.5-1.2-1.1-1.2c-0.7,0-1.1,0.4-1.2,1.3c0,0.2,0,0.3,0,0.5c0,0.2,0,0.3,0,0.5H185.7z"/>
	<path class="st3" d="M193,78.6v-5.3c0-0.6,0-1-0.1-1.2c-0.1-0.4-0.5-0.6-0.9-0.6c-0.5,0-0.8,0.2-1,0.7c-0.2,0.4-0.3,0.8-0.3,1.3
		v5.2h-1.7V72c0-0.3,0-0.6,0-0.8s0-0.5,0-0.7h1.7v1c0.4-0.8,1.1-1.2,2-1.2c1.4,0,2.1,0.8,2.1,2.5v5.8H193z"/>
	<path class="st3" d="M200,78.6c-0.2,0-0.6,0.1-1,0.1c-0.8,0-1.3-0.1-1.6-0.4c-0.3-0.3-0.4-0.8-0.4-1.6v-4.9h-1.1v-1.2h1.1v-1.4
		l1.7-0.7v2.1h1.3v1.2h-1.3v4.7c0,0.4,0,0.7,0.1,0.8c0.1,0.2,0.4,0.3,0.7,0.3c0.1,0,0.3,0,0.6,0V78.6z"/>
</g>
<g>
	<g>
		<path class="st0" d="M6,263.2c0,0.9-0.2,1.5-0.7,2c-0.5,0.4-1.2,0.7-2,0.7c-1,0-1.7-0.2-2.2-0.7c-0.4-0.5-0.7-1.2-0.7-2.2v-0.1
			h1.2v0.1c0,0.6,0.1,1.1,0.3,1.4c0.3,0.4,0.7,0.6,1.3,0.6c1,0,1.5-0.5,1.5-1.6c0-0.6-0.2-1-0.5-1.4c-0.2-0.2-0.6-0.4-1.2-0.8
			c-0.9-0.6-1.5-1-1.8-1.3c-0.5-0.5-0.7-1.1-0.7-1.9c0-0.8,0.3-1.5,0.8-1.9c0.5-0.4,1.1-0.6,2-0.6c1.7,0,2.6,0.8,2.6,2.5v0.3H4.7
			v-0.2c0-0.5-0.1-0.9-0.3-1.1c-0.2-0.3-0.6-0.4-1.2-0.4c-0.5,0-0.8,0.1-1.1,0.4c-0.3,0.3-0.4,0.6-0.4,1.1c0,0.6,0.2,1.1,0.7,1.4
			c0,0,0.5,0.3,1.4,0.9c0.8,0.5,1.3,0.9,1.5,1.1C5.8,261.8,6,262.4,6,263.2z"/>
		<path class="st0" d="M12.2,262.1c0,1.3-0.1,2.2-0.4,2.7c-0.4,0.7-1,1-2,1c-1,0-1.7-0.3-2-1c-0.3-0.5-0.4-1.4-0.4-2.6
			c0-1.2,0.1-2.1,0.4-2.6c0.4-0.7,1.1-1.1,2.1-1.1c1,0,1.7,0.3,2,1C12.1,260,12.2,260.9,12.2,262.1z M11,262.9v-1.1
			c0-0.8,0-1.4-0.1-1.7c-0.2-0.6-0.6-0.9-1.1-0.9c-0.6,0-1,0.3-1.2,0.9c-0.1,0.3-0.2,0.9-0.2,1.6v1c0,0.7,0.1,1.2,0.2,1.5
			c0.2,0.5,0.6,0.7,1.1,0.7c0.6,0,0.9-0.2,1.1-0.7C11,264,11,263.5,11,262.9z"/>
		<path class="st0" d="M18.6,265.7h-1.1l0-0.9c-0.4,0.7-1,1-1.8,1c-1.3,0-1.9-0.7-1.9-2.2v-5h1.1v4.5c0,0.6,0,1,0.1,1.2
			c0.2,0.4,0.5,0.6,1,0.6c0.9,0,1.4-0.7,1.4-2.1v-4.3h1.1v5.5C18.5,264.7,18.5,265.2,18.6,265.7z"/>
		<path class="st0" d="M23.3,259.6c-0.1,0-0.2,0-0.2,0c-0.5,0-0.9,0.2-1.2,0.5c-0.3,0.3-0.4,0.8-0.4,1.3v4.4h-1.1v-5.8
			c0-0.5,0-0.9,0-1.3h1.1v0.9c0.4-0.7,1-1.1,1.8-1.1C23.3,258.5,23.3,258.9,23.3,259.6z"/>
		<path class="st0" d="M28.8,263.5c0,1.6-0.7,2.3-2.2,2.3c-1,0-1.7-0.3-2-1c-0.3-0.5-0.4-1.4-0.4-2.6s0.1-2.1,0.3-2.6
			c0.4-0.8,1.1-1.2,2.1-1.2c0.8,0,1.4,0.2,1.7,0.6c0.3,0.4,0.5,0.9,0.5,1.7h-1.1c0-1-0.4-1.5-1.1-1.5c-0.6,0-1,0.3-1.1,0.9
			c-0.1,0.4-0.2,1-0.2,1.9c0,1.1,0.1,1.8,0.2,2.2c0.2,0.4,0.5,0.7,1,0.7c0.4,0,0.7-0.2,0.9-0.5c0.1-0.2,0.2-0.6,0.2-1.1H28.8z"/>
		<path class="st0" d="M34.7,262.3H31v0.5c0,0.7,0.1,1.2,0.2,1.6c0.2,0.5,0.6,0.7,1.1,0.7c0.8,0,1.2-0.5,1.3-1.6h1.1
			c-0.1,1.6-0.9,2.4-2.4,2.4c-1,0-1.7-0.3-2-1c-0.3-0.5-0.4-1.3-0.4-2.4c0-1.3,0.1-2.1,0.3-2.7c0.4-0.8,1.1-1.3,2.2-1.3
			c1,0,1.7,0.4,2,1.1c0.2,0.5,0.3,1.3,0.3,2.4V262.3z M33.6,261.6c0-0.7,0-1.2-0.1-1.4c-0.2-0.6-0.5-0.8-1.1-0.8
			c-0.8,0-1.2,0.5-1.3,1.4c0,0.3-0.1,0.6-0.1,0.9H33.6z"/>
		<path class="st0" d="M37.5,259.9h-1.2v-1.3h1.2V259.9z M37.5,265.7h-1.2v-1.3h1.2V265.7z"/>
		<path class="st0" d="M48.6,255.6l-2.7,10.1h-1.4l-2.6-10.1h1.3l2.1,9l2.2-9H48.6z"/>
		<path class="st0" d="M54,265.7H53l0-0.9c-0.5,0.7-1.1,1-1.9,1c-0.6,0-1.1-0.2-1.4-0.6c-0.3-0.4-0.4-0.9-0.4-1.5c0-1,0.4-1.7,1.1-2
			c0.5-0.2,1.3-0.4,2.5-0.4v-0.3c0-0.6,0-1-0.1-1.2c-0.1-0.4-0.5-0.6-1-0.6c-0.3,0-0.6,0.1-0.8,0.3c-0.2,0.2-0.3,0.4-0.3,0.8v0.1
			h-1.1v-0.1c0-0.6,0.2-1.1,0.7-1.4c0.4-0.3,0.9-0.4,1.6-0.4c0.8,0,1.4,0.2,1.7,0.6c0.3,0.4,0.4,0.9,0.4,1.8v2.6
			C54,264.3,54,265,54,265.7z M52.9,263v-0.8h-0.3c-1.5,0-2.2,0.5-2.2,1.5c0,0.9,0.3,1.4,1,1.4c0.5,0,0.9-0.2,1.2-0.7
			C52.8,264,52.9,263.5,52.9,263z"/>
		<path class="st0" d="M60.5,265.7h-1.1v-4.5c0-0.6,0-1-0.1-1.2c-0.2-0.4-0.5-0.6-1-0.6c-0.5,0-0.8,0.2-1.1,0.7
			c-0.2,0.4-0.3,0.9-0.3,1.4v4.2h-1.1v-5.5c0-0.6,0-1.1-0.1-1.5h1.1v1c0.4-0.7,1-1.1,1.8-1.1c1.2,0,1.9,0.7,1.9,2.2V265.7z"/>
		<path class="st0" d="M67.1,258.6c0,0.1,0,0.3,0,0.6s0,0.5,0,0.6v6.2c0,0.9-0.2,1.5-0.6,1.9s-1,0.6-1.9,0.6c-1.5,0-2.2-0.7-2.2-2
			h1.2c0,0.9,0.4,1.3,1.1,1.3c0.6,0,0.9-0.2,1.1-0.6c0.1-0.3,0.2-0.7,0.2-1.3v-1c-0.4,0.6-0.9,0.8-1.6,0.8c-0.9,0-1.5-0.4-1.8-1.1
			c-0.2-0.5-0.3-1.2-0.3-2.3c0-1.1,0.1-2,0.3-2.5c0.3-0.8,0.9-1.2,1.8-1.2c0.8,0,1.3,0.3,1.7,1v-0.8H67.1z M65.9,261.9
			c0-0.8-0.1-1.4-0.2-1.8c-0.2-0.6-0.6-0.9-1.1-0.9c-0.6,0-1,0.3-1.1,1c-0.1,0.4-0.2,1-0.2,1.9c0,0.8,0.1,1.4,0.2,1.7
			c0.2,0.6,0.5,0.9,1.1,0.9c0.6,0,1.1-0.4,1.3-1.1C65.9,263.4,65.9,262.8,65.9,261.9z"/>
		<path class="st0" d="M73.7,265.7h-1.1l0-0.9c-0.4,0.7-1,1-1.8,1c-1.3,0-1.9-0.7-1.9-2.2v-5H70v4.5c0,0.6,0,1,0.1,1.2
			c0.2,0.4,0.5,0.6,1,0.6c0.9,0,1.4-0.7,1.4-2.1v-4.3h1.1v5.5C73.6,264.7,73.6,265.2,73.7,265.7z"/>
		<path class="st0" d="M79.9,265.7h-1.1l0-0.9c-0.5,0.7-1.1,1-1.9,1c-0.6,0-1.1-0.2-1.4-0.6c-0.3-0.4-0.4-0.9-0.4-1.5
			c0-1,0.4-1.7,1.1-2c0.5-0.2,1.3-0.4,2.5-0.4v-0.3c0-0.6,0-1-0.1-1.2c-0.1-0.4-0.5-0.6-1-0.6c-0.3,0-0.6,0.1-0.8,0.3
			s-0.3,0.4-0.3,0.8v0.1h-1.1v-0.1c0-0.6,0.2-1.1,0.7-1.4c0.4-0.3,0.9-0.4,1.6-0.4c0.8,0,1.4,0.2,1.7,0.6c0.3,0.4,0.4,0.9,0.4,1.8
			v2.6C79.8,264.3,79.8,265,79.9,265.7z M78.7,263v-0.8h-0.3c-1.5,0-2.2,0.5-2.2,1.5c0,0.9,0.3,1.4,1,1.4c0.5,0,0.9-0.2,1.2-0.7
			C78.6,264,78.7,263.5,78.7,263z"/>
		<path class="st0" d="M84.6,259.6c-0.1,0-0.2,0-0.2,0c-0.5,0-0.9,0.2-1.2,0.5c-0.3,0.3-0.4,0.8-0.4,1.3v4.4h-1.1v-5.8
			c0-0.5,0-0.9,0-1.3h1.1v0.9c0.4-0.7,1-1.1,1.8-1.1C84.6,258.5,84.6,258.9,84.6,259.6z"/>
		<path class="st0" d="M90.4,265.7h-1.1l0-0.8c-0.4,0.6-1,0.9-1.7,0.9c-0.9,0-1.5-0.4-1.9-1.2c-0.2-0.5-0.3-1.4-0.3-2.5
			c0-1.1,0.1-1.9,0.4-2.4c0.3-0.8,0.9-1.1,1.8-1.1c0.7,0,1.2,0.3,1.6,0.8v-3.7h1.1v8.8C90.3,264.6,90.3,265.1,90.4,265.7z
			 M89.2,262.2c0-1-0.1-1.6-0.2-2.1c-0.2-0.6-0.6-0.9-1.1-0.9c-0.6,0-0.9,0.3-1.1,0.9c-0.1,0.4-0.2,1-0.2,1.9c0,0.9,0.1,1.6,0.2,2
			c0.2,0.6,0.5,0.9,1.1,0.9c0.6,0,1-0.3,1.2-0.9C89.2,263.7,89.2,263.1,89.2,262.2z"/>
		<path class="st0" d="M100,257.9c0,0.8-0.4,1.7-1.1,2.8l-2.7,4.2h3.8v0.9h-5v-1l3.3-5c0.4-0.6,0.6-1.2,0.6-1.9
			c0-0.9-0.4-1.3-1.2-1.3c-0.9,0-1.3,0.6-1.3,1.7h-1.1c0-0.1,0-0.3,0-0.5c0.1-1.4,1-2.1,2.5-2.1C99.2,255.6,100,256.3,100,257.9z"/>
		<path class="st0" d="M106.4,261.4c0,1.5-0.1,2.6-0.4,3.2c-0.4,0.8-1.1,1.2-2.1,1.2c-1,0-1.7-0.4-2.1-1.1c-0.3-0.6-0.4-1.7-0.4-3.3
			v-2.2c0-2.4,0.8-3.6,2.5-3.6c1,0,1.7,0.4,2.1,1.1c0.2,0.5,0.4,1.4,0.4,2.6V261.4z M105.2,261.6v-1.6c0-1.4-0.1-2.2-0.2-2.6
			c-0.2-0.7-0.5-1-1.1-1c-0.6,0-1,0.3-1.2,1c-0.1,0.5-0.2,1.4-0.2,2.6v1.5c0,1.2,0.1,2.1,0.2,2.5c0.2,0.6,0.6,0.9,1.1,0.9
			c0.6,0,1-0.4,1.2-1.2C105.2,263.5,105.2,262.7,105.2,261.6z"/>
		<path class="st0" d="M112.7,257.9c0,0.8-0.4,1.7-1.1,2.8l-2.7,4.2h3.8v0.9h-5v-1l3.3-5c0.4-0.6,0.6-1.2,0.6-1.9
			c0-0.9-0.4-1.3-1.2-1.3c-0.9,0-1.3,0.6-1.3,1.7h-1.1c0-0.1,0-0.3,0-0.5c0.1-1.4,1-2.1,2.5-2.1
			C111.9,255.6,112.7,256.3,112.7,257.9z"/>
		<path class="st0" d="M119,261.4c0,1.5-0.1,2.6-0.4,3.2c-0.4,0.8-1.1,1.2-2.1,1.2c-1,0-1.7-0.4-2.1-1.1c-0.3-0.6-0.4-1.7-0.4-3.3
			v-2.2c0-2.4,0.8-3.6,2.5-3.6c1,0,1.7,0.4,2.1,1.1c0.2,0.5,0.4,1.4,0.4,2.6V261.4z M117.9,261.6v-1.6c0-1.4-0.1-2.2-0.2-2.6
			c-0.2-0.7-0.5-1-1.1-1c-0.6,0-1,0.3-1.2,1c-0.1,0.5-0.2,1.4-0.2,2.6v1.5c0,1.2,0.1,2.1,0.2,2.5c0.2,0.6,0.6,0.9,1.1,0.9
			c0.6,0,1-0.4,1.2-1.2C117.9,263.5,117.9,262.7,117.9,261.6z"/>
		<path class="st0" d="M121.9,265.7h-1.2v-1.3h1.2V265.7z"/>
	</g>
</g>
<g>
	<path class="st0" d="M141.7,96.6l-2.3,8.1H138l-2.2-8.1h1.4l1.6,6.8l1.7-6.8H141.7z"/>
	<path class="st0" d="M147.5,102.5c0,1.6-0.8,2.4-2.5,2.4c-1.7,0-2.5-0.9-2.4-2.6h1.3c0,0.2,0,0.3,0,0.4c0.1,0.8,0.5,1.3,1.2,1.3
		c0.8,0,1.2-0.4,1.2-1.2c0-0.4-0.1-0.8-0.4-1.1c-0.2-0.2-0.5-0.4-1.1-0.7c-0.8-0.4-1.2-0.7-1.4-0.9c-0.4-0.4-0.6-0.9-0.6-1.5
		c0-0.7,0.2-1.2,0.7-1.6c0.4-0.3,1-0.5,1.7-0.5c0.8,0,1.4,0.2,1.8,0.6c0.4,0.4,0.5,1,0.6,1.8h-1.3c0-1-0.4-1.5-1.1-1.5
		c-0.3,0-0.6,0.1-0.8,0.3c-0.2,0.2-0.3,0.5-0.3,0.8c0,0.4,0.2,0.7,0.5,0.9c0.2,0.1,0.5,0.4,1.1,0.7c0.7,0.4,1.1,0.7,1.3,0.9
		C147.3,101.4,147.5,101.9,147.5,102.5z"/>
	<path class="st0" d="M150.6,104.7h-1.4v-1.5h1.4V104.7z"/>
</g>
<g>
	<path class="st2" d="M140.2,127.1l0-1c-0.5,0.7-1.2,1.1-2.1,1.1c-0.7,0-1.2-0.2-1.6-0.7c-0.3-0.4-0.5-1-0.5-1.7
		c0-1.2,0.4-2,1.2-2.4c0.6-0.3,1.5-0.4,2.8-0.4v-0.4c0-0.6,0-1-0.1-1.2c-0.1-0.4-0.4-0.6-0.9-0.6c-0.7,0-1.1,0.4-1.1,1.2v0.1h-1.6
		v-0.1c0-1.5,0.9-2.2,2.8-2.2c0.9,0,1.6,0.2,2,0.7c0.4,0.4,0.5,1.1,0.5,2.1v2.9c0,0.6,0,1.1,0,1.6c0,0.4,0,0.8,0.1,1.1H140.2z
		 M140.1,123.1h-0.3c-1.3,0-2,0.5-2,1.6c0,0.9,0.3,1.4,1,1.4c0.9,0,1.3-0.7,1.3-2.1V123.1z"/>
	<path class="st2" d="M147.7,127.1l0-0.9c-0.5,0.7-1.1,1.1-2,1.1c-1.4,0-2.1-0.8-2.1-2.4V119h1.7v5.3c0,0.6,0,1,0.1,1.2
		c0.2,0.4,0.5,0.6,0.9,0.6c0.9,0,1.3-0.7,1.3-2V119h1.7v6.5c0,0.2,0,0.4,0,0.7s0,0.5,0,0.8H147.7z"/>
	<path class="st2" d="M154.7,127.1c-0.2,0-0.6,0.1-1,0.1c-0.8,0-1.3-0.1-1.6-0.4c-0.3-0.3-0.4-0.8-0.4-1.6v-4.9h-1.1V119h1.1v-1.4
		l1.7-0.7v2.1h1.3v1.2h-1.3v4.7c0,0.4,0,0.7,0.1,0.8c0.1,0.2,0.4,0.3,0.7,0.3c0.1,0,0.3,0,0.6,0V127.1z"/>
	<path class="st2" d="M161.5,122.9c0,1.5-0.2,2.6-0.5,3.2c-0.4,0.8-1.2,1.2-2.5,1.2c-1.2,0-2.1-0.4-2.5-1.2c-0.3-0.6-0.5-1.6-0.5-3
		c0-1.4,0.2-2.4,0.5-3c0.5-0.8,1.3-1.3,2.5-1.3s2,0.4,2.4,1.1C161.4,120.5,161.5,121.5,161.5,122.9z M159.8,122.5
		c0-0.8,0-1.3-0.1-1.6c-0.2-0.5-0.5-0.8-1.1-0.8c-0.6,0-1,0.3-1.2,0.9c-0.1,0.3-0.2,0.9-0.2,1.6v1.4c0,0.7,0.1,1.2,0.2,1.5
		c0.2,0.5,0.6,0.8,1.1,0.8c0.5,0,0.9-0.2,1.1-0.8c0.1-0.3,0.2-0.8,0.2-1.5V122.5z"/>
	<path class="st2" d="M170.8,127.1v-5.5c0-0.5,0-0.9-0.1-1.1c-0.1-0.4-0.4-0.5-0.8-0.5s-0.7,0.2-0.9,0.6c-0.2,0.3-0.3,0.7-0.3,1.2
		v5.3H167v-5.5c0-0.6,0-0.9-0.1-1.2c-0.1-0.3-0.4-0.4-0.8-0.4c-0.4,0-0.8,0.2-1,0.7c-0.1,0.4-0.2,0.8-0.2,1.3v5.1h-1.7v-6.8
		c0-0.2,0-0.5,0-0.7s0-0.4,0-0.6h1.7v1c0.4-0.8,1.1-1.2,1.9-1.2c0.9,0,1.5,0.4,1.8,1.2c0.6-0.8,1.2-1.2,2-1.2c0.8,0,1.4,0.3,1.7,0.9
		c0.2,0.4,0.3,1,0.3,1.9v5.5H170.8z"/>
	<path class="st2" d="M178.1,127.1l0-1c-0.5,0.7-1.2,1.1-2.1,1.1c-0.7,0-1.2-0.2-1.6-0.7c-0.3-0.4-0.5-1-0.5-1.7
		c0-1.2,0.4-2,1.2-2.4c0.6-0.3,1.5-0.4,2.8-0.4v-0.4c0-0.6,0-1-0.1-1.2c-0.1-0.4-0.4-0.6-0.9-0.6c-0.7,0-1.1,0.4-1.1,1.2v0.1h-1.6
		v-0.1c0-1.5,0.9-2.2,2.8-2.2c0.9,0,1.6,0.2,2,0.7c0.4,0.4,0.5,1.1,0.5,2.1v2.9c0,0.6,0,1.1,0,1.6c0,0.4,0,0.8,0.1,1.1H178.1z
		 M178,123.1h-0.3c-1.3,0-2,0.5-2,1.6c0,0.9,0.3,1.4,1,1.4c0.9,0,1.3-0.7,1.3-2.1V123.1z"/>
	<path class="st2" d="M185,127.1c-0.2,0-0.6,0.1-1,0.1c-0.8,0-1.3-0.1-1.6-0.4c-0.3-0.3-0.4-0.8-0.4-1.6v-4.9h-1.1V119h1.1v-1.4
		l1.7-0.7v2.1h1.3v1.2h-1.3v4.7c0,0.4,0,0.7,0.1,0.8c0.1,0.2,0.4,0.3,0.7,0.3c0.1,0,0.3,0,0.6,0V127.1z"/>
	<path class="st2" d="M186.1,117.2v-1.6h1.7v1.6H186.1z M186.2,127.1V119h1.7v8.1H186.2z"/>
	<path class="st2" d="M195.2,124.4c0,0.9-0.2,1.5-0.5,2c-0.4,0.6-1.2,0.9-2.3,0.9c-1.2,0-2-0.4-2.4-1.1c-0.3-0.6-0.5-1.5-0.5-2.9
		c0-1.4,0.2-2.5,0.5-3.1c0.4-0.9,1.3-1.4,2.5-1.4c0.5,0,0.9,0.1,1.2,0.2c0.3,0.1,0.6,0.3,0.8,0.5c0.2,0.2,0.4,0.5,0.5,0.9
		s0.1,0.8,0.1,1.3h-1.6c0-0.5-0.1-0.9-0.2-1.1c-0.2-0.4-0.5-0.5-0.9-0.5c-0.6,0-1,0.3-1.2,1c-0.1,0.4-0.1,1-0.1,2
		c0,1.1,0.1,1.8,0.2,2.2c0.2,0.6,0.5,0.9,1.1,0.9c0.8,0,1.2-0.6,1.2-1.8H195.2z"/>
	<path class="st2" d="M137.9,142.5v0.6c0,0.7,0.1,1.3,0.2,1.6c0.2,0.4,0.5,0.6,1,0.6c0.8,0,1.2-0.6,1.2-1.7h1.6
		c-0.1,1-0.3,1.7-0.7,2.1c-0.4,0.5-1.1,0.7-2.1,0.7c-1.2,0-2-0.4-2.4-1.2c-0.3-0.6-0.4-1.5-0.4-2.8c0-1.4,0.2-2.4,0.5-3
		c0.4-0.9,1.3-1.4,2.5-1.4c1.2,0,2.1,0.5,2.4,1.4c0.2,0.5,0.3,1.5,0.3,3H137.9z M140.3,141.5c0-0.3,0-0.5,0-0.7c0-0.2,0-0.3,0-0.4
		c-0.1-0.8-0.5-1.2-1.1-1.2c-0.7,0-1.1,0.4-1.2,1.3c0,0.2,0,0.3,0,0.5s0,0.3,0,0.5H140.3z"/>
	<path class="st2" d="M147.6,146.3V141c0-0.6,0-1-0.1-1.2c-0.1-0.4-0.5-0.6-0.9-0.6c-0.5,0-0.8,0.2-1,0.7c-0.2,0.4-0.3,0.8-0.3,1.3
		v5.2h-1.7v-6.5c0-0.3,0-0.6,0-0.8s0-0.5,0-0.7h1.7v1c0.4-0.8,1.1-1.2,2-1.2c1.4,0,2.1,0.8,2.1,2.5v5.8H147.6z"/>
	<path class="st2" d="M155,139.6c-0.1,0-0.1,0-0.2,0c-0.1,0-0.1,0-0.1,0c-1.2,0-1.8,0.7-1.8,2v4.7h-1.7v-6.6c0-0.2,0-0.4,0-0.6
		c0-0.2,0-0.5,0-0.8h1.6l0,1.1c0.4-0.8,1.1-1.2,2-1.2h0c0,0,0.1,0,0.1,0V139.6z"/>
	<path class="st2" d="M161.7,142.1c0,1.5-0.2,2.6-0.5,3.2c-0.4,0.8-1.2,1.2-2.5,1.2c-1.2,0-2.1-0.4-2.5-1.2c-0.3-0.6-0.5-1.6-0.5-3
		c0-1.4,0.2-2.4,0.5-3c0.5-0.8,1.3-1.3,2.5-1.3s2,0.4,2.4,1.1C161.6,139.7,161.7,140.7,161.7,142.1z M160,141.7c0-0.8,0-1.3-0.1-1.6
		c-0.2-0.5-0.5-0.8-1.1-0.8c-0.6,0-1,0.3-1.2,0.9c-0.1,0.3-0.2,0.9-0.2,1.6v1.4c0,0.7,0.1,1.2,0.2,1.5c0.2,0.5,0.6,0.8,1.1,0.8
		c0.5,0,0.9-0.2,1.1-0.8c0.1-0.3,0.2-0.8,0.2-1.5V141.7z"/>
	<path class="st2" d="M163.4,146.3v-11.6h1.7v11.6H163.4z"/>
	<path class="st2" d="M167,146.3v-11.6h1.7v11.6H167z"/>
	<path class="st2" d="M178.3,146.3v-5.5c0-0.5,0-0.9-0.1-1.1c-0.1-0.4-0.4-0.5-0.8-0.5s-0.7,0.2-0.9,0.6c-0.2,0.3-0.3,0.7-0.3,1.2
		v5.3h-1.7v-5.5c0-0.6,0-0.9-0.1-1.2c-0.1-0.3-0.4-0.4-0.8-0.4c-0.4,0-0.8,0.2-1,0.7c-0.1,0.4-0.2,0.8-0.2,1.3v5.1h-1.7v-6.8
		c0-0.2,0-0.5,0-0.7s0-0.4,0-0.6h1.7v1c0.4-0.8,1.1-1.2,1.9-1.2c0.9,0,1.5,0.4,1.8,1.2c0.6-0.8,1.2-1.2,2-1.2c0.8,0,1.4,0.3,1.7,0.9
		c0.2,0.4,0.3,1,0.3,1.9v5.5H178.3z"/>
	<path class="st2" d="M183.2,142.5v0.6c0,0.7,0.1,1.3,0.2,1.6c0.2,0.4,0.5,0.6,1,0.6c0.8,0,1.2-0.6,1.2-1.7h1.6
		c-0.1,1-0.3,1.7-0.7,2.1c-0.4,0.5-1.1,0.7-2.1,0.7c-1.2,0-2-0.4-2.4-1.2c-0.3-0.6-0.4-1.5-0.4-2.8c0-1.4,0.2-2.4,0.5-3
		c0.4-0.9,1.3-1.4,2.5-1.4c1.2,0,2.1,0.5,2.4,1.4c0.2,0.5,0.3,1.5,0.3,3H183.2z M185.7,141.5c0-0.3,0-0.5,0-0.7c0-0.2,0-0.3,0-0.4
		c-0.1-0.8-0.5-1.2-1.1-1.2c-0.7,0-1.1,0.4-1.2,1.3c0,0.2,0,0.3,0,0.5s0,0.3,0,0.5H185.7z"/>
	<path class="st2" d="M193,146.3V141c0-0.6,0-1-0.1-1.2c-0.1-0.4-0.5-0.6-0.9-0.6c-0.5,0-0.8,0.2-1,0.7c-0.2,0.4-0.3,0.8-0.3,1.3
		v5.2h-1.7v-6.5c0-0.3,0-0.6,0-0.8s0-0.5,0-0.7h1.7v1c0.4-0.8,1.1-1.2,2-1.2c1.4,0,2.1,0.8,2.1,2.5v5.8H193z"/>
	<path class="st2" d="M200,146.3c-0.2,0-0.6,0.1-1,0.1c-0.8,0-1.3-0.1-1.6-0.4c-0.3-0.3-0.4-0.8-0.4-1.6v-4.9h-1.1v-1.2h1.1v-1.4
		l1.7-0.7v2.1h1.3v1.2h-1.3v4.7c0,0.4,0,0.7,0.1,0.8c0.1,0.2,0.4,0.3,0.7,0.3c0.1,0,0.3,0,0.6,0V146.3z"/>
</g>
<line class="st4" x1="135.5" y1="168.4" x2="424.6" y2="168.4"/>
</svg>
