<?xml version="1.0" encoding="utf-8"?>
<!-- Generator: Adobe Illustrator 21.0.2, SVG Export Plug-In . SVG Version: 6.00 Build 0)  -->
<svg version="1.1" id="Layer_1" xmlns="http://www.w3.org/2000/svg" xmlns:xlink="http://www.w3.org/1999/xlink" x="0px" y="0px"
	 viewBox="0 0 433.4 268.9" style="enable-background:new 0 0 433.4 268.9;" xml:space="preserve">
<style type="text/css">
	.st0{fill:#666667;}
	.st1{fill:none;stroke:#808184;stroke-width:0.5;stroke-linejoin:round;stroke-miterlimit:10;}
	.st2{fill:none;stroke:#005C97;stroke-width:1.5;stroke-linecap:round;stroke-linejoin:round;stroke-miterlimit:10;}
	.st3{fill:none;stroke:#ED302F;stroke-width:1.5;stroke-linecap:round;stroke-linejoin:round;stroke-miterlimit:10;}
	.st4{fill:none;stroke:#BBBDBF;stroke-width:0.5;stroke-linejoin:round;stroke-miterlimit:10;stroke-dasharray:6,6;}
	.st5{fill:#ED302F;}
	.st6{fill:#005C97;}
	.st7{fill:none;stroke:#A6A8AB;stroke-linecap:round;stroke-linejoin:round;stroke-miterlimit:10;stroke-dasharray:5,7;}
	.st8{fill:none;stroke:#989898;stroke-linecap:round;stroke-linejoin:round;stroke-miterlimit:10;stroke-dasharray:5,7;}
</style>
<g>
	<g>
		<g>
			<path class="st0" d="M9.7,263.4c0,0.9-0.2,1.5-0.7,2s-1.2,0.7-2,0.7c-1,0-1.7-0.2-2.2-0.7c-0.4-0.5-0.7-1.2-0.7-2.2v-0.1h1.2v0.1
				c0,0.6,0.1,1.1,0.3,1.4c0.3,0.4,0.7,0.6,1.3,0.6c1,0,1.5-0.5,1.5-1.6c0-0.6-0.2-1-0.5-1.4c-0.2-0.2-0.6-0.4-1.2-0.8
				c-0.9-0.6-1.5-1-1.8-1.3c-0.5-0.5-0.7-1.1-0.7-1.9c0-0.8,0.3-1.5,0.8-1.9c0.5-0.4,1.1-0.6,2-0.6c1.7,0,2.6,0.8,2.6,2.5v0.3H8.4
				v-0.2c0-0.5-0.1-0.9-0.3-1.1c-0.2-0.3-0.6-0.4-1.2-0.4c-0.5,0-0.8,0.1-1.1,0.4c-0.3,0.3-0.4,0.6-0.4,1.1c0,0.6,0.2,1.1,0.7,1.4
				c0,0,0.5,0.3,1.4,0.9c0.8,0.5,1.3,0.9,1.5,1.1C9.5,262,9.7,262.6,9.7,263.4z"/>
			<path class="st0" d="M15.9,262.3c0,1.3-0.1,2.2-0.4,2.7c-0.4,0.7-1,1-2,1c-1,0-1.7-0.3-2-1c-0.3-0.5-0.4-1.4-0.4-2.6
				c0-1.2,0.1-2.1,0.4-2.6c0.4-0.7,1.1-1.1,2.1-1.1c1,0,1.7,0.3,2,1C15.7,260.2,15.9,261.1,15.9,262.3z M14.7,263.1V262
				c0-0.8,0-1.4-0.1-1.7c-0.2-0.6-0.6-0.9-1.1-0.9c-0.6,0-1,0.3-1.2,0.9c-0.1,0.3-0.2,0.9-0.2,1.6v1c0,0.7,0.1,1.2,0.2,1.5
				c0.2,0.5,0.6,0.7,1.1,0.7c0.6,0,0.9-0.2,1.1-0.7C14.6,264.2,14.7,263.7,14.7,263.1z"/>
			<path class="st0" d="M22.2,265.9h-1.1l0-0.9c-0.4,0.7-1,1-1.8,1c-1.3,0-1.9-0.7-1.9-2.2v-5h1.1v4.5c0,0.6,0,1,0.1,1.2
				c0.2,0.4,0.5,0.6,1,0.6c0.9,0,1.4-0.7,1.4-2.1v-4.3h1.1v5.5C22.2,264.9,22.2,265.4,22.2,265.9z"/>
			<path class="st0" d="M27,259.8c-0.1,0-0.2,0-0.2,0c-0.5,0-0.9,0.2-1.2,0.5s-0.4,0.8-0.4,1.3v4.4H24v-5.8c0-0.5,0-0.9,0-1.3h1.1
				v0.9c0.4-0.7,1-1.1,1.8-1.1C27,258.7,27,259.1,27,259.8z"/>
			<path class="st0" d="M32.5,263.7c0,1.6-0.7,2.3-2.2,2.3c-1,0-1.7-0.3-2-1c-0.3-0.5-0.4-1.4-0.4-2.6s0.1-2.1,0.3-2.6
				c0.4-0.8,1.1-1.2,2.1-1.2c0.8,0,1.4,0.2,1.7,0.6c0.3,0.4,0.5,0.9,0.5,1.7h-1.1c0-1-0.4-1.5-1.1-1.5c-0.6,0-1,0.3-1.1,0.9
				c-0.1,0.4-0.2,1-0.2,1.9c0,1.1,0.1,1.8,0.2,2.2c0.2,0.4,0.5,0.7,1,0.7c0.4,0,0.7-0.2,0.9-0.5c0.1-0.2,0.2-0.6,0.2-1.1H32.5z"/>
			<path class="st0" d="M38.4,262.5h-3.7v0.5c0,0.7,0.1,1.2,0.2,1.6c0.2,0.5,0.6,0.7,1.1,0.7c0.8,0,1.2-0.5,1.3-1.6h1.1
				c-0.1,1.6-0.9,2.4-2.4,2.4c-1,0-1.7-0.3-2-1c-0.3-0.5-0.4-1.3-0.4-2.4c0-1.3,0.1-2.1,0.3-2.7c0.4-0.8,1.1-1.3,2.2-1.3
				c1,0,1.7,0.4,2,1.1c0.2,0.5,0.3,1.3,0.3,2.4V262.5z M37.2,261.8c0-0.7,0-1.2-0.1-1.4c-0.2-0.6-0.5-0.8-1.1-0.8
				c-0.8,0-1.2,0.5-1.3,1.4c0,0.3-0.1,0.6-0.1,0.9H37.2z"/>
			<path class="st0" d="M41.2,260.2H40v-1.3h1.2V260.2z M41.2,265.9H40v-1.3h1.2V265.9z"/>
			<path class="st0" d="M52.2,255.8l-2.7,10.1h-1.4l-2.6-10.1h1.3l2.1,9l2.2-9H52.2z"/>
			<path class="st0" d="M57.7,265.9h-1.1l0-0.9c-0.5,0.7-1.1,1-1.9,1c-0.6,0-1.1-0.2-1.4-0.6c-0.3-0.4-0.4-0.9-0.4-1.5
				c0-1,0.4-1.7,1.1-2c0.5-0.2,1.3-0.4,2.5-0.4v-0.3c0-0.6,0-1-0.1-1.2c-0.1-0.4-0.5-0.6-1-0.6c-0.3,0-0.6,0.1-0.8,0.3
				s-0.3,0.4-0.3,0.8v0.1h-1.1v-0.1c0-0.6,0.2-1.1,0.7-1.4c0.4-0.3,0.9-0.4,1.6-0.4c0.8,0,1.4,0.2,1.7,0.6c0.3,0.4,0.4,0.9,0.4,1.8
				v2.6C57.6,264.5,57.7,265.3,57.7,265.9z M56.5,263.2v-0.8h-0.3c-1.5,0-2.2,0.5-2.2,1.5c0,0.9,0.3,1.4,1,1.4
				c0.5,0,0.9-0.2,1.2-0.7C56.4,264.2,56.5,263.7,56.5,263.2z"/>
			<path class="st0" d="M64.2,265.9h-1.1v-4.5c0-0.6,0-1-0.1-1.2c-0.2-0.4-0.5-0.6-1-0.6c-0.5,0-0.8,0.2-1.1,0.7
				c-0.2,0.4-0.3,0.9-0.3,1.4v4.2h-1.1v-5.5c0-0.6,0-1.1-0.1-1.5h1.1v1c0.4-0.7,1-1.1,1.8-1.1c1.2,0,1.9,0.7,1.9,2.2V265.9z"/>
			<path class="st0" d="M70.7,258.9c0,0.1,0,0.3,0,0.6s0,0.5,0,0.6v6.2c0,0.9-0.2,1.5-0.6,1.9s-1,0.6-1.9,0.6c-1.5,0-2.2-0.7-2.2-2
				h1.2c0,0.9,0.4,1.3,1.1,1.3c0.6,0,0.9-0.2,1.1-0.6c0.1-0.3,0.2-0.7,0.2-1.3v-1c-0.4,0.6-0.9,0.8-1.6,0.8c-0.9,0-1.5-0.4-1.8-1.1
				c-0.2-0.5-0.3-1.2-0.3-2.3c0-1.1,0.1-2,0.3-2.5c0.3-0.8,0.9-1.2,1.8-1.2c0.8,0,1.3,0.3,1.7,1v-0.8H70.7z M69.6,262.2
				c0-0.8-0.1-1.4-0.2-1.8c-0.2-0.6-0.6-0.9-1.1-0.9c-0.6,0-1,0.3-1.1,1c-0.1,0.4-0.2,1-0.2,1.9c0,0.8,0.1,1.4,0.2,1.7
				c0.2,0.6,0.5,0.9,1.1,0.9c0.6,0,1.1-0.4,1.3-1.1C69.6,263.6,69.6,263,69.6,262.2z"/>
			<path class="st0" d="M77.4,265.9h-1.1l0-0.9c-0.4,0.7-1,1-1.8,1c-1.3,0-1.9-0.7-1.9-2.2v-5h1.1v4.5c0,0.6,0,1,0.1,1.2
				c0.2,0.4,0.5,0.6,1,0.6c0.9,0,1.4-0.7,1.4-2.1v-4.3h1.1v5.5C77.3,264.9,77.3,265.4,77.4,265.9z"/>
			<path class="st0" d="M83.5,265.9h-1.1l0-0.9c-0.5,0.7-1.1,1-1.9,1c-0.6,0-1.1-0.2-1.4-0.6c-0.3-0.4-0.4-0.9-0.4-1.5
				c0-1,0.4-1.7,1.1-2c0.5-0.2,1.3-0.4,2.5-0.4v-0.3c0-0.6,0-1-0.1-1.2c-0.1-0.4-0.5-0.6-1-0.6c-0.3,0-0.6,0.1-0.8,0.3
				s-0.3,0.4-0.3,0.8v0.1H79v-0.1c0-0.6,0.2-1.1,0.7-1.4c0.4-0.3,0.9-0.4,1.6-0.4c0.8,0,1.4,0.2,1.7,0.6c0.3,0.4,0.4,0.9,0.4,1.8
				v2.6C83.5,264.5,83.5,265.3,83.5,265.9z M82.4,263.2v-0.8h-0.3c-1.5,0-2.2,0.5-2.2,1.5c0,0.9,0.3,1.4,1,1.4
				c0.5,0,0.9-0.2,1.2-0.7C82.3,264.2,82.4,263.7,82.4,263.2z"/>
			<path class="st0" d="M88.3,259.8c-0.1,0-0.2,0-0.2,0c-0.5,0-0.9,0.2-1.2,0.5c-0.3,0.3-0.4,0.8-0.4,1.3v4.4h-1.1v-5.8
				c0-0.5,0-0.9,0-1.3h1.1v0.9c0.4-0.7,1-1.1,1.8-1.1C88.2,258.7,88.3,259.1,88.3,259.8z"/>
			<path class="st0" d="M94,265.9H93l0-0.8c-0.4,0.6-1,0.9-1.7,0.9c-0.9,0-1.5-0.4-1.9-1.2c-0.2-0.5-0.3-1.4-0.3-2.5
				c0-1.1,0.1-1.9,0.4-2.4c0.3-0.8,0.9-1.1,1.8-1.1c0.7,0,1.2,0.3,1.6,0.8v-3.7H94v8.8C94,264.8,94,265.3,94,265.9z M92.9,262.5
				c0-1-0.1-1.6-0.2-2.1c-0.2-0.6-0.6-0.9-1.1-0.9c-0.6,0-0.9,0.3-1.1,0.9c-0.1,0.4-0.2,1-0.2,1.9c0,0.9,0.1,1.6,0.2,2
				c0.2,0.6,0.5,0.9,1.1,0.9c0.6,0,1-0.3,1.2-0.9C92.8,263.9,92.9,263.3,92.9,262.5z"/>
			<path class="st0" d="M103.7,258.1c0,0.8-0.4,1.7-1.1,2.8l-2.7,4.2h3.8v0.9h-5v-1l3.3-5c0.4-0.6,0.6-1.2,0.6-1.9
				c0-0.9-0.4-1.3-1.2-1.3c-0.9,0-1.3,0.6-1.3,1.7h-1.1c0-0.1,0-0.3,0-0.5c0.1-1.4,1-2.1,2.5-2.1
				C102.9,255.8,103.7,256.6,103.7,258.1z"/>
			<path class="st0" d="M110.1,261.6c0,1.5-0.1,2.6-0.4,3.2c-0.4,0.8-1.1,1.2-2.1,1.2c-1,0-1.7-0.4-2.1-1.1
				c-0.3-0.6-0.4-1.7-0.4-3.3v-2.2c0-2.4,0.8-3.6,2.5-3.6c1,0,1.7,0.4,2.1,1.1c0.2,0.5,0.4,1.4,0.4,2.6V261.6z M108.9,261.8v-1.6
				c0-1.4-0.1-2.2-0.2-2.6c-0.2-0.7-0.5-1-1.1-1c-0.6,0-1,0.3-1.2,1c-0.1,0.5-0.2,1.4-0.2,2.6v1.5c0,1.2,0.1,2.1,0.2,2.5
				c0.2,0.6,0.6,0.9,1.1,0.9c0.6,0,1-0.4,1.2-1.2C108.9,263.7,108.9,262.9,108.9,261.8z"/>
			<path class="st0" d="M116.3,258.1c0,0.8-0.4,1.7-1.1,2.8l-2.7,4.2h3.8v0.9h-5v-1l3.3-5c0.4-0.6,0.6-1.2,0.6-1.9
				c0-0.9-0.4-1.3-1.2-1.3c-0.9,0-1.3,0.6-1.3,1.7h-1.1c0-0.1,0-0.3,0-0.5c0.1-1.4,1-2.1,2.5-2.1
				C115.5,255.8,116.3,256.6,116.3,258.1z"/>
			<path class="st0" d="M122.7,261.6c0,1.5-0.1,2.6-0.4,3.2c-0.4,0.8-1.1,1.2-2.1,1.2c-1,0-1.7-0.4-2.1-1.1
				c-0.3-0.6-0.4-1.7-0.4-3.3v-2.2c0-2.4,0.8-3.6,2.5-3.6c1,0,1.7,0.4,2.1,1.1c0.2,0.5,0.4,1.4,0.4,2.6V261.6z M121.6,261.8v-1.6
				c0-1.4-0.1-2.2-0.2-2.6c-0.2-0.7-0.5-1-1.1-1c-0.6,0-1,0.3-1.2,1c-0.1,0.5-0.2,1.4-0.2,2.6v1.5c0,1.2,0.1,2.1,0.2,2.5
				c0.2,0.6,0.6,0.9,1.1,0.9c0.6,0,1-0.4,1.2-1.2C121.5,263.7,121.6,262.9,121.6,261.8z"/>
			<path class="st0" d="M125.6,265.9h-1.2v-1.3h1.2V265.9z"/>
		</g>
	</g>
	<line class="st1" x1="45.7" y1="217.6" x2="45.7" y2="10.2"/>
	<g>
		<g>
			<path class="st0" d="M14.1,12.7h-1.2V4.2c-0.4,0.4-1,0.9-1.6,1.3V4.3C12,3.8,12.6,3.3,13,2.8h1V12.7z"/>
			<path class="st0" d="M21.8,8.4c0,1.5-0.1,2.6-0.4,3.2c-0.4,0.8-1.1,1.2-2.1,1.2c-1,0-1.7-0.4-2.1-1.1c-0.3-0.6-0.4-1.7-0.4-3.3
				V6.2c0-2.4,0.8-3.6,2.5-3.6c1,0,1.7,0.4,2.1,1.1c0.2,0.5,0.4,1.4,0.4,2.6V8.4z M20.7,8.6V7.1c0-1.4-0.1-2.2-0.2-2.6
				c-0.2-0.7-0.5-1-1.1-1c-0.6,0-1,0.3-1.2,1C18,5,18,5.8,18,7.1v1.5c0,1.2,0.1,2.1,0.2,2.5c0.2,0.6,0.6,0.9,1.1,0.9
				c0.6,0,1-0.4,1.2-1.2C20.6,10.5,20.7,9.7,20.7,8.6z"/>
			<path class="st0" d="M28.1,8.4c0,1.5-0.1,2.6-0.4,3.2c-0.4,0.8-1.1,1.2-2.1,1.2c-1,0-1.7-0.4-2.1-1.1c-0.3-0.6-0.4-1.7-0.4-3.3
				V6.2c0-2.4,0.8-3.6,2.5-3.6c1,0,1.7,0.4,2.1,1.1C28,4.1,28.1,5,28.1,6.2V8.4z M27,8.6V7.1c0-1.4-0.1-2.2-0.2-2.6
				c-0.2-0.7-0.5-1-1.1-1c-0.6,0-1,0.3-1.2,1c-0.1,0.5-0.2,1.4-0.2,2.6v1.5c0,1.2,0.1,2.1,0.2,2.5c0.2,0.6,0.6,0.9,1.1,0.9
				c0.6,0,1-0.4,1.2-1.2C27,10.5,27,9.7,27,8.6z"/>
			<path class="st0" d="M32.8,5.1c0,1.8-0.6,2.7-1.8,2.7c-1.2,0-1.8-0.9-1.8-2.6c0-1.7,0.6-2.6,1.8-2.6c0.7,0,1.2,0.3,1.5,0.8
				C32.7,3.8,32.8,4.3,32.8,5.1z M31.9,5.1c0-0.5,0-0.9-0.1-1.1c-0.1-0.4-0.4-0.6-0.7-0.6c-0.6,0-0.9,0.6-0.9,1.9
				C30.2,6.4,30.4,7,31,7c0.4,0,0.7-0.2,0.8-0.7C31.9,6.1,31.9,5.7,31.9,5.1z M36.8,2.3l-5.2,10.8h-0.8L36,2.3H36.8z M38.3,10.2
				c0,1.8-0.6,2.7-1.8,2.7c-1.2,0-1.8-0.8-1.8-2.5c0-1.7,0.6-2.6,1.8-2.6c0.7,0,1.2,0.3,1.5,0.8C38.2,8.9,38.3,9.4,38.3,10.2z
				 M37.4,10.2c0-0.5,0-0.9-0.1-1.1c-0.1-0.4-0.4-0.6-0.7-0.6c-0.6,0-0.9,0.6-0.9,1.9c0,1.2,0.3,1.8,0.9,1.8c0.4,0,0.7-0.2,0.8-0.7
				C37.3,11.2,37.4,10.8,37.4,10.2z"/>
		</g>
	</g>
	<line class="st1" x1="45.7" y1="217.6" x2="393.1" y2="217.6"/>
	<g>
		<g>
			<path class="st0" d="M51.3,224.3c0,0.8-0.4,1.7-1.1,2.8l-2.7,4.2h3.8v0.9h-5v-1l3.3-5c0.4-0.6,0.6-1.2,0.6-1.9
				c0-0.9-0.4-1.3-1.2-1.3c-0.9,0-1.3,0.6-1.3,1.7h-1.1c0-0.1,0-0.3,0-0.5c0.1-1.4,1-2.1,2.5-2.1C50.5,222,51.3,222.8,51.3,224.3z"
				/>
			<path class="st0" d="M57.7,228.8c0,1.1-0.1,2-0.4,2.5c-0.4,0.7-1.1,1-2.1,1c-1.6,0-2.4-0.8-2.4-2.5h1.1c0,1.1,0.4,1.6,1.2,1.6
				c0.6,0,0.9-0.2,1.1-0.7c0.2-0.4,0.2-1,0.2-1.9c0-1.5-0.4-2.2-1.3-2.2c-0.3,0-0.6,0.1-0.8,0.3c-0.2,0.2-0.4,0.4-0.4,0.7h-1.1
				l0.2-5.4h4.4v0.9h-3.3l-0.2,3.4c0.4-0.5,1-0.7,1.6-0.7c0.8,0,1.4,0.3,1.8,0.9C57.6,227.2,57.7,227.9,57.7,228.8z"/>
		</g>
	</g>
	<g>
		<g>
			<path class="st0" d="M384.4,228.9c0,1-0.1,1.8-0.4,2.4c-0.4,0.7-1.1,1-2,1c-1,0-1.8-0.4-2.1-1.3c-0.3-0.6-0.4-1.6-0.4-2.9v-1.9
				c0-1.2,0.1-2.2,0.4-2.8c0.4-0.9,1.1-1.3,2.2-1.3c1.5,0,2.3,0.8,2.3,2.3h-1.1c0-0.9-0.4-1.4-1.2-1.4c-0.6,0-1,0.4-1.2,1
				c-0.1,0.5-0.2,1.2-0.2,2.2v0.6c0.4-0.6,1-1,1.8-1C383.7,225.9,384.4,226.9,384.4,228.9z M383.3,228.9c0-0.6-0.1-1.1-0.2-1.4
				c-0.2-0.5-0.6-0.7-1.1-0.7c-0.9,0-1.4,0.8-1.4,2.3s0.5,2.3,1.4,2.3c0.6,0,0.9-0.3,1.1-0.9C383.2,230.2,383.3,229.7,383.3,228.9z"
				/>
			<path class="st0" d="M390.7,228.8c0,1.1-0.1,2-0.4,2.5c-0.4,0.7-1.1,1-2.1,1c-1.6,0-2.4-0.8-2.4-2.5h1.1c0,1.1,0.4,1.6,1.2,1.6
				c0.6,0,0.9-0.2,1.1-0.7c0.2-0.4,0.2-1,0.2-1.9c0-1.5-0.4-2.2-1.3-2.2c-0.3,0-0.6,0.1-0.8,0.3c-0.2,0.2-0.4,0.4-0.4,0.7h-1.1
				l0.2-5.4h4.4v0.9h-3.3l-0.2,3.4c0.4-0.5,1-0.7,1.6-0.7c0.8,0,1.4,0.3,1.8,0.9C390.6,227.2,390.7,227.9,390.7,228.8z"/>
		</g>
	</g>
	<g>
		<g>
			<path class="st0" d="M28,213.4c0,1.5-0.1,2.6-0.4,3.2c-0.4,0.8-1.1,1.2-2.1,1.2c-1,0-1.7-0.4-2.1-1.1c-0.3-0.6-0.4-1.7-0.4-3.3
				v-2.2c0-2.4,0.8-3.6,2.5-3.6c1,0,1.7,0.4,2.1,1.1c0.2,0.5,0.4,1.4,0.4,2.6V213.4z M26.8,213.6V212c0-1.4-0.1-2.2-0.2-2.6
				c-0.2-0.7-0.5-1-1.1-1c-0.6,0-1,0.3-1.2,1c-0.1,0.5-0.2,1.4-0.2,2.6v1.5c0,1.2,0.1,2.1,0.2,2.5c0.2,0.6,0.6,0.9,1.1,0.9
				c0.6,0,1-0.4,1.2-1.2C26.8,215.4,26.8,214.7,26.8,213.6z"/>
			<path class="st0" d="M32.7,210c0,1.8-0.6,2.7-1.8,2.7c-1.2,0-1.8-0.9-1.8-2.6c0-1.7,0.6-2.6,1.8-2.6c0.7,0,1.2,0.3,1.5,0.8
				C32.6,208.7,32.7,209.2,32.7,210z M31.8,210c0-0.5,0-0.9-0.1-1.1c-0.1-0.4-0.4-0.6-0.7-0.6c-0.6,0-0.9,0.6-0.9,1.9
				c0,1.2,0.3,1.8,0.9,1.8c0.4,0,0.7-0.2,0.8-0.7C31.7,211,31.8,210.6,31.8,210z M36.7,207.3L31.4,218h-0.8l5.2-10.8H36.7z
				 M38.2,215.1c0,1.8-0.6,2.7-1.8,2.7c-1.2,0-1.8-0.8-1.8-2.5c0-1.7,0.6-2.6,1.8-2.6c0.7,0,1.2,0.3,1.5,0.8
				C38,213.8,38.2,214.4,38.2,215.1z M37.2,215.1c0-0.5,0-0.9-0.1-1.1c-0.1-0.4-0.4-0.6-0.7-0.6c-0.6,0-0.9,0.6-0.9,1.9
				c0,1.2,0.3,1.8,0.9,1.8c0.4,0,0.7-0.2,0.8-0.7C37.2,216.1,37.2,215.7,37.2,215.1z"/>
		</g>
	</g>
	<line class="st2" x1="57.4" y1="142.4" x2="48.8" y2="149.9"/>
	<line class="st2" x1="65.9" y1="136.4" x2="57.4" y2="142.4"/>
	<line class="st2" x1="74.5" y1="130.5" x2="65.9" y2="136.4"/>
	<line class="st2" x1="83.1" y1="127.1" x2="74.5" y2="130.5"/>
	<line class="st2" x1="91.6" y1="122.6" x2="83.1" y2="127.1"/>
	<line class="st2" x1="100.2" y1="119.9" x2="91.6" y2="122.6"/>
	<line class="st2" x1="108.8" y1="117.3" x2="100.2" y2="119.9"/>
	<line class="st2" x1="117.3" y1="115.2" x2="108.8" y2="117.3"/>
	<line class="st2" x1="125.9" y1="115" x2="117.3" y2="115.2"/>
	<line class="st2" x1="134.5" y1="113.2" x2="125.9" y2="115"/>
	<line class="st2" x1="143" y1="113" x2="134.5" y2="113.2"/>
	<line class="st2" x1="151.6" y1="113.3" x2="143" y2="113"/>
	<line class="st2" x1="160.2" y1="114" x2="151.6" y2="113.3"/>
	<line class="st2" x1="168.7" y1="114.6" x2="160.2" y2="114"/>
	<line class="st2" x1="177.3" y1="114.6" x2="168.7" y2="114.6"/>
	<line class="st2" x1="185.9" y1="115.6" x2="177.3" y2="114.6"/>
	<line class="st2" x1="194.4" y1="116.4" x2="185.9" y2="115.6"/>
	<line class="st2" x1="203" y1="117.7" x2="194.4" y2="116.4"/>
	<line class="st2" x1="211.6" y1="119.3" x2="203" y2="117.7"/>
	<line class="st2" x1="220.1" y1="119.4" x2="211.6" y2="119.3"/>
	<line class="st2" x1="228.7" y1="119.8" x2="220.1" y2="119.4"/>
	<line class="st2" x1="237.3" y1="121.8" x2="228.7" y2="119.8"/>
	<line class="st2" x1="245.8" y1="122.4" x2="237.3" y2="121.8"/>
	<line class="st2" x1="254.4" y1="125" x2="245.8" y2="122.4"/>
	<line class="st2" x1="263" y1="125.7" x2="254.4" y2="125"/>
	<line class="st2" x1="271.5" y1="127.7" x2="263" y2="125.7"/>
	<line class="st2" x1="280.1" y1="130.2" x2="271.5" y2="127.7"/>
	<line class="st2" x1="288.7" y1="131.3" x2="280.1" y2="130.2"/>
	<line class="st2" x1="297.2" y1="134.8" x2="288.7" y2="131.3"/>
	<line class="st2" x1="305.8" y1="135.6" x2="297.2" y2="134.8"/>
	<line class="st2" x1="314.4" y1="137.3" x2="305.8" y2="135.6"/>
	<line class="st2" x1="322.9" y1="138.9" x2="314.4" y2="137.3"/>
	<line class="st2" x1="331.5" y1="142.6" x2="322.9" y2="138.9"/>
	<line class="st2" x1="340.1" y1="145.1" x2="331.5" y2="142.6"/>
	<line class="st2" x1="348.6" y1="148.9" x2="340.1" y2="145.1"/>
	<line class="st2" x1="357.2" y1="153.1" x2="348.6" y2="148.9"/>
	<line class="st2" x1="365.8" y1="157.3" x2="357.2" y2="153.1"/>
	<line class="st2" x1="374.3" y1="160.1" x2="365.8" y2="157.3"/>
	<line class="st2" x1="382.9" y1="163.3" x2="374.3" y2="160.1"/>
	<line class="st2" x1="391.5" y1="170.4" x2="382.9" y2="163.3"/>
	<line class="st3" x1="57.4" y1="54.6" x2="48.8" y2="54.2"/>
	<line class="st3" x1="65.9" y1="55.9" x2="57.4" y2="54.6"/>
	<line class="st3" x1="74.5" y1="56.2" x2="65.9" y2="55.9"/>
	<line class="st3" x1="83.1" y1="57.3" x2="74.5" y2="56.2"/>
	<line class="st3" x1="91.6" y1="57.9" x2="83.1" y2="57.3"/>
	<line class="st3" x1="100.2" y1="58.8" x2="91.6" y2="57.9"/>
	<line class="st3" x1="108.8" y1="59.7" x2="100.2" y2="58.8"/>
	<line class="st3" x1="117.3" y1="60.8" x2="108.8" y2="59.7"/>
	<line class="st3" x1="125.9" y1="61.4" x2="117.3" y2="60.8"/>
	<line class="st3" x1="134.5" y1="63.3" x2="125.9" y2="61.4"/>
	<line class="st3" x1="143" y1="63.3" x2="134.5" y2="63.3"/>
	<line class="st3" x1="151.6" y1="64.3" x2="143" y2="63.3"/>
	<line class="st3" x1="160.2" y1="65.9" x2="151.6" y2="64.3"/>
	<line class="st3" x1="168.7" y1="66.4" x2="160.2" y2="65.9"/>
	<line class="st3" x1="177.3" y1="68" x2="168.7" y2="66.4"/>
	<line class="st3" x1="185.9" y1="69" x2="177.3" y2="68"/>
	<line class="st3" x1="194.4" y1="77.3" x2="185.9" y2="69"/>
	<line class="st3" x1="203" y1="77.8" x2="194.4" y2="77.3"/>
	<line class="st3" x1="211.6" y1="78.8" x2="203" y2="77.8"/>
	<line class="st3" x1="220.1" y1="79.7" x2="211.6" y2="78.8"/>
	<line class="st3" x1="228.7" y1="80.5" x2="220.1" y2="79.7"/>
	<line class="st3" x1="237.3" y1="87.3" x2="228.7" y2="80.5"/>
	<line class="st3" x1="245.8" y1="88.9" x2="237.3" y2="87.3"/>
	<line class="st3" x1="254.4" y1="88.8" x2="245.8" y2="88.9"/>
	<line class="st3" x1="263" y1="91.2" x2="254.4" y2="88.8"/>
	<line class="st3" x1="271.5" y1="92.4" x2="263" y2="91.2"/>
	<line class="st3" x1="280.1" y1="101.4" x2="271.5" y2="92.4"/>
	<line class="st3" x1="288.7" y1="103.7" x2="280.1" y2="101.4"/>
	<line class="st3" x1="297.2" y1="106.6" x2="288.7" y2="103.7"/>
	<line class="st3" x1="305.8" y1="109.6" x2="297.2" y2="106.6"/>
	<line class="st3" x1="314.4" y1="114" x2="305.8" y2="109.6"/>
	<line class="st3" x1="322.9" y1="123.1" x2="314.4" y2="114"/>
	<line class="st3" x1="331.5" y1="128" x2="322.9" y2="123.1"/>
	<line class="st3" x1="340.1" y1="132.3" x2="331.5" y2="128"/>
	<line class="st3" x1="348.6" y1="135.9" x2="340.1" y2="132.3"/>
	<line class="st3" x1="357.2" y1="140.1" x2="348.6" y2="135.9"/>
	<line class="st3" x1="365.8" y1="150.1" x2="357.2" y2="140.1"/>
	<line class="st3" x1="374.3" y1="154" x2="365.8" y2="150.1"/>
	<line class="st3" x1="382.9" y1="158.2" x2="374.3" y2="154"/>
	<line class="st3" x1="391.5" y1="159.9" x2="382.9" y2="158.2"/>
	<g>
		<g>
			<path class="st0" d="M10.2,126.2v4.8H0.1v-4.7h1v3.5h3.5v-3.3h0.9v3.3h3.8v-3.6H10.2z"/>
			<path class="st0" d="M3.2,120.1c0.3,0,0.9,0,1.6,0h8.1v1.1H9.5c0.5,0.4,0.8,0.9,0.8,1.6c0,0.9-0.4,1.5-1.2,1.8
				c-0.5,0.2-1.3,0.3-2.4,0.3c-1.1,0-1.9-0.1-2.5-0.3c-0.9-0.3-1.3-0.9-1.3-1.8c0-0.7,0.3-1.3,1-1.7H3.2V120.1z M6.8,121.2
				c-1,0-1.7,0.1-2.1,0.2c-0.6,0.2-0.9,0.6-0.9,1.2c0,0.9,0.9,1.3,2.7,1.3c0.9,0,1.6-0.1,2-0.2c0.7-0.2,1-0.5,1-1.1
				c0-0.6-0.3-1-0.9-1.2C8.2,121.3,7.6,121.2,6.8,121.2z"/>
			<path class="st0" d="M10.2,113.5v1.1l-0.9,0c0.7,0.4,1,1,1,1.8c0,1.3-0.7,1.9-2.2,1.9h-5v-1.1h4.5c0.6,0,1,0,1.2-0.1
				c0.4-0.2,0.6-0.5,0.6-1c0-0.9-0.7-1.4-2.1-1.4H3.2v-1.1h5.5C9.2,113.6,9.7,113.5,10.2,113.5z"/>
			<path class="st0" d="M1.4,110.5v1.2H0.2v-1.2H1.4z M10.2,110.6v1.1H3.2v-1.1H10.2z"/>
			<path class="st0" d="M10.2,106c0,0.3,0.1,0.6,0.1,0.8c0,0.6-0.1,1.1-0.4,1.3c-0.2,0.2-0.7,0.3-1.3,0.3H4v1H3.2v-1H1.8l-0.5-1.1
				h1.8V106H4v1.3h4.4c0.4,0,0.7-0.1,0.8-0.2c0.1-0.1,0.2-0.3,0.2-0.6c0-0.1,0-0.2-0.1-0.5H10.2z"/>
			<path class="st0" d="M3.2,100.3l9.7,2.8v1.1l-2.7-0.8l-7.1,2.1v-1.2l5.7-1.5l-5.7-1.4V100.3z"/>
			<path class="st0" d="M10.2,91.6v1.1l-0.9,0c0.7,0.5,1,1.1,1,1.9c0,0.6-0.2,1.1-0.6,1.4c-0.4,0.3-0.9,0.4-1.5,0.4
				c-1,0-1.7-0.4-2-1.1C6,94.8,5.9,94,5.9,92.8H5.6c-0.6,0-1,0-1.2,0.1c-0.4,0.1-0.6,0.5-0.6,1c0,0.3,0.1,0.6,0.3,0.8
				s0.4,0.3,0.8,0.3h0.1v1.1H4.9c-0.6,0-1.1-0.2-1.4-0.7C3.1,95.1,3,94.5,3,93.8c0-0.8,0.2-1.4,0.6-1.7c0.4-0.3,0.9-0.4,1.8-0.4H8
				C8.8,91.7,9.6,91.7,10.2,91.6z M7.5,92.8H6.6v0.3c0,1.5,0.5,2.2,1.5,2.2c0.9,0,1.4-0.3,1.4-1c0-0.5-0.2-0.9-0.7-1.2
				C8.5,92.9,8,92.8,7.5,92.8z"/>
			<path class="st0" d="M10.2,88.8v1.1H0.1v-1.1H10.2z"/>
			<path class="st0" d="M10.2,85.8v1.1H0.1v-1.1H10.2z"/>
			<path class="st0" d="M6.6,79.3c1.3,0,2.2,0.1,2.7,0.4c0.7,0.4,1,1,1,2c0,1-0.3,1.7-1,2C8.9,84,8,84.2,6.7,84.2
				c-1.2,0-2.1-0.1-2.6-0.4C3.4,83.4,3,82.7,3,81.7c0-1,0.3-1.7,1-2C4.5,79.4,5.4,79.3,6.6,79.3z M7.4,80.4H6.3
				c-0.8,0-1.4,0-1.7,0.1c-0.6,0.2-0.9,0.6-0.9,1.1c0,0.6,0.3,1,0.9,1.2C5,83,5.6,83,6.3,83h1C8,83,8.5,83,8.8,82.9
				c0.5-0.2,0.7-0.6,0.7-1.1c0-0.6-0.2-0.9-0.7-1.1C8.5,80.5,8,80.4,7.4,80.4z"/>
			<path class="st0" d="M8,73.3c1.6,0,2.3,0.7,2.3,2.2c0,1-0.3,1.7-1,2c-0.5,0.3-1.4,0.4-2.6,0.4s-2.1-0.1-2.6-0.3
				C3.4,77.2,3,76.5,3,75.5c0-0.8,0.2-1.4,0.6-1.7c0.4-0.3,0.9-0.5,1.7-0.5v1.1c-1,0-1.5,0.4-1.5,1.1c0,0.6,0.3,1,0.9,1.1
				c0.4,0.1,1,0.2,1.9,0.2c1.1,0,1.8-0.1,2.2-0.2c0.4-0.2,0.7-0.5,0.7-1c0-0.4-0.2-0.7-0.5-0.9c-0.2-0.1-0.6-0.2-1.1-0.2V73.3z"/>
			<path class="st0" d="M10.2,67.6v1.1l-0.9,0c0.7,0.5,1,1.1,1,1.9c0,0.6-0.2,1.1-0.6,1.4c-0.4,0.3-0.9,0.4-1.5,0.4
				c-1,0-1.7-0.4-2-1.1c-0.2-0.5-0.4-1.3-0.4-2.5H5.6c-0.6,0-1,0-1.2,0.1c-0.4,0.1-0.6,0.5-0.6,1c0,0.3,0.1,0.6,0.3,0.8
				S4.5,71,4.9,71h0.1v1.1H4.9c-0.6,0-1.1-0.2-1.4-0.7C3.1,71,3,70.5,3,69.8c0-0.8,0.2-1.4,0.6-1.7c0.4-0.3,0.9-0.4,1.8-0.4H8
				C8.8,67.7,9.6,67.7,10.2,67.6z M7.5,68.8H6.6v0.3c0,1.5,0.5,2.2,1.5,2.2c0.9,0,1.4-0.3,1.4-1c0-0.5-0.2-0.9-0.7-1.2
				C8.5,68.9,8,68.8,7.5,68.8z"/>
			<path class="st0" d="M10.2,63.1c0,0.3,0.1,0.6,0.1,0.8c0,0.6-0.1,1.1-0.4,1.3c-0.2,0.2-0.7,0.3-1.3,0.3H4v1H3.2v-1H1.8l-0.5-1.1
				h1.8v-1.3H4v1.3h4.4c0.4,0,0.7-0.1,0.8-0.2s0.2-0.3,0.2-0.6c0-0.1,0-0.2-0.1-0.5H10.2z"/>
			<path class="st0" d="M1.4,60.8V62H0.2v-1.2H1.4z M10.2,60.8v1.1H3.2v-1.1H10.2z"/>
			<path class="st0" d="M6.6,54.3c1.3,0,2.2,0.1,2.7,0.4c0.7,0.4,1,1,1,2c0,1-0.3,1.7-1,2c-0.5,0.3-1.4,0.4-2.6,0.4
				c-1.2,0-2.1-0.1-2.6-0.4C3.4,58.4,3,57.7,3,56.7c0-1,0.3-1.7,1-2C4.5,54.4,5.4,54.3,6.6,54.3z M7.4,55.5H6.3
				c-0.8,0-1.4,0-1.7,0.1c-0.6,0.2-0.9,0.6-0.9,1.1c0,0.6,0.3,1,0.9,1.2C5,58,5.6,58.1,6.3,58.1h1c0.7,0,1.2-0.1,1.5-0.2
				c0.5-0.2,0.7-0.6,0.7-1.1c0-0.5-0.2-0.9-0.7-1.1C8.5,55.5,8,55.5,7.4,55.5z"/>
			<path class="st0" d="M10.2,48v1.1H5.7c-0.6,0-1,0-1.2,0.1c-0.4,0.2-0.6,0.5-0.6,1c0,0.5,0.2,0.8,0.7,1.1c0.4,0.2,0.9,0.3,1.4,0.3
				h4.2v1.1H4.7c-0.6,0-1.1,0-1.5,0.1v-1.1h1c-0.7-0.4-1.1-1-1.1-1.8C3,48.6,3.7,48,5.2,48H10.2z"/>
		</g>
	</g>
	<g>
		<g>
			<path class="st0" d="M134.9,229.4c0,1.9-0.8,2.9-2.5,2.9c-0.9,0-1.5-0.2-1.9-0.6c-0.4-0.4-0.6-1.1-0.6-2h1.1
				c0,1.1,0.4,1.7,1.3,1.7c0.9,0,1.4-0.6,1.4-1.9c0-0.8-0.1-1.3-0.4-1.6c-0.3-0.3-0.8-0.4-1.6-0.4v-0.9c0.7,0,1.2-0.1,1.5-0.4
				s0.4-0.8,0.4-1.5c0-1.1-0.4-1.7-1.2-1.7c-0.9,0-1.3,0.5-1.3,1.6H130c0-1.7,0.8-2.5,2.4-2.5c1.6,0,2.4,0.8,2.4,2.5
				c0,1.4-0.5,2.2-1.5,2.5C134.4,227.1,134.9,227.9,134.9,229.4z"/>
			<path class="st0" d="M141.3,228.8c0,1.1-0.1,2-0.4,2.5c-0.4,0.7-1.1,1-2.1,1c-1.6,0-2.4-0.8-2.4-2.5h1.1c0,1.1,0.4,1.6,1.2,1.6
				c0.6,0,0.9-0.2,1.1-0.7c0.2-0.4,0.2-1,0.2-1.9c0-1.5-0.4-2.2-1.3-2.2c-0.3,0-0.6,0.1-0.8,0.3c-0.2,0.2-0.4,0.4-0.4,0.7h-1.1
				l0.2-5.4h4.4v0.9h-3.3l-0.2,3.4c0.4-0.5,1-0.7,1.6-0.7c0.8,0,1.4,0.3,1.8,0.9C141.2,227.2,141.3,227.9,141.3,228.8z"/>
		</g>
	</g>
	<g>
		<g>
			<path class="st0" d="M302.2,228.8c0,1.1-0.1,2-0.4,2.5c-0.4,0.7-1.1,1-2.1,1c-1.6,0-2.4-0.8-2.4-2.5h1.1c0,1.1,0.4,1.6,1.2,1.6
				c0.6,0,0.9-0.2,1.1-0.7c0.2-0.4,0.2-1,0.2-1.9c0-1.5-0.4-2.2-1.3-2.2c-0.3,0-0.6,0.1-0.8,0.3c-0.2,0.2-0.4,0.4-0.4,0.7h-1.1
				l0.2-5.4h4.4v0.9h-3.3l-0.2,3.4c0.4-0.5,1-0.7,1.6-0.7c0.8,0,1.4,0.3,1.8,0.9C302.1,227.2,302.2,227.9,302.2,228.8z"/>
			<path class="st0" d="M308.6,228.8c0,1.1-0.1,2-0.4,2.5c-0.4,0.7-1.1,1-2.1,1c-1.6,0-2.4-0.8-2.4-2.5h1.1c0,1.1,0.4,1.6,1.2,1.6
				c0.6,0,0.9-0.2,1.1-0.7c0.2-0.4,0.2-1,0.2-1.9c0-1.5-0.4-2.2-1.3-2.2c-0.3,0-0.6,0.1-0.8,0.3c-0.2,0.2-0.4,0.4-0.4,0.7h-1.1
				l0.2-5.4h4.4v0.9H305l-0.2,3.4c0.4-0.5,1-0.7,1.6-0.7c0.8,0,1.4,0.3,1.8,0.9C308.4,227.2,308.6,227.9,308.6,228.8z"/>
		</g>
	</g>
	<line class="st4" x1="176.3" y1="217" x2="176.3" y2="10.2"/>
	<g>
		<g>
			<path class="st0" d="M192.1,15.9l-0.9-3.5h-4.7l-0.9,3.5h-2.2l4.1-14.5h2.8l4.1,14.5H192.1z M188.9,3.3l-1.8,7.4h3.7L188.9,3.3z"
				/>
			<path class="st0" d="M202.4,5.5V5.3c0-1.6-0.7-2.5-2-2.5c-1.1,0-1.8,0.5-2.1,1.6c-0.2,0.7-0.3,2.1-0.3,3.9c0,2.3,0.1,3.8,0.4,4.6
				c0.3,1,1.1,1.5,2.2,1.5c0.7,0,1.4-0.1,2-0.4V9.9h-2.2V8.2h4.3v7.2c-1.4,0.4-2.8,0.6-4.1,0.6c-2.1,0-3.5-0.7-4.2-2.1
				c-0.4-0.9-0.7-2.7-0.7-5.4c0-2.6,0.2-4.3,0.7-5.3c0.7-1.5,2-2.2,4.1-2.2c2.9,0,4.3,1.4,4.3,4.2v0.2H202.4z"/>
			<path class="st0" d="M207.1,15.9V1.4h7.2v1.7h-4.9v4.4h4.6v1.7h-4.6v4.9h5.1v1.7H207.1z"/>
			<path class="st0" d="M227.1,12.5v3.4h-2v-3.4h-4.5v-1.9l3.7-8.9h2.9v9.2h1.5v1.6H227.1z M225.1,3.4l-2.9,7.5h2.9V3.4z"/>
			<path class="st0" d="M237.6,10c0,2.1-0.2,3.5-0.5,4.4c-0.5,1.2-1.6,1.8-3.2,1.8c-1.6,0-2.6-0.6-3.2-1.7c-0.4-0.8-0.6-2.3-0.6-4.4
				V6.6c0-1.6,0.2-2.8,0.7-3.6c0.6-1,1.6-1.6,3.1-1.6c1.5,0,2.5,0.5,3.1,1.4c0.4,0.7,0.6,1.9,0.6,3.6V10z M235.5,7.8
				c0-1.8-0.1-3-0.2-3.5c-0.2-0.9-0.7-1.4-1.4-1.4c-0.7,0-1.2,0.5-1.4,1.4c-0.2,0.6-0.2,1.8-0.2,3.5v2.1c0,1.6,0.1,2.8,0.2,3.4
				c0.2,0.9,0.7,1.3,1.4,1.3c0.8,0,1.2-0.5,1.5-1.5c0.1-0.5,0.2-1.5,0.2-3.1V7.8z"/>
		</g>
	</g>
	<g>
		<g>
			<path class="st0" d="M189.3,37.5h-2.3v9.2h-1.2v-9.2h-2.3v-1h5.9V37.5z"/>
			<path class="st0" d="M194.7,46.6h-1.1l0-0.9c-0.5,0.7-1.1,1-1.9,1c-0.6,0-1.1-0.2-1.4-0.6c-0.3-0.4-0.4-0.9-0.4-1.5
				c0-1,0.4-1.7,1.1-2c0.5-0.2,1.3-0.4,2.5-0.4V42c0-0.6,0-1-0.1-1.2c-0.1-0.4-0.5-0.6-1-0.6c-0.3,0-0.6,0.1-0.8,0.3
				c-0.2,0.2-0.3,0.4-0.3,0.8v0.1h-1.1v-0.1c0-0.6,0.2-1.1,0.7-1.4c0.4-0.3,0.9-0.4,1.6-0.4c0.8,0,1.4,0.2,1.7,0.6
				c0.3,0.4,0.4,0.9,0.4,1.8v2.6C194.6,45.2,194.6,46,194.7,46.6z M193.5,43.9V43h-0.3c-1.5,0-2.2,0.5-2.2,1.5c0,0.9,0.3,1.4,1,1.4
				c0.5,0,0.9-0.2,1.2-0.7C193.4,44.9,193.5,44.4,193.5,43.9z"/>
			<path class="st0" d="M199.4,40.5c-0.1,0-0.2,0-0.2,0c-0.5,0-0.9,0.2-1.2,0.5s-0.4,0.8-0.4,1.3v4.4h-1.1v-5.8c0-0.5,0-0.9,0-1.3
				h1.1v0.9c0.4-0.7,1-1.1,1.8-1.1C199.3,39.4,199.4,39.8,199.4,40.5z"/>
			<path class="st0" d="M205.2,39.6c0,0.1,0,0.3,0,0.6s0,0.5,0,0.6v6.2c0,0.9-0.2,1.5-0.6,1.9c-0.4,0.4-1,0.6-1.9,0.6
				c-1.5,0-2.2-0.7-2.2-2h1.2c0,0.9,0.4,1.3,1.1,1.3c0.6,0,0.9-0.2,1.1-0.6c0.1-0.3,0.2-0.7,0.2-1.3v-1c-0.4,0.6-0.9,0.8-1.6,0.8
				c-0.9,0-1.5-0.4-1.8-1.1c-0.2-0.5-0.3-1.2-0.3-2.3c0-1.1,0.1-2,0.3-2.5c0.3-0.8,0.9-1.2,1.8-1.2c0.8,0,1.3,0.3,1.7,1v-0.8H205.2z
				 M204,42.9c0-0.8-0.1-1.4-0.2-1.8c-0.2-0.6-0.6-0.9-1.1-0.9c-0.6,0-1,0.3-1.1,1c-0.1,0.4-0.2,1-0.2,1.9c0,0.8,0.1,1.4,0.2,1.7
				c0.2,0.6,0.5,0.9,1.1,0.9c0.6,0,1.1-0.4,1.3-1C204,44.3,204,43.7,204,42.9z"/>
			<path class="st0" d="M211.5,43.2h-3.7v0.5c0,0.7,0.1,1.2,0.2,1.6c0.2,0.5,0.6,0.7,1.1,0.7c0.8,0,1.2-0.5,1.3-1.6h1.1
				c-0.1,1.6-0.9,2.4-2.4,2.4c-1,0-1.7-0.3-2-1c-0.3-0.5-0.4-1.3-0.4-2.4c0-1.3,0.1-2.1,0.3-2.7c0.4-0.8,1.1-1.3,2.2-1.3
				c1,0,1.7,0.4,2,1.1c0.2,0.5,0.3,1.3,0.3,2.4V43.2z M210.4,42.5c0-0.7,0-1.2-0.1-1.4c-0.2-0.6-0.5-0.8-1.1-0.8
				c-0.8,0-1.2,0.5-1.3,1.4c0,0.3-0.1,0.6-0.1,0.9H210.4z"/>
			<path class="st0" d="M215.8,46.6c-0.3,0-0.6,0.1-0.8,0.1c-0.6,0-1.1-0.1-1.3-0.4c-0.2-0.2-0.3-0.7-0.3-1.3v-4.6h-1.1v-0.8h1.1
				v-1.3l1.1-0.5v1.8h1.3v0.8h-1.3v4.4c0,0.4,0.1,0.7,0.2,0.8c0.1,0.1,0.3,0.2,0.6,0.2c0.1,0,0.2,0,0.5-0.1V46.6z"/>
			<path class="st0" d="M219.5,43.3h-2.9v-1h2.9V43.3z"/>
			<path class="st0" d="M225.6,46.6h-1.1l0-0.8c-0.4,0.6-1,0.9-1.7,0.9c-0.9,0-1.5-0.4-1.9-1.2c-0.2-0.5-0.3-1.4-0.3-2.5
				c0-1.1,0.1-1.9,0.4-2.4c0.3-0.8,0.9-1.1,1.8-1.1c0.7,0,1.2,0.3,1.6,0.8v-3.7h1.1v8.8C225.6,45.5,225.6,46,225.6,46.6z
				 M224.5,43.1c0-1-0.1-1.6-0.2-2.1c-0.2-0.6-0.6-0.9-1.1-0.9c-0.6,0-0.9,0.3-1.1,0.9c-0.1,0.4-0.2,1-0.2,1.9c0,0.9,0.1,1.6,0.2,2
				c0.2,0.6,0.5,0.9,1.1,0.9c0.6,0,1-0.3,1.2-0.9C224.4,44.6,224.5,44,224.5,43.1z"/>
			<path class="st0" d="M231.8,46.6h-1.1l0-0.9c-0.5,0.7-1.1,1-1.9,1c-0.6,0-1.1-0.2-1.4-0.6c-0.3-0.4-0.4-0.9-0.4-1.5
				c0-1,0.4-1.7,1.1-2c0.5-0.2,1.3-0.4,2.5-0.4V42c0-0.6,0-1-0.1-1.2c-0.1-0.4-0.5-0.6-1-0.6c-0.3,0-0.6,0.1-0.8,0.3
				c-0.2,0.2-0.3,0.4-0.3,0.8v0.1h-1.1v-0.1c0-0.6,0.2-1.1,0.7-1.4c0.4-0.3,0.9-0.4,1.6-0.4c0.8,0,1.4,0.2,1.7,0.6
				c0.3,0.4,0.4,0.9,0.4,1.8v2.6C231.8,45.2,231.8,46,231.8,46.6z M230.7,43.9V43h-0.3c-1.5,0-2.2,0.5-2.2,1.5c0,0.9,0.3,1.4,1,1.4
				c0.5,0,0.9-0.2,1.2-0.7C230.6,44.9,230.7,44.4,230.7,43.9z"/>
			<path class="st0" d="M236.3,46.6c-0.3,0-0.6,0.1-0.8,0.1c-0.6,0-1.1-0.1-1.3-0.4c-0.2-0.2-0.3-0.7-0.3-1.3v-4.6h-1.1v-0.8h1.1
				v-1.3l1.1-0.5v1.8h1.3v0.8H235v4.4c0,0.4,0.1,0.7,0.2,0.8c0.1,0.1,0.3,0.2,0.6,0.2c0.1,0,0.2,0,0.5-0.1V46.6z"/>
			<path class="st0" d="M242.1,43.2h-3.7v0.5c0,0.7,0.1,1.2,0.2,1.6c0.2,0.5,0.6,0.7,1.1,0.7c0.8,0,1.2-0.5,1.3-1.6h1.1
				c-0.1,1.6-0.9,2.4-2.4,2.4c-1,0-1.7-0.3-2-1c-0.3-0.5-0.4-1.3-0.4-2.4c0-1.3,0.1-2.1,0.3-2.7c0.4-0.8,1.1-1.3,2.2-1.3
				c1,0,1.7,0.4,2,1.1c0.2,0.5,0.3,1.3,0.3,2.4V43.2z M240.9,42.5c0-0.7,0-1.2-0.1-1.4c-0.2-0.6-0.5-0.8-1.1-0.8
				c-0.8,0-1.2,0.5-1.3,1.4c0,0.3-0.1,0.6-0.1,0.9H240.9z"/>
			<path class="st0" d="M249.5,37.3c-0.1,0-0.2,0-0.4,0c-0.3,0-0.6,0.1-0.7,0.4c-0.1,0.2-0.1,0.5-0.1,0.9v1h1.2v0.8h-1.2v6.2h-1.1
				v-6.2h-1v-0.8h1v-0.8c0-0.8,0.1-1.3,0.3-1.6c0.3-0.5,0.8-0.7,1.5-0.7c0.2,0,0.4,0,0.6,0V37.3z"/>
			<path class="st0" d="M255.5,46.6h-1.1l0-0.9c-0.4,0.7-1,1-1.8,1c-1.3,0-1.9-0.7-1.9-2.2v-5h1.1v4.5c0,0.6,0,1,0.1,1.2
				c0.2,0.4,0.5,0.6,1,0.6c0.9,0,1.4-0.7,1.4-2.1v-4.3h1.1v5.5C255.4,45.6,255.4,46.1,255.5,46.6z"/>
			<path class="st0" d="M262,46.6h-1.1v-4.5c0-0.6,0-1-0.1-1.2c-0.2-0.4-0.5-0.6-1-0.6c-0.5,0-0.8,0.2-1.1,0.7
				c-0.2,0.4-0.3,0.9-0.3,1.4v4.2h-1.1v-5.5c0-0.6,0-1.1-0.1-1.5h1.1v1c0.4-0.7,1-1.1,1.8-1.1c1.2,0,1.9,0.7,1.9,2.2V46.6z"/>
			<path class="st0" d="M268.5,46.6h-1.1l0-0.8c-0.4,0.6-1,0.9-1.7,0.9c-0.9,0-1.5-0.4-1.9-1.2c-0.2-0.5-0.3-1.4-0.3-2.5
				c0-1.1,0.1-1.9,0.4-2.4c0.3-0.8,0.9-1.1,1.8-1.1c0.7,0,1.2,0.3,1.6,0.8v-3.7h1.1v8.8C268.5,45.5,268.5,46,268.5,46.6z
				 M267.4,43.1c0-1-0.1-1.6-0.2-2.1c-0.2-0.6-0.6-0.9-1.1-0.9c-0.6,0-0.9,0.3-1.1,0.9c-0.1,0.4-0.2,1-0.2,1.9c0,0.9,0.1,1.6,0.2,2
				c0.2,0.6,0.5,0.9,1.1,0.9c0.6,0,1-0.3,1.2-0.9C267.3,44.6,267.4,44,267.4,43.1z"/>
			<path class="st0" d="M274.3,44.7c0,1.4-0.7,2.1-2.2,2.1c-1.4,0-2.2-0.8-2.1-2.3h1.1c0,0.1,0,0.3,0,0.4c0.1,0.7,0.4,1.1,1,1.1
				c0.7,0,1.1-0.4,1.1-1.1c0-0.4-0.1-0.7-0.3-0.9c-0.1-0.1-0.5-0.4-0.9-0.6c-0.7-0.4-1.1-0.6-1.3-0.8c-0.4-0.3-0.5-0.8-0.5-1.3
				c0-0.6,0.2-1.1,0.6-1.4c0.4-0.3,0.9-0.4,1.5-0.4c0.7,0,1.2,0.2,1.6,0.5c0.3,0.3,0.5,0.9,0.5,1.6h-1.1c0-0.9-0.3-1.3-1-1.3
				c-0.3,0-0.5,0.1-0.7,0.3s-0.3,0.4-0.3,0.7c0,0.3,0.1,0.6,0.4,0.8c0.1,0.1,0.5,0.3,1,0.6c0.6,0.3,1,0.6,1.2,0.8
				C274.1,43.7,274.3,44.1,274.3,44.7z"/>
		</g>
	</g>
	<g>
		<g>
			<path class="st5" d="M290,95v-1.8l4.9-6.9c0.6-0.8,0.8-1.6,0.8-2.5c0-1.1-0.5-1.7-1.6-1.7c-1.2,0-1.7,0.8-1.7,2.3h-2.2
				c0-0.1,0-0.2,0-0.4c0-0.1,0-0.3,0-0.4c0.2-2.1,1.5-3.1,4-3.1c2.6,0,3.9,1.1,3.9,3.3c0,1.2-0.6,2.7-1.9,4.4l-3.8,5.1h5.7V95H290z"
				/>
			<path class="st5" d="M308.2,89.1c0,2.1-0.2,3.5-0.6,4.4c-0.6,1.2-1.7,1.8-3.4,1.8c-1.7,0-2.8-0.6-3.4-1.7
				c-0.4-0.8-0.6-2.3-0.6-4.4v-3.4c0-1.6,0.2-2.8,0.7-3.6c0.6-1,1.8-1.6,3.3-1.6c1.6,0,2.7,0.5,3.3,1.4c0.4,0.7,0.6,1.9,0.6,3.6
				V89.1z M305.9,87c0-1.8-0.1-3-0.2-3.5c-0.2-0.9-0.7-1.4-1.5-1.4c-0.8,0-1.3,0.5-1.5,1.4c-0.2,0.6-0.3,1.8-0.3,3.5v2.1
				c0,1.6,0.1,2.8,0.2,3.4c0.2,0.9,0.7,1.3,1.5,1.3c0.8,0,1.3-0.5,1.6-1.5c0.1-0.5,0.2-1.5,0.2-3.1V87z"/>
			<path class="st5" d="M313.8,95V83.3c-0.6,0.5-1.4,1.1-2.5,1.7v-2.1c1.1-0.6,2-1.3,2.8-2.1h2.1V95H313.8z"/>
			<path class="st5" d="M328.2,88.7c0,2.3-0.2,3.9-0.6,4.7c-0.6,1.2-1.7,1.8-3.5,1.8c-2.4,0-3.6-1.1-3.7-3.4h2.3
				c0,1.2,0.5,1.9,1.5,1.9c0.8,0,1.3-0.5,1.5-1.6c0.1-0.6,0.2-1.8,0.2-3.7c-0.7,0.8-1.5,1.2-2.5,1.2c-1.2,0-2.1-0.4-2.6-1.3
				c-0.4-0.7-0.6-1.8-0.6-3.2c0-3.1,1.4-4.7,4.1-4.7c1.6,0,2.7,0.5,3.3,1.6c0.5,0.8,0.7,2.2,0.7,4.2V88.7z M325.9,85.1
				c0-1-0.1-1.7-0.3-2.2c-0.3-0.6-0.7-0.9-1.4-0.9c-0.7,0-1.2,0.3-1.5,1c-0.2,0.4-0.3,1.2-0.3,2.1c0,0.9,0.1,1.6,0.2,1.9
				c0.2,0.7,0.7,1.1,1.5,1.1c0.7,0,1.3-0.4,1.5-1.1C325.9,86.6,325.9,86,325.9,85.1z"/>
		</g>
	</g>
	<g>
		<g>
			<path class="st6" d="M96.8,108.6v-1.8l4.9-6.9c0.6-0.8,0.8-1.6,0.8-2.5c0-1.1-0.5-1.7-1.6-1.7c-1.2,0-1.7,0.8-1.7,2.3H97
				c0-0.1,0-0.2,0-0.4c0-0.1,0-0.3,0-0.4c0.2-2.1,1.5-3.1,4-3.1c2.6,0,3.9,1.1,3.9,3.3c0,1.2-0.6,2.7-1.9,4.4l-3.8,5.1h5.7v1.6H96.8
				z"/>
			<path class="st6" d="M115,102.7c0,2.1-0.2,3.5-0.6,4.4c-0.6,1.2-1.7,1.8-3.4,1.8c-1.7,0-2.8-0.6-3.4-1.7
				c-0.4-0.8-0.6-2.3-0.6-4.4v-3.4c0-1.6,0.2-2.8,0.7-3.6c0.6-1,1.8-1.6,3.3-1.6c1.6,0,2.7,0.5,3.3,1.4c0.4,0.7,0.6,1.9,0.6,3.6
				V102.7z M112.7,100.6c0-1.8-0.1-3-0.2-3.5c-0.2-0.9-0.7-1.4-1.5-1.4c-0.8,0-1.3,0.5-1.5,1.4c-0.2,0.6-0.3,1.8-0.3,3.5v2.1
				c0,1.6,0.1,2.8,0.2,3.4c0.2,0.9,0.7,1.3,1.5,1.3c0.8,0,1.3-0.5,1.6-1.5c0.1-0.5,0.2-1.5,0.2-3.1V100.6z"/>
			<path class="st6" d="M125,102.7c0,2.1-0.2,3.5-0.6,4.4c-0.6,1.2-1.7,1.8-3.4,1.8c-1.7,0-2.8-0.6-3.4-1.7
				c-0.4-0.8-0.6-2.3-0.6-4.4v-3.4c0-1.6,0.2-2.8,0.7-3.6c0.6-1,1.8-1.6,3.3-1.6c1.6,0,2.7,0.5,3.3,1.4c0.4,0.7,0.6,1.9,0.6,3.6
				V102.7z M122.7,100.6c0-1.8-0.1-3-0.2-3.5c-0.2-0.9-0.7-1.4-1.5-1.4c-0.8,0-1.3,0.5-1.5,1.4c-0.2,0.6-0.3,1.8-0.3,3.5v2.1
				c0,1.6,0.1,2.8,0.2,3.4c0.2,0.9,0.7,1.3,1.5,1.3c0.8,0,1.3-0.5,1.6-1.5c0.1-0.5,0.2-1.5,0.2-3.1V100.6z"/>
			<path class="st6" d="M133.8,105.2v3.4h-2.2v-3.4h-4.9v-1.9l4-8.9h3.1v9.2h1.6v1.6H133.8z M131.7,96.2l-3.1,7.5h3.1V96.2z"/>
		</g>
	</g>
	<g>
		<g>
			<path class="st0" d="M218.9,229.7h-1.1v2.4h-1.1v-2.4h-3.3v-1.1l2.8-6.4h1.6v6.7h1.1V229.7z M216.7,228.8v-5.6l-2.4,5.6H216.7z"
				/>
			<path class="st0" d="M224.9,228.8c0,1.1-0.1,2-0.4,2.5c-0.4,0.7-1.1,1-2.1,1c-1.6,0-2.4-0.8-2.4-2.5h1.1c0,1.1,0.4,1.6,1.2,1.6
				c0.6,0,0.9-0.2,1.1-0.7c0.2-0.4,0.2-1,0.2-1.9c0-1.5-0.4-2.2-1.3-2.2c-0.3,0-0.6,0.1-0.8,0.3c-0.2,0.2-0.4,0.4-0.4,0.7h-1.1
				l0.2-5.4h4.4v0.9h-3.3l-0.2,3.4c0.4-0.5,1-0.7,1.6-0.7c0.8,0,1.4,0.3,1.8,0.9C224.8,227.2,224.9,227.9,224.9,228.8z"/>
		</g>
	</g>
	<g>
		<g>
			<path class="st0" d="M186.2,240.4c0,1.2-0.3,2-0.9,2.4c-0.4,0.3-1.2,0.5-2.3,0.5h-0.8v4.6h-1.2v-10.1h2.3c1,0,1.7,0.2,2.2,0.6
				C185.9,238.7,186.2,239.4,186.2,240.4z M185,240.5c0-0.7-0.1-1.1-0.4-1.4s-0.8-0.4-1.4-0.4h-1v3.7h0.9c0.7,0,1.2-0.1,1.5-0.4
				C184.8,241.7,185,241.2,185,240.5z"/>
			<path class="st0" d="M191.9,247.9h-1.1l0-0.9c-0.5,0.7-1.1,1-1.9,1c-0.6,0-1.1-0.2-1.4-0.6c-0.3-0.4-0.4-0.9-0.4-1.5
				c0-1,0.4-1.7,1.1-2c0.5-0.2,1.3-0.4,2.5-0.4v-0.3c0-0.6,0-1-0.1-1.2c-0.1-0.4-0.5-0.6-1-0.6c-0.3,0-0.6,0.1-0.8,0.3
				s-0.3,0.4-0.3,0.8v0.1h-1.1v-0.1c0-0.6,0.2-1.1,0.7-1.4c0.4-0.3,0.9-0.4,1.6-0.4c0.8,0,1.4,0.2,1.7,0.6c0.3,0.4,0.4,0.9,0.4,1.8
				v2.6C191.9,246.5,191.9,247.2,191.9,247.9z M190.8,245.1v-0.8h-0.3c-1.5,0-2.2,0.5-2.2,1.5c0,0.9,0.3,1.4,1,1.4
				c0.5,0,0.9-0.2,1.2-0.7C190.7,246.1,190.8,245.7,190.8,245.1z"/>
			<path class="st0" d="M196.6,241.7c-0.1,0-0.2,0-0.2,0c-0.5,0-0.9,0.2-1.2,0.5c-0.3,0.3-0.4,0.8-0.4,1.3v4.4h-1.1v-5.8
				c0-0.5,0-0.9,0-1.3h1.1v0.9c0.4-0.7,1-1.1,1.8-1.1C196.6,240.7,196.6,241,196.6,241.7z"/>
			<path class="st0" d="M200.5,247.9c-0.3,0-0.6,0.1-0.8,0.1c-0.6,0-1.1-0.1-1.3-0.4c-0.2-0.2-0.3-0.7-0.3-1.3v-4.6h-1v-0.8h1v-1.3
				l1.1-0.5v1.8h1.3v0.8h-1.3v4.4c0,0.4,0.1,0.7,0.2,0.8s0.3,0.2,0.6,0.2c0.1,0,0.2,0,0.5-0.1V247.9z"/>
			<path class="st0" d="M202.8,239.1h-1.2v-1.2h1.2V239.1z M202.8,247.9h-1.1v-7.1h1.1V247.9z"/>
			<path class="st0" d="M209,245.7c0,1.6-0.7,2.3-2.2,2.3c-1,0-1.7-0.3-2-1c-0.3-0.5-0.4-1.4-0.4-2.6s0.1-2.1,0.3-2.6
				c0.4-0.8,1.1-1.2,2.1-1.2c0.8,0,1.4,0.2,1.7,0.6c0.3,0.4,0.5,0.9,0.5,1.7h-1.1c0-1-0.4-1.5-1.1-1.5c-0.6,0-1,0.3-1.1,0.9
				c-0.1,0.4-0.2,1-0.2,1.9c0,1.1,0.1,1.8,0.2,2.2c0.2,0.4,0.5,0.7,1,0.7c0.4,0,0.7-0.2,0.9-0.5c0.1-0.2,0.2-0.6,0.2-1.1H209z"/>
			<path class="st0" d="M211.5,239.1h-1.2v-1.2h1.2V239.1z M211.4,247.9h-1.1v-7.1h1.1V247.9z"/>
			<path class="st0" d="M218.2,244.2c0,1.2-0.1,2-0.3,2.5c-0.3,0.8-0.9,1.2-1.8,1.2c-0.7,0-1.2-0.3-1.6-0.8v3.4h-1.1v-8.1
				c0-0.8,0-1.3-0.1-1.6h1.1v0.8c0.4-0.7,1-1,1.8-1c0.9,0,1.5,0.4,1.8,1.1C218.1,242.3,218.2,243.1,218.2,244.2z M217.1,244.2
				c0-0.8-0.1-1.4-0.2-1.8c-0.2-0.6-0.6-0.9-1.1-0.9c-0.5,0-0.9,0.3-1.1,0.9c-0.2,0.4-0.2,1.1-0.2,2c0,0.9,0.1,1.5,0.2,1.8
				c0.2,0.6,0.6,0.9,1.2,0.9c0.6,0,0.9-0.4,1.1-1.1C217,245.7,217.1,245.1,217.1,244.2z"/>
			<path class="st0" d="M224.2,247.9h-1.1l0-0.9c-0.5,0.7-1.1,1-1.9,1c-0.6,0-1.1-0.2-1.4-0.6c-0.3-0.4-0.4-0.9-0.4-1.5
				c0-1,0.4-1.7,1.1-2c0.5-0.2,1.3-0.4,2.5-0.4v-0.3c0-0.6,0-1-0.1-1.2c-0.1-0.4-0.5-0.6-1-0.6c-0.3,0-0.6,0.1-0.8,0.3
				s-0.3,0.4-0.3,0.8v0.1h-1.1v-0.1c0-0.6,0.2-1.1,0.7-1.4c0.4-0.3,0.9-0.4,1.6-0.4c0.8,0,1.4,0.2,1.7,0.6c0.3,0.4,0.4,0.9,0.4,1.8
				v2.6C224.1,246.5,224.1,247.2,224.2,247.9z M223,245.1v-0.8h-0.3c-1.5,0-2.2,0.5-2.2,1.5c0,0.9,0.3,1.4,1,1.4
				c0.5,0,0.9-0.2,1.2-0.7C222.9,246.1,223,245.7,223,245.1z"/>
			<path class="st0" d="M230.7,247.9h-1.1v-4.5c0-0.6,0-1-0.1-1.2c-0.2-0.4-0.5-0.6-1-0.6c-0.5,0-0.8,0.2-1.1,0.7
				c-0.2,0.4-0.3,0.9-0.3,1.4v4.2h-1.1v-5.5c0-0.6,0-1.1-0.1-1.5h1.1v1c0.4-0.7,1-1.1,1.8-1.1c1.2,0,1.9,0.7,1.9,2.2V247.9z"/>
			<path class="st0" d="M235.3,247.9c-0.3,0-0.6,0.1-0.8,0.1c-0.6,0-1.1-0.1-1.3-0.4c-0.2-0.2-0.3-0.7-0.3-1.3v-4.6h-1v-0.8h1v-1.3
				l1.1-0.5v1.8h1.3v0.8H234v4.4c0,0.4,0.1,0.7,0.2,0.8s0.3,0.2,0.6,0.2c0.1,0,0.2,0,0.5-0.1V247.9z"/>
			<path class="st0" d="M244,247.9h-1.1l0-0.9c-0.5,0.7-1.1,1-1.9,1c-0.6,0-1.1-0.2-1.4-0.6c-0.3-0.4-0.4-0.9-0.4-1.5
				c0-1,0.4-1.7,1.1-2c0.5-0.2,1.3-0.4,2.5-0.4v-0.3c0-0.6,0-1-0.1-1.2c-0.1-0.4-0.5-0.6-1-0.6c-0.3,0-0.6,0.1-0.8,0.3
				s-0.3,0.4-0.3,0.8v0.1h-1.1v-0.1c0-0.6,0.2-1.1,0.7-1.4c0.4-0.3,0.9-0.4,1.6-0.4c0.8,0,1.4,0.2,1.7,0.6c0.3,0.4,0.4,0.9,0.4,1.8
				v2.6C243.9,246.5,243.9,247.2,244,247.9z M242.8,245.1v-0.8h-0.3c-1.5,0-2.2,0.5-2.2,1.5c0,0.9,0.3,1.4,1,1.4
				c0.5,0,0.9-0.2,1.2-0.7C242.7,246.1,242.8,245.7,242.8,245.1z"/>
			<path class="st0" d="M250.4,240.8c0,0.1,0,0.3,0,0.6s0,0.5,0,0.6v6.2c0,0.9-0.2,1.5-0.6,1.9s-1,0.6-1.9,0.6c-1.5,0-2.2-0.7-2.2-2
				h1.2c0,0.9,0.4,1.3,1.1,1.3c0.6,0,0.9-0.2,1.1-0.6c0.1-0.3,0.2-0.7,0.2-1.3v-1c-0.4,0.6-0.9,0.8-1.6,0.8c-0.9,0-1.5-0.4-1.8-1.1
				c-0.2-0.5-0.3-1.2-0.3-2.3c0-1.1,0.1-2,0.3-2.5c0.3-0.8,0.9-1.2,1.8-1.2c0.8,0,1.3,0.3,1.7,1v-0.8H250.4z M249.3,244.1
				c0-0.8-0.1-1.4-0.2-1.8c-0.2-0.6-0.6-0.9-1.1-0.9c-0.6,0-1,0.3-1.1,1c-0.1,0.4-0.2,1-0.2,1.9c0,0.8,0.1,1.4,0.2,1.7
				c0.2,0.6,0.5,0.9,1.1,0.9c0.6,0,1.1-0.4,1.3-1.1C249.2,245.6,249.3,245,249.3,244.1z"/>
			<path class="st0" d="M256.8,244.5h-3.7v0.5c0,0.7,0.1,1.2,0.2,1.6c0.2,0.5,0.6,0.7,1.1,0.7c0.8,0,1.2-0.5,1.3-1.6h1.1
				c-0.1,1.6-0.9,2.4-2.4,2.4c-1,0-1.7-0.3-2-1c-0.3-0.5-0.4-1.3-0.4-2.4c0-1.3,0.1-2.1,0.3-2.7c0.4-0.8,1.1-1.3,2.2-1.3
				c1,0,1.7,0.4,2,1.1c0.2,0.5,0.3,1.3,0.3,2.4V244.5z M255.7,243.7c0-0.7,0-1.2-0.1-1.4c-0.2-0.6-0.5-0.8-1.1-0.8
				c-0.8,0-1.2,0.5-1.3,1.4c0,0.3-0.1,0.6-0.1,0.9H255.7z"/>
		</g>
	</g>
	<line class="st7" x1="305.8" y1="127.5" x2="297.2" y2="122"/>
	<g>
		<line class="st8" x1="185.9" y1="51.7" x2="177.3" y2="46.3"/>
		<line class="st8" x1="194.4" y1="57.1" x2="185.9" y2="51.7"/>
		<line class="st8" x1="203" y1="62.5" x2="194.4" y2="57.1"/>
		<line class="st8" x1="211.6" y1="67.9" x2="203" y2="62.5"/>
		<line class="st8" x1="220.1" y1="73.4" x2="211.6" y2="67.9"/>
		<line class="st8" x1="228.7" y1="78.8" x2="220.1" y2="73.4"/>
		<line class="st8" x1="237.3" y1="84.2" x2="228.7" y2="78.8"/>
		<line class="st8" x1="245.8" y1="89.6" x2="237.3" y2="84.2"/>
		<line class="st8" x1="254.4" y1="95" x2="245.8" y2="89.6"/>
		<line class="st8" x1="263" y1="100.4" x2="254.4" y2="95"/>
		<line class="st8" x1="271.5" y1="105.8" x2="263" y2="100.4"/>
		<line class="st8" x1="280.1" y1="111.2" x2="271.5" y2="105.8"/>
		<line class="st8" x1="288.7" y1="116.6" x2="280.1" y2="111.2"/>
		<line class="st8" x1="297.2" y1="122" x2="288.7" y2="116.6"/>
		<line class="st8" x1="314.4" y1="132.9" x2="305.8" y2="127.5"/>
		<line class="st8" x1="322.9" y1="138.3" x2="314.4" y2="132.9"/>
		<line class="st8" x1="331.5" y1="143.7" x2="322.9" y2="138.3"/>
		<line class="st8" x1="340.1" y1="149.1" x2="331.5" y2="143.7"/>
		<line class="st8" x1="348.6" y1="154.5" x2="340.1" y2="149.1"/>
		<line class="st8" x1="357.2" y1="161.7" x2="348.6" y2="154.5"/>
		<line class="st8" x1="365.8" y1="168.9" x2="357.2" y2="161.7"/>
		<line class="st8" x1="374.3" y1="176.1" x2="365.8" y2="168.9"/>
		<line class="st8" x1="382.9" y1="183.4" x2="374.3" y2="176.1"/>
		<line class="st8" x1="391.5" y1="190.6" x2="382.9" y2="183.4"/>
		<line class="st8" x1="55.1" y1="46.5" x2="45.7" y2="46.5"/>
		<line class="st8" x1="67.3" y1="46.5" x2="55.1" y2="46.5"/>
		<line class="st8" x1="79.4" y1="46.5" x2="67.3" y2="46.5"/>
		<line class="st8" x1="91.6" y1="46.5" x2="79.4" y2="46.5"/>
		<line class="st8" x1="103.7" y1="46.5" x2="91.6" y2="46.5"/>
		<line class="st8" x1="115.9" y1="46.5" x2="103.7" y2="46.5"/>
		<line class="st8" x1="128" y1="46.6" x2="115.9" y2="46.5"/>
		<line class="st8" x1="140.2" y1="46.6" x2="128" y2="46.6"/>
		<line class="st8" x1="152.3" y1="46.6" x2="140.2" y2="46.6"/>
		<line class="st8" x1="164.5" y1="46.6" x2="152.3" y2="46.6"/>
		<line class="st8" x1="176.6" y1="46.6" x2="164.5" y2="46.6"/>
	</g>
</g>
</svg>
