<?xml version="1.0" encoding="utf-8"?>
<!-- Generator: Adobe Illustrator 21.0.2, SVG Export Plug-In . SVG Version: 6.00 Build 0)  -->
<svg version="1.1" id="Layer_1" xmlns="http://www.w3.org/2000/svg" xmlns:xlink="http://www.w3.org/1999/xlink" x="0px" y="0px"
	 viewBox="0 0 433.4 268.9" style="enable-background:new 0 0 433.4 268.9;" xml:space="preserve">
<style type="text/css">
	.st0{fill:#0099D9;}
	.st1{fill:#666667;}
	.st2{fill:none;stroke:#808184;stroke-width:0.5;stroke-linejoin:round;stroke-miterlimit:10;}
	.st3{fill:#003660;}
</style>
<g>
	<path class="st0" d="M25.1,60.6v11.6h-6.9V60.6H2.7v-6.4l12.6-30.3h9.8v31.3h5.1v5.4H25.1z M18.3,29.7L8.4,55.2h9.9V29.7z"/>
	<path class="st0" d="M37.1,73h-5.4L47,22h5.4L37.1,73z"/>
	<path class="st0" d="M66.2,72.2V32.2c-1.8,1.9-4.5,3.8-8.1,5.9v-7c3.5-2,6.5-4.4,8.8-7.3h6.5v48.3H66.2z"/>
	<path class="st0" d="M109,52.1c0,7.1-0.6,12.1-1.8,14.8c-1.9,4-5.5,6.1-10.9,6.1c-5.4,0-9-1.9-10.8-5.7c-1.3-2.9-2-7.9-2-15V40.5
		c0-5.5,0.8-9.6,2.4-12.2c2-3.5,5.6-5.3,10.6-5.3c5.1,0,8.6,1.6,10.5,4.9c1.4,2.4,2,6.5,2,12.2V52.1z M101.8,44.9
		c0-6.2-0.2-10.2-0.5-12c-0.7-3.1-2.3-4.6-4.8-4.6c-2.5,0-4.2,1.6-4.9,4.7c-0.5,2.1-0.8,6.1-0.8,12V52c0,5.6,0.2,9.4,0.7,11.5
		c0.7,2.9,2.3,4.4,4.8,4.4c2.6,0,4.2-1.7,5-5c0.4-1.7,0.5-5.3,0.5-10.6V44.9z"/>
</g>
<g>
	<path class="st0" d="M134.1,27.2c0,1.4-0.3,2.3-1,2.8c-0.5,0.4-1.4,0.5-2.7,0.5h-1v5h-1.8V24h3.1c1.2,0,2.1,0.2,2.6,0.7
		C133.8,25.2,134.1,26,134.1,27.2z M132.3,27.2c0-0.7-0.2-1.2-0.5-1.5c-0.3-0.3-0.8-0.4-1.6-0.4h-0.9v3.9h0.8c0.4,0,0.7,0,1-0.1
		c0.3-0.1,0.5-0.2,0.7-0.3c0.2-0.2,0.3-0.4,0.4-0.6S132.3,27.6,132.3,27.2z"/>
	<path class="st0" d="M141.5,35.6l-0.7-2.8H137l-0.8,2.8h-1.8l3.3-11.6h2.3l3.2,11.6H141.5z M138.9,25.5l-1.5,5.9h3L138.9,25.5z"/>
	<path class="st0" d="M150.2,35.6c0-0.2-0.1-0.5-0.1-0.7c0-0.3,0-0.5,0-0.8c0-0.3,0-0.6,0-0.8c0-0.2,0-0.5,0-0.7
		c0-0.9-0.2-1.4-0.3-1.7c-0.2-0.3-0.7-0.5-1.5-0.5h-1.1v5.2h-1.8V24h3.4c1.1,0,1.9,0.2,2.4,0.6c0.6,0.4,0.9,1.2,0.9,2.4
		c0,1.6-0.6,2.5-1.9,2.8c0.7,0.1,1.1,0.3,1.3,0.7c0.2,0.3,0.3,0.9,0.4,1.7c0,0.3,0,0.9,0,1.6c0,0.6,0.1,1.2,0.2,1.8H150.2z
		 M150.2,27.1c0-0.6-0.1-1.1-0.4-1.3s-0.7-0.4-1.4-0.4h-1.2v3.7h1c0.8,0,1.3-0.1,1.6-0.4C150,28.4,150.2,27.9,150.2,27.1z"/>
	<path class="st0" d="M158.3,25.4v10.2h-1.8V25.4h-2.7V24h7.1v1.4H158.3z"/>
	<path class="st0" d="M162.9,35.6V24h1.8v11.6H162.9z"/>
	<path class="st0" d="M174,32.2c0,2.4-1.2,3.6-3.5,3.6c-1.6,0-2.6-0.5-3.1-1.6c-0.4-0.8-0.5-2.2-0.5-4.4c0-2.1,0.2-3.5,0.5-4.3
		c0.5-1.2,1.6-1.8,3.2-1.8c1.2,0,2,0.3,2.5,0.8s0.8,1.4,0.8,2.5v0.3h-1.8v-0.2c0-1.4-0.5-2-1.5-2c-0.8,0-1.3,0.4-1.6,1.2
		c-0.2,0.6-0.3,1.7-0.3,3.3c0,1.8,0.1,3,0.3,3.6c0.2,0.8,0.7,1.1,1.5,1.1c0.7,0,1.1-0.2,1.4-0.7c0.2-0.3,0.3-0.9,0.3-1.6v-0.3h1.8
		V32.2z"/>
	<path class="st0" d="M176.1,35.6V24h1.8v11.6H176.1z"/>
	<path class="st0" d="M186.9,27.2c0,1.4-0.3,2.3-1,2.8c-0.5,0.4-1.4,0.5-2.7,0.5h-1v5h-1.8V24h3.1c1.2,0,2.1,0.2,2.6,0.7
		C186.7,25.2,186.9,26,186.9,27.2z M185.1,27.2c0-0.7-0.2-1.2-0.5-1.5c-0.3-0.3-0.8-0.4-1.6-0.4h-0.9v3.9h0.8c0.4,0,0.7,0,1-0.1
		c0.3-0.1,0.5-0.2,0.7-0.3c0.2-0.2,0.3-0.4,0.4-0.6S185.1,27.6,185.1,27.2z"/>
	<path class="st0" d="M194.3,35.6l-0.7-2.8h-3.7l-0.8,2.8h-1.8l3.3-11.6h2.3l3.2,11.6H194.3z M191.7,25.5l-1.5,5.9h3L191.7,25.5z"/>
	<path class="st0" d="M203,35.6l-3.3-10v10h-1.6V24h2.7l3.3,10V24h1.6v11.6H203z"/>
	<path class="st0" d="M212.2,25.4v10.2h-1.8V25.4h-2.7V24h7.1v1.4H212.2z"/>
	<path class="st0" d="M223,32.7c0,2.1-1.1,3.1-3.4,3.1c-0.6,0-1.1-0.1-1.6-0.2s-0.8-0.3-1.1-0.6c-0.3-0.3-0.5-0.6-0.6-1.1
		c-0.1-0.4-0.2-1-0.2-1.6v-0.1h1.8v0.1c0,0.7,0.1,1.2,0.3,1.5c0.2,0.4,0.7,0.6,1.3,0.6c1.1,0,1.6-0.5,1.6-1.6c0-0.6-0.2-1-0.6-1.4
		c-0.1-0.1-0.2-0.2-0.5-0.4s-0.6-0.4-1-0.6c-1-0.6-1.7-1.1-2-1.4c-0.5-0.6-0.8-1.3-0.8-2.2c0-1,0.3-1.8,1-2.3
		c0.6-0.5,1.4-0.7,2.4-0.7c2.1,0,3.2,1,3.2,2.9v0.4h-1.8v-0.3c0-1.1-0.5-1.7-1.5-1.7c-0.5,0-0.8,0.1-1.1,0.4s-0.4,0.6-0.4,1.1
		c0,0.6,0.3,1.1,0.8,1.5c0.3,0.2,0.5,0.3,0.8,0.5c0.3,0.2,0.5,0.3,0.8,0.5c0.9,0.6,1.5,1,1.8,1.3C222.8,31.1,223,31.8,223,32.7z"/>
</g>
<g>
	<g>
		<path class="st1" d="M6.9,263.7c0,0.9-0.2,1.5-0.7,2c-0.5,0.4-1.2,0.7-2,0.7c-1,0-1.7-0.2-2.2-0.7c-0.4-0.5-0.7-1.2-0.7-2.2v-0.1
			h1.2v0.1c0,0.6,0.1,1.1,0.3,1.4c0.3,0.4,0.7,0.6,1.3,0.6c1,0,1.5-0.5,1.5-1.6c0-0.6-0.2-1-0.5-1.4c-0.2-0.2-0.6-0.4-1.2-0.8
			c-0.9-0.6-1.5-1-1.8-1.3c-0.5-0.5-0.7-1.1-0.7-1.9c0-0.8,0.3-1.5,0.8-1.9c0.5-0.4,1.1-0.6,2-0.6c1.7,0,2.6,0.8,2.6,2.5v0.3H5.6
			v-0.2c0-0.5-0.1-0.9-0.3-1.1c-0.2-0.3-0.6-0.4-1.2-0.4c-0.5,0-0.8,0.1-1.1,0.4c-0.3,0.3-0.4,0.6-0.4,1.1c0,0.6,0.2,1.1,0.7,1.4
			c0,0,0.5,0.3,1.4,0.9c0.8,0.5,1.3,0.9,1.5,1.1C6.7,262.2,6.9,262.9,6.9,263.7z"/>
		<path class="st1" d="M13.1,262.6c0,1.3-0.1,2.2-0.4,2.7c-0.4,0.7-1,1-2,1c-1,0-1.7-0.3-2-1c-0.3-0.5-0.4-1.4-0.4-2.6
			c0-1.2,0.1-2.1,0.4-2.6c0.4-0.7,1.1-1.1,2.1-1.1c1,0,1.7,0.3,2,1C13,260.4,13.1,261.3,13.1,262.6z M12,263.3v-1.1
			c0-0.8,0-1.4-0.1-1.7c-0.2-0.6-0.6-0.9-1.1-0.9c-0.6,0-1,0.3-1.2,0.9c-0.1,0.3-0.2,0.9-0.2,1.6v1c0,0.7,0.1,1.2,0.2,1.5
			c0.2,0.5,0.6,0.7,1.1,0.7c0.5,0,0.9-0.2,1.1-0.7C11.9,264.5,12,264,12,263.3z"/>
		<path class="st1" d="M19.5,266.1h-1.1l0-0.9c-0.4,0.7-1,1-1.8,1c-1.3,0-1.9-0.7-1.9-2.2v-5h1.1v4.5c0,0.6,0,1,0.1,1.2
			c0.2,0.4,0.5,0.6,1,0.6c0.9,0,1.4-0.7,1.4-2.1v-4.3h1.1v5.5C19.4,265.1,19.4,265.7,19.5,266.1z"/>
		<path class="st1" d="M24.2,260c-0.1,0-0.2,0-0.2,0c-0.5,0-0.9,0.2-1.2,0.5c-0.3,0.3-0.4,0.8-0.4,1.3v4.4h-1.1v-5.8
			c0-0.5,0-0.9,0-1.3h1.1v0.9c0.4-0.7,1-1.1,1.8-1.1C24.2,258.9,24.2,259.3,24.2,260z"/>
		<path class="st1" d="M29.7,263.9c0,1.6-0.7,2.3-2.2,2.3c-1,0-1.7-0.3-2-1c-0.3-0.5-0.4-1.4-0.4-2.6s0.1-2.1,0.3-2.6
			c0.4-0.8,1.1-1.2,2.1-1.2c0.8,0,1.4,0.2,1.7,0.6c0.3,0.4,0.5,0.9,0.5,1.7h-1.1c0-1-0.4-1.5-1.1-1.5c-0.6,0-1,0.3-1.1,0.9
			c-0.1,0.4-0.2,1-0.2,1.9c0,1.1,0.1,1.8,0.2,2.2c0.2,0.4,0.5,0.7,1,0.7c0.4,0,0.7-0.2,0.9-0.5c0.1-0.2,0.2-0.6,0.2-1.1H29.7z"/>
		<path class="st1" d="M35.6,262.8h-3.7v0.5c0,0.7,0.1,1.2,0.2,1.6c0.2,0.5,0.6,0.7,1.1,0.7c0.8,0,1.2-0.5,1.3-1.6h1.1
			c-0.1,1.6-0.9,2.4-2.4,2.4c-1,0-1.7-0.3-2-1c-0.3-0.5-0.4-1.3-0.4-2.4c0-1.2,0.1-2.1,0.3-2.7c0.4-0.8,1.1-1.3,2.2-1.3
			c1,0,1.7,0.4,2,1.1c0.2,0.5,0.3,1.3,0.3,2.4V262.8z M34.5,262c0-0.7,0-1.2-0.1-1.4c-0.2-0.6-0.5-0.8-1.1-0.8
			c-0.8,0-1.2,0.5-1.3,1.4c0,0.3-0.1,0.6-0.1,0.9H34.5z"/>
		<path class="st1" d="M38.4,260.4h-1.2v-1.3h1.2V260.4z M38.4,266.1h-1.2v-1.3h1.2V266.1z"/>
		<path class="st1" d="M49.5,256l-2.7,10.1h-1.4L42.7,256H44l2.1,9l2.2-9H49.5z"/>
		<path class="st1" d="M54.9,266.1h-1.1l0-0.9c-0.5,0.7-1.1,1-1.9,1c-0.6,0-1.1-0.2-1.4-0.6c-0.3-0.4-0.4-0.9-0.4-1.5
			c0-1,0.4-1.7,1.1-2c0.5-0.2,1.3-0.4,2.5-0.4v-0.3c0-0.6,0-1-0.1-1.2c-0.1-0.4-0.5-0.6-1-0.6c-0.3,0-0.6,0.1-0.8,0.3
			c-0.2,0.2-0.3,0.4-0.3,0.8v0.1h-1.1v-0.1c0-0.6,0.2-1.1,0.7-1.4c0.4-0.3,0.9-0.4,1.6-0.4c0.8,0,1.4,0.2,1.7,0.6
			c0.3,0.4,0.4,0.9,0.4,1.8v2.6C54.9,264.7,54.9,265.5,54.9,266.1z M53.8,263.4v-0.8h-0.3c-1.5,0-2.2,0.5-2.2,1.5
			c0,0.9,0.3,1.4,1,1.4c0.5,0,0.9-0.2,1.2-0.7C53.7,264.4,53.8,264,53.8,263.4z"/>
		<path class="st1" d="M61.5,266.1h-1.1v-4.5c0-0.6,0-1-0.1-1.2c-0.2-0.4-0.5-0.6-1-0.6c-0.5,0-0.8,0.2-1.1,0.7
			c-0.2,0.4-0.3,0.9-0.3,1.4v4.2h-1.1v-5.5c0-0.6,0-1.1-0.1-1.5h1.1v1c0.4-0.7,1-1.1,1.8-1.1c1.2,0,1.9,0.7,1.9,2.2V266.1z"/>
		<path class="st1" d="M68,259.1c0,0.1,0,0.3,0,0.6s0,0.5,0,0.6v6.2c0,0.9-0.2,1.5-0.6,1.9c-0.4,0.4-1,0.6-1.9,0.6
			c-1.5,0-2.2-0.7-2.2-2h1.2c0,0.9,0.4,1.3,1.1,1.3c0.6,0,0.9-0.2,1.1-0.6c0.1-0.3,0.2-0.7,0.2-1.3v-1c-0.4,0.6-0.9,0.8-1.6,0.8
			c-0.9,0-1.5-0.4-1.8-1.1c-0.2-0.5-0.3-1.2-0.3-2.3c0-1.1,0.1-2,0.3-2.5c0.3-0.8,0.9-1.2,1.8-1.2c0.8,0,1.3,0.3,1.7,1v-0.8H68z
			 M66.8,262.4c0-0.8-0.1-1.4-0.2-1.8c-0.2-0.6-0.6-0.9-1.1-0.9c-0.6,0-1,0.3-1.1,1c-0.1,0.4-0.2,1-0.2,1.9c0,0.8,0.1,1.4,0.2,1.7
			c0.2,0.6,0.5,0.9,1.1,0.9c0.6,0,1.1-0.3,1.3-1.1C66.8,263.9,66.8,263.3,66.8,262.4z"/>
		<path class="st1" d="M74.6,266.1h-1.1l0-0.9c-0.4,0.7-1,1-1.8,1c-1.3,0-1.9-0.7-1.9-2.2v-5h1.1v4.5c0,0.6,0,1,0.1,1.2
			c0.2,0.4,0.5,0.6,1,0.6c0.9,0,1.4-0.7,1.4-2.1v-4.3h1.1v5.5C74.5,265.1,74.6,265.7,74.6,266.1z"/>
		<path class="st1" d="M80.8,266.1h-1.1l0-0.9c-0.5,0.7-1.1,1-1.9,1c-0.6,0-1.1-0.2-1.4-0.6c-0.3-0.4-0.4-0.9-0.4-1.5
			c0-1,0.4-1.7,1.1-2c0.5-0.2,1.3-0.4,2.5-0.4v-0.3c0-0.6,0-1-0.1-1.2c-0.1-0.4-0.5-0.6-1-0.6c-0.3,0-0.6,0.1-0.8,0.3
			c-0.2,0.2-0.3,0.4-0.3,0.8v0.1h-1.1v-0.1c0-0.6,0.2-1.1,0.7-1.4c0.4-0.3,0.9-0.4,1.6-0.4c0.8,0,1.4,0.2,1.7,0.6
			c0.3,0.4,0.4,0.9,0.4,1.8v2.6C80.7,264.7,80.7,265.5,80.8,266.1z M79.6,263.4v-0.8h-0.3c-1.5,0-2.2,0.5-2.2,1.5
			c0,0.9,0.3,1.4,1,1.4c0.5,0,0.9-0.2,1.2-0.7C79.5,264.4,79.6,264,79.6,263.4z"/>
		<path class="st1" d="M85.5,260c-0.1,0-0.2,0-0.2,0c-0.5,0-0.9,0.2-1.2,0.5c-0.3,0.3-0.4,0.8-0.4,1.3v4.4h-1.1v-5.8
			c0-0.5,0-0.9,0-1.3h1.1v0.9c0.4-0.7,1-1.1,1.8-1.1C85.5,258.9,85.5,259.3,85.5,260z"/>
		<path class="st1" d="M91.3,266.1h-1.1l0-0.8c-0.4,0.6-1,0.9-1.7,0.9c-0.9,0-1.5-0.4-1.9-1.2c-0.2-0.5-0.3-1.4-0.3-2.5
			c0-1.1,0.1-1.9,0.4-2.4c0.3-0.8,0.9-1.1,1.8-1.1c0.7,0,1.2,0.3,1.6,0.8V256h1.1v8.8C91.2,265.1,91.2,265.5,91.3,266.1z
			 M90.1,262.7c0-1-0.1-1.6-0.2-2.1c-0.2-0.6-0.6-0.9-1.1-0.9c-0.6,0-0.9,0.3-1.1,0.9c-0.1,0.4-0.2,1-0.2,1.9c0,0.9,0.1,1.6,0.2,2
			c0.2,0.6,0.5,0.9,1.1,0.9c0.6,0,1-0.3,1.2-0.9C90.1,264.2,90.1,263.6,90.1,262.7z"/>
		<path class="st1" d="M100.9,258.3c0,0.8-0.4,1.7-1.1,2.8l-2.7,4.2h3.8v0.9h-5v-1l3.3-5c0.4-0.6,0.6-1.2,0.6-1.9
			c0-0.9-0.4-1.3-1.2-1.3c-0.9,0-1.3,0.6-1.3,1.7H96c0-0.1,0-0.3,0-0.5c0.1-1.4,1-2.1,2.5-2.1C100.1,256,100.9,256.8,100.9,258.3z"
			/>
		<path class="st1" d="M107.3,261.9c0,1.5-0.1,2.6-0.4,3.2c-0.4,0.8-1.1,1.2-2.1,1.2c-1,0-1.7-0.4-2.1-1.1c-0.3-0.6-0.4-1.7-0.4-3.3
			v-2.2c0-2.4,0.8-3.6,2.5-3.6c1,0,1.7,0.4,2.1,1.1c0.2,0.5,0.4,1.4,0.4,2.6V261.9z M106.2,262.1v-1.6c0-1.4-0.1-2.2-0.2-2.6
			c-0.2-0.7-0.5-1-1.1-1c-0.6,0-1,0.3-1.2,1c-0.1,0.5-0.2,1.4-0.2,2.6v1.5c0,1.2,0.1,2.1,0.2,2.5c0.2,0.6,0.6,0.9,1.1,0.9
			c0.6,0,1-0.4,1.2-1.2C106.1,263.9,106.2,263.2,106.2,262.1z"/>
		<path class="st1" d="M113.6,258.3c0,0.8-0.4,1.7-1.1,2.8l-2.7,4.2h3.8v0.9h-5v-1l3.3-5c0.4-0.6,0.6-1.2,0.6-1.9
			c0-0.9-0.4-1.3-1.2-1.3c-0.9,0-1.3,0.6-1.3,1.7h-1.1c0-0.1,0-0.3,0-0.5c0.1-1.4,1-2.1,2.5-2.1C112.8,256,113.6,256.8,113.6,258.3z
			"/>
		<path class="st1" d="M120,261.9c0,1.5-0.1,2.6-0.4,3.2c-0.4,0.8-1.1,1.2-2.1,1.2c-1,0-1.7-0.4-2.1-1.1c-0.3-0.6-0.4-1.7-0.4-3.3
			v-2.2c0-2.4,0.8-3.6,2.5-3.6c1,0,1.7,0.4,2.1,1.1c0.2,0.5,0.4,1.4,0.4,2.6V261.9z M118.8,262.1v-1.6c0-1.4-0.1-2.2-0.2-2.6
			c-0.2-0.7-0.5-1-1.1-1c-0.6,0-1,0.3-1.2,1c-0.1,0.5-0.2,1.4-0.2,2.6v1.5c0,1.2,0.1,2.1,0.2,2.5c0.2,0.6,0.6,0.9,1.1,0.9
			c0.6,0,1-0.4,1.2-1.2C118.8,263.9,118.8,263.2,118.8,262.1z"/>
		<path class="st1" d="M122.8,266.1h-1.2v-1.3h1.2V266.1z"/>
	</g>
</g>
<line class="st2" x1="0" y1="121.7" x2="424.6" y2="121.7"/>
<g>
	<path class="st1" d="M136.8,45.9l-2,8.1h-1.5l-1.6-6.7l-1.5,6.7h-1.5l-2-8.1h1.4l1.5,6.9l1.6-6.9h1.5l1.6,6.9l1.5-6.9H136.8z"/>
	<path class="st1" d="M143.8,54h-1.3v-5.2c0-0.7,0-1.2-0.1-1.4c-0.2-0.5-0.5-0.7-1.1-0.7c-1.1,0-1.6,0.8-1.6,2.4V54h-1.3V42.4h1.3
		v4.4c0.5-0.7,1.2-1.1,2-1.1c1.4,0,2.1,0.8,2.1,2.5V54z"/>
	<path class="st1" d="M151.6,49.9c0,1.5-0.2,2.5-0.5,3.1c-0.4,0.7-1.2,1.1-2.3,1.1c-1.2,0-1.9-0.4-2.3-1.1c-0.3-0.6-0.4-1.6-0.4-3
		c0-1.4,0.2-2.4,0.5-3c0.4-0.8,1.2-1.3,2.4-1.3c1.2,0,1.9,0.4,2.3,1.2C151.4,47.4,151.6,48.4,151.6,49.9z M150.2,50.8v-1.2
		c0-0.9-0.1-1.6-0.2-1.9c-0.2-0.7-0.6-1-1.3-1c-0.7,0-1.2,0.3-1.4,1c-0.1,0.4-0.2,1-0.2,1.9v1.2c0,0.8,0.1,1.3,0.2,1.7
		c0.2,0.6,0.7,0.8,1.3,0.8c0.6,0,1.1-0.3,1.3-0.8C150.2,52,150.2,51.5,150.2,50.8z"/>
	<path class="st1" d="M160.7,54c-0.4,0-0.7,0.1-0.9,0.1c-0.7,0-1.2-0.2-1.5-0.5c-0.2-0.3-0.3-0.8-0.3-1.5v-5.2h-1.2v-0.9h1.2v-1.5
		l1.3-0.6v2h1.4v0.9h-1.4v5.1c0,0.4,0.1,0.7,0.2,0.9c0.1,0.2,0.4,0.2,0.7,0.2c0.1,0,0.3,0,0.6-0.1V54z"/>
	<path class="st1" d="M167.6,49.9c0,1.5-0.2,2.5-0.5,3.1c-0.4,0.7-1.2,1.1-2.3,1.1c-1.2,0-1.9-0.4-2.3-1.1c-0.3-0.6-0.4-1.6-0.4-3
		c0-1.4,0.2-2.4,0.5-3c0.4-0.8,1.2-1.3,2.4-1.3c1.2,0,1.9,0.4,2.3,1.2C167.4,47.4,167.6,48.4,167.6,49.9z M166.3,50.8v-1.2
		c0-0.9-0.1-1.6-0.2-1.9c-0.2-0.7-0.6-1-1.3-1c-0.7,0-1.2,0.3-1.4,1c-0.1,0.4-0.2,1-0.2,1.9v1.2c0,0.8,0.1,1.3,0.2,1.7
		c0.2,0.6,0.7,0.8,1.3,0.8c0.6,0,1.1-0.3,1.3-0.8C166.2,52,166.3,51.5,166.3,50.8z"/>
	<path class="st1" d="M175,49.9c0,1.5-0.2,2.5-0.5,3.1c-0.4,0.7-1.2,1.1-2.3,1.1c-1.2,0-1.9-0.4-2.3-1.1c-0.3-0.6-0.4-1.6-0.4-3
		c0-1.4,0.2-2.4,0.5-3c0.4-0.8,1.2-1.3,2.4-1.3c1.2,0,1.9,0.4,2.3,1.2C174.8,47.4,175,48.4,175,49.9z M173.7,50.8v-1.2
		c0-0.9-0.1-1.6-0.2-1.9c-0.2-0.7-0.6-1-1.3-1c-0.7,0-1.2,0.3-1.4,1c-0.1,0.4-0.2,1-0.2,1.9v1.2c0,0.8,0.1,1.3,0.2,1.7
		c0.2,0.6,0.7,0.8,1.3,0.8c0.6,0,1.1-0.3,1.3-0.8C173.6,52,173.7,51.5,173.7,50.8z"/>
	<path class="st1" d="M178.3,54h-1.3V42.4h1.3V54z M182.5,54H181l-2.7-4.5l2.4-3.6h1.5l-2.5,3.5L182.5,54z"/>
	<path class="st1" d="M192.8,54h-1.2l0-1.1c-0.5,0.8-1.3,1.2-2.2,1.2c-0.7,0-1.2-0.2-1.6-0.7c-0.3-0.4-0.5-1-0.5-1.7
		c0-1.1,0.4-1.9,1.3-2.3c0.6-0.3,1.5-0.4,2.8-0.4v-0.4c0-0.7-0.1-1.1-0.2-1.4c-0.2-0.4-0.5-0.6-1.1-0.6c-0.4,0-0.7,0.1-1,0.3
		c-0.3,0.2-0.4,0.5-0.4,0.9v0.1h-1.3v-0.1c0-0.7,0.3-1.3,0.8-1.6c0.5-0.3,1.1-0.5,1.9-0.5c0.9,0,1.6,0.2,1.9,0.7
		c0.3,0.4,0.5,1.1,0.5,2v3C192.7,52.4,192.7,53.2,192.8,54z M191.4,50.9v-1h-0.3c-1.7,0-2.5,0.6-2.5,1.7c0,1,0.4,1.6,1.2,1.6
		c0.6,0,1-0.3,1.3-0.8C191.3,52,191.4,51.5,191.4,50.9z"/>
	<path class="st1" d="M208.4,45.9l-2,8.1h-1.5l-1.6-6.7l-1.5,6.7h-1.5l-2-8.1h1.4l1.5,6.9l1.6-6.9h1.5l1.6,6.9l1.5-6.9H208.4z"/>
	<path class="st1" d="M211.3,43.9h-1.4v-1.4h1.4V43.9z M211.2,54H210v-8.1h1.3V54z"/>
	<path class="st1" d="M216.8,54c-0.4,0-0.7,0.1-0.9,0.1c-0.7,0-1.2-0.2-1.5-0.5c-0.2-0.3-0.3-0.8-0.3-1.5v-5.2h-1.2v-0.9h1.2v-1.5
		l1.3-0.6v2h1.4v0.9h-1.4v5.1c0,0.4,0.1,0.7,0.2,0.9c0.1,0.2,0.4,0.2,0.7,0.2c0.1,0,0.3,0,0.6-0.1V54z"/>
	<path class="st1" d="M223.8,54h-1.3v-5.2c0-0.7,0-1.2-0.1-1.4c-0.2-0.5-0.6-0.7-1.1-0.7c-1.1,0-1.6,0.8-1.6,2.4V54h-1.3V42.4h1.3
		v4.4c0.5-0.7,1.2-1.1,2-1.1c1.4,0,2.1,0.8,2.1,2.5V54z"/>
	<path class="st1" d="M231.5,54h-1.2l0-0.9c-0.5,0.7-1.1,1.1-1.9,1.1c-1,0-1.7-0.5-2.1-1.4c-0.2-0.6-0.4-1.6-0.4-2.9
		c0-1.2,0.1-2.2,0.4-2.8c0.4-0.9,1.1-1.3,2-1.3c0.8,0,1.4,0.3,1.8,0.9v-4.3h1.3v10C231.5,52.7,231.5,53.2,231.5,54z M230.2,50
		c0-1.1-0.1-1.9-0.2-2.4c-0.2-0.7-0.7-1-1.3-1c-0.6,0-1.1,0.4-1.3,1.1c-0.2,0.5-0.2,1.2-0.2,2.1c0,1.1,0.1,1.8,0.3,2.3
		c0.2,0.7,0.6,1,1.2,1c0.7,0,1.1-0.3,1.4-1C230.2,51.7,230.2,51,230.2,50z"/>
	<path class="st1" d="M237.2,47c-0.1,0-0.2,0-0.3,0c-0.6,0-1.1,0.2-1.4,0.6c-0.3,0.4-0.5,0.9-0.5,1.5v5h-1.3v-6.6c0-0.5,0-1,0-1.5
		h1.2V47c0.4-0.8,1.1-1.2,2-1.2C237.2,45.7,237.2,46.2,237.2,47z"/>
	<path class="st1" d="M243.8,54h-1.2l0-1.1c-0.5,0.8-1.3,1.2-2.2,1.2c-0.7,0-1.2-0.2-1.6-0.7c-0.3-0.4-0.5-1-0.5-1.7
		c0-1.1,0.4-1.9,1.3-2.3c0.6-0.3,1.5-0.4,2.8-0.4v-0.4c0-0.7-0.1-1.1-0.2-1.4c-0.2-0.4-0.5-0.6-1.1-0.6c-0.4,0-0.7,0.1-1,0.3
		c-0.3,0.2-0.4,0.5-0.4,0.9v0.1h-1.3v-0.1c0-0.7,0.3-1.3,0.8-1.6c0.5-0.3,1.1-0.5,1.9-0.5c0.9,0,1.6,0.2,1.9,0.7
		c0.3,0.4,0.5,1.1,0.5,2v3C243.7,52.4,243.7,53.2,243.8,54z M242.5,50.9v-1h-0.3c-1.7,0-2.5,0.6-2.5,1.7c0,1,0.4,1.6,1.2,1.6
		c0.6,0,1-0.3,1.3-0.8C242.3,52,242.5,51.5,242.5,50.9z"/>
	<path class="st1" d="M255.5,45.9l-2,8.1h-1.5l-1.6-6.7l-1.5,6.7h-1.5l-2-8.1h1.4l1.5,6.9l1.6-6.9h1.5l1.6,6.9l1.5-6.9H255.5z"/>
	<path class="st1" d="M262.1,54h-1.2l0-1.1c-0.5,0.8-1.3,1.2-2.2,1.2c-0.7,0-1.2-0.2-1.6-0.7c-0.3-0.4-0.5-1-0.5-1.7
		c0-1.1,0.4-1.9,1.3-2.3c0.6-0.3,1.5-0.4,2.8-0.4v-0.4c0-0.7-0.1-1.1-0.2-1.4c-0.2-0.4-0.5-0.6-1.1-0.6c-0.4,0-0.7,0.1-1,0.3
		c-0.3,0.2-0.4,0.5-0.4,0.9v0.1h-1.3v-0.1c0-0.7,0.3-1.3,0.8-1.6c0.5-0.3,1.1-0.5,1.9-0.5c0.9,0,1.6,0.2,1.9,0.7
		c0.3,0.4,0.5,1.1,0.5,2v3C262,52.4,262,53.2,262.1,54z M260.8,50.9v-1h-0.3c-1.7,0-2.5,0.6-2.5,1.7c0,1,0.4,1.6,1.2,1.6
		c0.6,0,1-0.3,1.3-0.8C260.6,52,260.8,51.5,260.8,50.9z"/>
	<path class="st1" d="M265.7,54h-1.3V42.4h1.3V54z"/>
	<path class="st1" d="M273.3,43.9h-1.4v-1.4h1.4V43.9z M273.2,54H272v-8.1h1.3V54z"/>
	<path class="st1" d="M281,54h-1.3v-5.2c0-0.7,0-1.2-0.1-1.4c-0.2-0.5-0.5-0.7-1.1-0.7c-0.5,0-1,0.3-1.3,0.8c-0.2,0.5-0.4,1-0.4,1.6
		V54h-1.3v-6.3c0-0.7,0-1.3-0.1-1.8h1.2V47c0.4-0.9,1.1-1.3,2.1-1.3c1.4,0,2.1,0.8,2.1,2.5V54z"/>
	<path class="st1" d="M292.7,45c0,0.9-0.4,2-1.2,3.2l-3.1,4.7h4.3v1h-5.7v-1.2l3.7-5.8c0.4-0.7,0.6-1.4,0.6-2.1c0-1-0.5-1.5-1.4-1.5
		c-1,0-1.5,0.7-1.5,2H287c0-0.1,0-0.3,0-0.6c0.2-1.6,1.1-2.4,2.9-2.4C291.8,42.4,292.7,43.3,292.7,45z"/>
	<path class="st1" d="M300.2,49.1c0,1.7-0.1,3-0.4,3.6c-0.4,0.9-1.2,1.4-2.4,1.4c-1.2,0-2-0.4-2.4-1.3c-0.3-0.7-0.5-2-0.5-3.8v-2.5
		c0-2.8,1-4.2,2.9-4.2c1.2,0,2,0.4,2.4,1.2c0.3,0.6,0.4,1.5,0.4,2.9V49.1z M298.9,49.3v-1.8c0-1.5-0.1-2.5-0.2-3
		c-0.2-0.7-0.6-1.1-1.3-1.1c-0.7,0-1.1,0.4-1.3,1.2c-0.2,0.6-0.2,1.5-0.2,3v1.7c0,1.4,0.1,2.4,0.2,2.9c0.2,0.7,0.7,1,1.3,1
		c0.7,0,1.2-0.4,1.4-1.3C298.9,51.4,298.9,50.6,298.9,49.3z"/>
	<path class="st1" d="M306.1,54h-1.3v-9.8c-0.5,0.5-1.1,1-1.9,1.5v-1.4c0.8-0.5,1.5-1.1,2-1.7h1.2V54z"/>
	<path class="st1" d="M315.2,48.5c0,2-0.1,3.4-0.4,4.2c-0.4,1-1.2,1.5-2.5,1.5c-1.8,0-2.6-0.9-2.6-2.7h1.3c0,1.1,0.4,1.7,1.3,1.7
		c0.7,0,1.1-0.4,1.3-1.2c0.2-0.6,0.2-1.7,0.2-3.3c-0.5,0.6-1.1,1-2,1c-1,0-1.6-0.4-2-1.1c-0.3-0.6-0.4-1.4-0.4-2.5
		c0-2.5,1-3.7,2.9-3.7c1.2,0,2,0.5,2.4,1.4c0.3,0.6,0.4,1.8,0.4,3.4V48.5z M313.9,45.8c0-1.7-0.5-2.5-1.5-2.5
		c-0.6,0-1.1,0.3-1.3,0.9c-0.1,0.4-0.2,1-0.2,1.7s0.1,1.3,0.2,1.7c0.2,0.6,0.6,0.9,1.2,0.9c0.7,0,1.1-0.3,1.4-0.9
		C313.8,47.2,313.9,46.6,313.9,45.8z"/>
	<path class="st1" d="M326.7,54h-1.3v-5.2c0-0.7,0-1.2-0.1-1.4c-0.2-0.5-0.5-0.7-1.1-0.7c-1.1,0-1.6,0.8-1.6,2.4V54h-1.3V42.4h1.3
		v4.4c0.5-0.7,1.2-1.1,2-1.1c1.4,0,2.1,0.8,2.1,2.5V54z"/>
	<path class="st1" d="M334.1,54h-1.2l0-1.1c-0.5,0.8-1.3,1.2-2.2,1.2c-0.7,0-1.2-0.2-1.6-0.7c-0.3-0.4-0.5-1-0.5-1.7
		c0-1.1,0.4-1.9,1.3-2.3c0.6-0.3,1.5-0.4,2.8-0.4v-0.4c0-0.7-0.1-1.1-0.2-1.4c-0.2-0.4-0.5-0.6-1.1-0.6c-0.4,0-0.7,0.1-1,0.3
		c-0.3,0.2-0.4,0.5-0.4,0.9v0.1h-1.3v-0.1c0-0.7,0.3-1.3,0.8-1.6c0.5-0.3,1.1-0.5,1.9-0.5c0.9,0,1.6,0.2,1.9,0.7
		c0.3,0.4,0.5,1.1,0.5,2v3C334,52.4,334,53.2,334.1,54z M332.7,50.9v-1h-0.3c-1.7,0-2.5,0.6-2.5,1.7c0,1,0.4,1.6,1.2,1.6
		c0.6,0,1-0.3,1.3-0.8C332.6,52,332.7,51.5,332.7,50.9z"/>
	<path class="st1" d="M341.7,54h-1.2l0-0.9c-0.5,0.7-1.1,1.1-1.9,1.1c-1,0-1.7-0.5-2.1-1.4c-0.2-0.6-0.4-1.6-0.4-2.9
		c0-1.2,0.1-2.2,0.4-2.8c0.4-0.9,1.1-1.3,2-1.3c0.8,0,1.4,0.3,1.8,0.9v-4.3h1.3v10C341.6,52.7,341.6,53.2,341.7,54z M340.4,50
		c0-1.1-0.1-1.9-0.2-2.4c-0.2-0.7-0.7-1-1.3-1c-0.6,0-1.1,0.4-1.3,1.1c-0.2,0.5-0.2,1.2-0.2,2.1c0,1.1,0.1,1.8,0.3,2.3
		c0.2,0.7,0.6,1,1.2,1c0.7,0,1.1-0.3,1.4-1C340.3,51.7,340.4,51,340.4,50z"/>
	<path class="st1" d="M132.4,72h-1.2l0-1.1c-0.5,0.8-1.3,1.2-2.2,1.2c-0.7,0-1.2-0.2-1.6-0.7c-0.3-0.4-0.5-1-0.5-1.7
		c0-1.1,0.4-1.9,1.3-2.3c0.6-0.3,1.5-0.4,2.8-0.4v-0.4c0-0.7-0.1-1.1-0.2-1.4c-0.2-0.4-0.5-0.6-1.1-0.6c-0.4,0-0.7,0.1-1,0.3
		c-0.3,0.2-0.4,0.5-0.4,0.9v0.1h-1.3v-0.1c0-0.7,0.3-1.3,0.8-1.6c0.5-0.3,1.1-0.5,1.9-0.5c0.9,0,1.6,0.2,1.9,0.7
		c0.3,0.4,0.5,1.1,0.5,2v3C132.3,70.4,132.4,71.2,132.4,72z M131.1,68.9v-1h-0.3c-1.7,0-2.5,0.6-2.5,1.7c0,1,0.4,1.6,1.2,1.6
		c0.6,0,1-0.3,1.3-0.8C131,70,131.1,69.5,131.1,68.9z"/>
	<path class="st1" d="M136,72h-1.3V60.4h1.3V72z"/>
	<path class="st1" d="M142.9,69.8c0,1.6-0.8,2.4-2.5,2.4c-1.7,0-2.5-0.9-2.4-2.6h1.3c0,0.2,0,0.3,0,0.4c0.1,0.8,0.5,1.3,1.2,1.3
		c0.8,0,1.2-0.4,1.2-1.2c0-0.4-0.1-0.8-0.4-1.1c-0.2-0.2-0.5-0.4-1.1-0.7c-0.8-0.4-1.2-0.7-1.4-0.9c-0.4-0.4-0.6-0.9-0.6-1.5
		c0-0.7,0.2-1.2,0.7-1.6c0.4-0.3,1-0.5,1.7-0.5c0.8,0,1.4,0.2,1.8,0.6c0.4,0.4,0.5,1,0.6,1.8h-1.3c0-1-0.4-1.5-1.1-1.5
		c-0.3,0-0.6,0.1-0.8,0.3c-0.2,0.2-0.3,0.5-0.3,0.8c0,0.4,0.2,0.7,0.5,0.9c0.2,0.1,0.5,0.4,1.1,0.7c0.7,0.4,1.1,0.7,1.3,0.9
		C142.7,68.6,142.9,69.2,142.9,69.8z"/>
	<path class="st1" d="M150.1,67.9c0,1.5-0.2,2.5-0.5,3.1c-0.4,0.7-1.2,1.1-2.3,1.1c-1.2,0-1.9-0.4-2.3-1.1c-0.3-0.6-0.4-1.6-0.4-3
		c0-1.4,0.2-2.4,0.5-3c0.4-0.8,1.2-1.3,2.4-1.3c1.2,0,1.9,0.4,2.3,1.2C150,65.4,150.1,66.4,150.1,67.9z M148.8,68.8v-1.2
		c0-0.9-0.1-1.6-0.2-1.9c-0.2-0.7-0.6-1-1.3-1c-0.7,0-1.2,0.3-1.4,1c-0.1,0.4-0.2,1-0.2,1.9v1.2c0,0.8,0.1,1.3,0.2,1.7
		c0.2,0.6,0.7,0.8,1.3,0.8c0.6,0,1.1-0.3,1.3-0.8C148.7,70,148.8,69.5,148.8,68.8z"/>
	<path class="st1" d="M159.2,72c-0.4,0-0.7,0.1-0.9,0.1c-0.7,0-1.2-0.2-1.5-0.5c-0.2-0.3-0.3-0.8-0.3-1.5v-5.2h-1.2v-0.9h1.2v-1.5
		l1.3-0.6v2h1.4v0.9h-1.4v5.1c0,0.4,0.1,0.7,0.2,0.9c0.1,0.2,0.4,0.2,0.7,0.2c0.1,0,0.3,0,0.6-0.1V72z"/>
	<path class="st1" d="M165.8,72h-1.2l0-1.1c-0.5,0.8-1.3,1.2-2.2,1.2c-0.7,0-1.2-0.2-1.6-0.7c-0.3-0.4-0.5-1-0.5-1.7
		c0-1.1,0.4-1.9,1.3-2.3c0.6-0.3,1.5-0.4,2.8-0.4v-0.4c0-0.7-0.1-1.1-0.2-1.4c-0.2-0.4-0.5-0.6-1.1-0.6c-0.4,0-0.7,0.1-1,0.3
		c-0.3,0.2-0.4,0.5-0.4,0.9v0.1h-1.3v-0.1c0-0.7,0.3-1.3,0.8-1.6c0.5-0.3,1.1-0.5,1.9-0.5c0.9,0,1.6,0.2,1.9,0.7
		c0.3,0.4,0.5,1.1,0.5,2v3C165.7,70.4,165.8,71.2,165.8,72z M164.5,68.9v-1h-0.3c-1.7,0-2.5,0.6-2.5,1.7c0,1,0.4,1.6,1.2,1.6
		c0.6,0,1-0.3,1.3-0.8C164.4,70,164.5,69.5,164.5,68.9z"/>
	<path class="st1" d="M169.4,72h-1.3V60.4h1.3V72z M173.6,72h-1.5l-2.7-4.5l2.4-3.6h1.5l-2.5,3.5L173.6,72z"/>
	<path class="st1" d="M180.1,68.1h-4.2v0.5c0,0.8,0.1,1.4,0.2,1.8c0.2,0.5,0.6,0.8,1.2,0.8c0.9,0,1.4-0.6,1.5-1.8h1.2
		c-0.1,1.8-1,2.7-2.7,2.7c-1.1,0-1.9-0.4-2.3-1.1c-0.3-0.6-0.5-1.5-0.5-2.7c0-1.4,0.1-2.5,0.4-3.1c0.4-1,1.2-1.5,2.5-1.5
		c1.2,0,1.9,0.4,2.3,1.3c0.2,0.5,0.4,1.4,0.4,2.7V68.1z M178.9,67.3c0-0.8-0.1-1.3-0.2-1.6c-0.2-0.6-0.6-1-1.2-1
		c-0.9,0-1.4,0.5-1.5,1.6c0,0.4-0.1,0.7-0.1,1H178.9z"/>
	<path class="st1" d="M187.6,72h-1.3v-5.2c0-0.7,0-1.2-0.1-1.4c-0.2-0.5-0.5-0.7-1.1-0.7c-0.5,0-1,0.3-1.3,0.8
		c-0.2,0.5-0.4,1-0.4,1.6V72h-1.3v-6.3c0-0.7,0-1.3-0.1-1.8h1.2V65c0.4-0.9,1.1-1.3,2.1-1.3c1.4,0,2.1,0.8,2.1,2.5V72z"/>
	<path class="st1" d="M199.2,67.9c0,1.5-0.2,2.5-0.5,3.1c-0.4,0.7-1.2,1.1-2.3,1.1c-1.2,0-1.9-0.4-2.3-1.1c-0.3-0.6-0.4-1.6-0.4-3
		c0-1.4,0.2-2.4,0.5-3c0.4-0.8,1.2-1.3,2.4-1.3c1.2,0,1.9,0.4,2.3,1.2C199.1,65.4,199.2,66.4,199.2,67.9z M197.9,68.8v-1.2
		c0-0.9-0.1-1.6-0.2-1.9c-0.2-0.7-0.6-1-1.3-1c-0.7,0-1.2,0.3-1.4,1c-0.1,0.4-0.2,1-0.2,1.9v1.2c0,0.8,0.1,1.3,0.2,1.7
		c0.2,0.6,0.7,0.8,1.3,0.8c0.6,0,1.1-0.3,1.3-0.8C197.8,70,197.9,69.5,197.9,68.8z"/>
	<path class="st1" d="M206.7,72h-1.3v-5.2c0-0.7,0-1.2-0.1-1.4c-0.2-0.5-0.5-0.7-1.1-0.7c-0.5,0-1,0.3-1.3,0.8
		c-0.2,0.5-0.4,1-0.4,1.6V72h-1.3v-6.3c0-0.7,0-1.3-0.1-1.8h1.2V65c0.4-0.9,1.1-1.3,2.1-1.3c1.4,0,2.1,0.8,2.1,2.5V72z"/>
	<path class="st1" d="M214.3,68.1h-4.2v0.5c0,0.8,0.1,1.4,0.2,1.8c0.2,0.5,0.6,0.8,1.2,0.8c0.9,0,1.4-0.6,1.5-1.8h1.2
		c-0.1,1.8-1,2.7-2.7,2.7c-1.1,0-1.9-0.4-2.3-1.1c-0.3-0.6-0.5-1.5-0.5-2.7c0-1.4,0.1-2.5,0.4-3.1c0.4-1,1.2-1.5,2.5-1.5
		c1.2,0,1.9,0.4,2.3,1.3c0.2,0.5,0.4,1.4,0.4,2.7V68.1z M213,67.3c0-0.8-0.1-1.3-0.2-1.6c-0.2-0.6-0.6-1-1.2-1
		c-0.9,0-1.4,0.5-1.5,1.6c0,0.4-0.1,0.7-0.1,1H213z"/>
	<path class="st1" d="M221.6,61.9h-1.4v-1.4h1.4V61.9z M221.5,72h-1.3v-8.1h1.3V72z"/>
	<path class="st1" d="M229.3,72h-1.3v-5.2c0-0.7,0-1.2-0.1-1.4c-0.2-0.5-0.6-0.7-1.1-0.7c-0.5,0-1,0.3-1.3,0.8
		c-0.2,0.5-0.4,1-0.4,1.6V72h-1.3v-6.3c0-0.7,0-1.3-0.1-1.8h1.2V65c0.4-0.9,1.1-1.3,2.1-1.3c1.4,0,2.1,0.8,2.1,2.5V72z"/>
	<path class="st1" d="M241,63c0,0.9-0.4,2-1.2,3.2l-3.1,4.7h4.3v1h-5.7v-1.2L239,65c0.4-0.7,0.6-1.4,0.6-2.1c0-1-0.5-1.5-1.4-1.5
		c-1,0-1.5,0.7-1.5,2h-1.3c0-0.1,0-0.3,0-0.6c0.2-1.6,1.1-2.4,2.9-2.4C240.1,60.4,241,61.3,241,63z"/>
	<path class="st1" d="M248.5,67.1c0,1.7-0.1,3-0.4,3.6c-0.4,0.9-1.2,1.4-2.4,1.4c-1.2,0-2-0.4-2.4-1.3c-0.3-0.7-0.5-2-0.5-3.8v-2.5
		c0-2.8,1-4.2,2.9-4.2c1.2,0,2,0.4,2.4,1.2c0.3,0.6,0.4,1.5,0.4,2.9V67.1z M247.2,67.3v-1.8c0-1.5-0.1-2.5-0.2-3
		c-0.2-0.7-0.6-1.1-1.3-1.1c-0.7,0-1.1,0.4-1.3,1.2c-0.2,0.6-0.2,1.5-0.2,3v1.7c0,1.4,0.1,2.4,0.2,2.9c0.2,0.7,0.7,1,1.3,1
		c0.7,0,1.2-0.4,1.4-1.3C247.2,69.4,247.2,68.6,247.2,67.3z"/>
	<path class="st1" d="M254.4,72h-1.3v-9.8c-0.5,0.5-1.1,1-1.9,1.5v-1.4c0.8-0.5,1.5-1.1,2-1.7h1.2V72z"/>
	<path class="st1" d="M263.6,68.9c0,2.2-1,3.3-2.9,3.3c-1.9,0-2.9-1.1-2.9-3.2c0-0.7,0.1-1.3,0.3-1.7c0.2-0.6,0.7-1,1.3-1.1
		c-1-0.3-1.5-1.2-1.5-2.5c0-2.1,0.9-3.1,2.8-3.1c1.9,0,2.8,1,2.8,2.9c0,1.6-0.5,2.5-1.6,2.8c0.7,0.1,1.1,0.5,1.4,1
		C263.5,67.5,263.6,68.1,263.6,68.9z M262.3,68.9c0-0.7-0.1-1.2-0.2-1.6c-0.2-0.5-0.7-0.7-1.3-0.7c-1.1,0-1.6,0.8-1.6,2.3
		c0,1.5,0.5,2.3,1.6,2.3C261.7,71.2,262.3,70.4,262.3,68.9z M262.2,63.6c0-0.7-0.1-1.1-0.2-1.5c-0.2-0.5-0.6-0.7-1.2-0.7
		c-1,0-1.5,0.7-1.5,2.1c0,1.4,0.5,2.1,1.5,2.1C261.7,65.6,262.2,64.9,262.2,63.6z"/>
	<path class="st1" d="M267.1,72h-1.4v-1.5h1.4V72z"/>
</g>
<g>
	<path class="st3" d="M14.7,220.3v-39.9c-1.8,1.9-4.5,3.8-8.1,5.9v-7c3.5-2,6.5-4.4,8.8-7.3H22v48.3H14.7z"/>
	<path class="st3" d="M37.1,221.2h-5.4l15.2-51h5.4L37.1,221.2z"/>
	<path class="st3" d="M66.2,220.3v-39.9c-1.8,1.9-4.5,3.8-8.1,5.9v-7c3.5-2,6.5-4.4,8.8-7.3h6.5v48.3H66.2z"/>
	<path class="st3" d="M109,200.3c0,7.1-0.6,12.1-1.8,14.8c-1.9,4-5.5,6.1-10.9,6.1c-5.4,0-9-1.9-10.8-5.7c-1.3-2.9-2-7.9-2-15v-11.7
		c0-5.5,0.8-9.6,2.4-12.2c2-3.5,5.6-5.3,10.6-5.3c5.1,0,8.6,1.6,10.5,4.9c1.4,2.4,2,6.5,2,12.2V200.3z M101.8,193.1
		c0-6.2-0.2-10.2-0.5-12c-0.7-3.1-2.3-4.6-4.8-4.6c-2.5,0-4.2,1.6-4.9,4.7c-0.5,2.1-0.8,6.1-0.8,12v7.1c0,5.6,0.2,9.4,0.7,11.5
		c0.7,2.9,2.3,4.4,4.8,4.4c2.6,0,4.2-1.7,5-5c0.4-1.7,0.5-5.3,0.5-10.6V193.1z"/>
</g>
<g>
	<path class="st3" d="M134.1,175.4c0,1.4-0.3,2.3-1,2.8c-0.5,0.4-1.4,0.5-2.7,0.5h-1v5h-1.8v-11.6h3.1c1.2,0,2.1,0.2,2.6,0.7
		C133.8,173.3,134.1,174.2,134.1,175.4z M132.3,175.4c0-0.7-0.2-1.2-0.5-1.5c-0.3-0.3-0.8-0.4-1.6-0.4h-0.9v3.9h0.8
		c0.4,0,0.7,0,1-0.1c0.3-0.1,0.5-0.2,0.7-0.3c0.2-0.2,0.3-0.4,0.4-0.6C132.3,176.1,132.3,175.8,132.3,175.4z"/>
	<path class="st3" d="M141.5,183.7l-0.7-2.8H137l-0.8,2.8h-1.8l3.3-11.6h2.3l3.2,11.6H141.5z M138.9,173.7l-1.5,5.9h3L138.9,173.7z"
		/>
	<path class="st3" d="M150.2,183.7c0-0.2-0.1-0.5-0.1-0.7c0-0.3,0-0.5,0-0.8c0-0.3,0-0.6,0-0.8c0-0.2,0-0.5,0-0.7
		c0-0.9-0.2-1.4-0.3-1.7c-0.2-0.3-0.7-0.5-1.5-0.5h-1.1v5.2h-1.8v-11.6h3.4c1.1,0,1.9,0.2,2.4,0.6c0.6,0.4,0.9,1.2,0.9,2.4
		c0,1.6-0.6,2.5-1.9,2.8c0.7,0.1,1.1,0.3,1.3,0.7c0.2,0.3,0.3,0.9,0.4,1.7c0,0.3,0,0.9,0,1.6c0,0.6,0.1,1.2,0.2,1.8H150.2z
		 M150.2,175.2c0-0.6-0.1-1.1-0.4-1.3c-0.3-0.3-0.7-0.4-1.4-0.4h-1.2v3.7h1c0.8,0,1.3-0.1,1.6-0.4C150,176.5,150.2,176,150.2,175.2z
		"/>
	<path class="st3" d="M158.3,173.5v10.2h-1.8v-10.2h-2.7v-1.4h7.1v1.4H158.3z"/>
	<path class="st3" d="M162.9,183.7v-11.6h1.8v11.6H162.9z"/>
	<path class="st3" d="M174,180.4c0,2.4-1.2,3.6-3.5,3.6c-1.6,0-2.6-0.5-3.1-1.6c-0.4-0.8-0.5-2.2-0.5-4.4c0-2.1,0.2-3.5,0.5-4.3
		c0.5-1.2,1.6-1.8,3.2-1.8c1.2,0,2,0.3,2.5,0.8c0.5,0.5,0.8,1.4,0.8,2.5v0.3h-1.8v-0.2c0-1.4-0.5-2-1.5-2c-0.8,0-1.3,0.4-1.6,1.2
		c-0.2,0.6-0.3,1.7-0.3,3.3c0,1.8,0.1,3,0.3,3.6c0.2,0.8,0.7,1.1,1.5,1.1c0.7,0,1.1-0.2,1.4-0.7c0.2-0.3,0.3-0.9,0.3-1.6v-0.3h1.8
		V180.4z"/>
	<path class="st3" d="M176.1,183.7v-11.6h1.8v11.6H176.1z"/>
	<path class="st3" d="M186.9,175.4c0,1.4-0.3,2.3-1,2.8c-0.5,0.4-1.4,0.5-2.7,0.5h-1v5h-1.8v-11.6h3.1c1.2,0,2.1,0.2,2.6,0.7
		C186.7,173.3,186.9,174.2,186.9,175.4z M185.1,175.4c0-0.7-0.2-1.2-0.5-1.5c-0.3-0.3-0.8-0.4-1.6-0.4h-0.9v3.9h0.8
		c0.4,0,0.7,0,1-0.1c0.3-0.1,0.5-0.2,0.7-0.3c0.2-0.2,0.3-0.4,0.4-0.6C185.1,176.1,185.1,175.8,185.1,175.4z"/>
	<path class="st3" d="M194.3,183.7l-0.7-2.8h-3.7l-0.8,2.8h-1.8l3.3-11.6h2.3l3.2,11.6H194.3z M191.7,173.7l-1.5,5.9h3L191.7,173.7z
		"/>
	<path class="st3" d="M203,183.7l-3.3-10v10h-1.6v-11.6h2.7l3.3,10v-10h1.6v11.6H203z"/>
	<path class="st3" d="M212.2,173.5v10.2h-1.8v-10.2h-2.7v-1.4h7.1v1.4H212.2z"/>
	<path class="st3" d="M223,180.8c0,2.1-1.1,3.1-3.4,3.1c-0.6,0-1.1-0.1-1.6-0.2s-0.8-0.3-1.1-0.6c-0.3-0.3-0.5-0.6-0.6-1.1
		c-0.1-0.4-0.2-1-0.2-1.6v-0.1h1.8v0.1c0,0.7,0.1,1.2,0.3,1.5c0.2,0.4,0.7,0.6,1.3,0.6c1.1,0,1.6-0.5,1.6-1.6c0-0.6-0.2-1-0.6-1.4
		c-0.1-0.1-0.2-0.2-0.5-0.4s-0.6-0.4-1-0.6c-1-0.6-1.7-1.1-2-1.4c-0.5-0.6-0.8-1.3-0.8-2.2c0-1,0.3-1.8,1-2.3
		c0.6-0.5,1.4-0.7,2.4-0.7c2.1,0,3.2,1,3.2,2.9v0.4h-1.8V175c0-1.1-0.5-1.7-1.5-1.7c-0.5,0-0.8,0.1-1.1,0.4
		c-0.3,0.3-0.4,0.6-0.4,1.1c0,0.6,0.3,1.1,0.8,1.5c0.3,0.2,0.5,0.3,0.8,0.5s0.5,0.3,0.8,0.5c0.9,0.6,1.5,1,1.8,1.3
		C222.8,179.2,223,179.9,223,180.8z"/>
</g>
<g>
	<path class="st1" d="M130.4,202.4c-0.4,0-0.7,0.1-0.9,0.1c-0.7,0-1.2-0.2-1.5-0.5c-0.2-0.3-0.3-0.8-0.3-1.5v-5.2h-1.2v-0.9h1.2
		v-1.5l1.3-0.6v2h1.4v0.9h-1.4v5.1c0,0.4,0.1,0.7,0.2,0.9c0.1,0.2,0.4,0.2,0.7,0.2c0.1,0,0.3,0,0.6-0.1V202.4z"/>
	<path class="st1" d="M136.7,202.4h-1.2l0-1.1c-0.5,0.8-1.3,1.2-2.2,1.2c-0.7,0-1.2-0.2-1.6-0.7c-0.3-0.4-0.5-1-0.5-1.7
		c0-1.1,0.4-1.9,1.3-2.3c0.6-0.3,1.5-0.4,2.8-0.4v-0.4c0-0.7-0.1-1.1-0.2-1.4c-0.2-0.4-0.5-0.6-1.1-0.6c-0.4,0-0.7,0.1-1,0.3
		c-0.3,0.2-0.4,0.5-0.4,0.9v0.1h-1.3v-0.1c0-0.7,0.3-1.3,0.8-1.6c0.5-0.3,1.1-0.5,1.9-0.5c0.9,0,1.6,0.2,1.9,0.7
		c0.3,0.4,0.5,1.1,0.5,2v3C136.6,200.8,136.7,201.7,136.7,202.4z M135.4,199.3v-1h-0.3c-1.7,0-2.5,0.6-2.5,1.7c0,1,0.4,1.6,1.2,1.6
		c0.6,0,1-0.3,1.3-0.8C135.3,200.4,135.4,199.9,135.4,199.3z"/>
	<path class="st1" d="M140,202.4h-1.3v-11.6h1.3V202.4z M144.2,202.4h-1.5l-2.7-4.5l2.4-3.6h1.5l-2.5,3.5L144.2,202.4z"/>
	<path class="st1" d="M146.6,192.4h-1.4V191h1.4V192.4z M146.6,202.4h-1.3v-8.1h1.3V202.4z"/>
	<path class="st1" d="M154.1,202.4h-1.3v-5.2c0-0.7,0-1.2-0.1-1.4c-0.2-0.5-0.5-0.7-1.1-0.7c-0.5,0-1,0.3-1.3,0.8
		c-0.2,0.5-0.4,1-0.4,1.6v4.8h-1.3v-6.3c0-0.7,0-1.3-0.1-1.8h1.2v1.1c0.4-0.9,1.1-1.3,2.1-1.3c1.4,0,2.1,0.8,2.1,2.5V202.4z"/>
	<path class="st1" d="M161.6,194.3c0,0.1,0,0.3,0,0.6c0,0.3,0,0.5,0,0.7v7.1c0,1-0.2,1.7-0.7,2.1c-0.5,0.4-1.2,0.7-2.2,0.7
		c-1.7,0-2.5-0.8-2.5-2.3h1.4c0,1,0.4,1.5,1.2,1.5c0.6,0,1.1-0.2,1.3-0.7c0.1-0.3,0.2-0.8,0.2-1.5v-1.1c-0.4,0.6-1.1,0.9-1.9,0.9
		c-1,0-1.7-0.4-2.1-1.3c-0.2-0.6-0.4-1.4-0.4-2.6c0-1.3,0.1-2.3,0.4-2.9c0.4-0.9,1.1-1.4,2-1.4c0.9,0,1.5,0.4,1.9,1.1v-0.9H161.6z
		 M160.3,198.1c0-0.9-0.1-1.6-0.2-2c-0.2-0.7-0.7-1-1.3-1c-0.7,0-1.1,0.4-1.3,1.1c-0.1,0.4-0.2,1.2-0.2,2.2c0,0.9,0.1,1.6,0.2,2
		c0.2,0.7,0.6,1,1.2,1c0.7,0,1.2-0.4,1.4-1.2C160.2,199.8,160.3,199.1,160.3,198.1z"/>
	<path class="st1" d="M172.3,202.4h-1.2l0-1.1c-0.5,0.8-1.3,1.2-2.2,1.2c-0.7,0-1.2-0.2-1.6-0.7c-0.3-0.4-0.5-1-0.5-1.7
		c0-1.1,0.4-1.9,1.3-2.3c0.6-0.3,1.5-0.4,2.8-0.4v-0.4c0-0.7-0.1-1.1-0.2-1.4c-0.2-0.4-0.5-0.6-1.1-0.6c-0.4,0-0.7,0.1-1,0.3
		c-0.3,0.2-0.4,0.5-0.4,0.9v0.1h-1.3v-0.1c0-0.7,0.3-1.3,0.8-1.6c0.5-0.3,1.1-0.5,1.9-0.5c0.9,0,1.6,0.2,1.9,0.7
		c0.3,0.4,0.5,1.1,0.5,2v3C172.2,200.8,172.2,201.7,172.3,202.4z M171,199.3v-1h-0.3c-1.7,0-2.5,0.6-2.5,1.7c0,1,0.4,1.6,1.2,1.6
		c0.6,0,1-0.3,1.3-0.8C170.9,200.4,171,199.9,171,199.3z"/>
	<path class="st1" d="M187.3,194.3l-2,8.1h-1.5l-1.6-6.7l-1.5,6.7h-1.5l-2-8.1h1.4l1.5,6.9l1.6-6.9h1.5l1.6,6.9l1.5-6.9H187.3z"/>
	<path class="st1" d="M190,192.4h-1.4V191h1.4V192.4z M189.9,202.4h-1.3v-8.1h1.3V202.4z"/>
	<path class="st1" d="M195.2,202.4c-0.4,0-0.7,0.1-0.9,0.1c-0.7,0-1.2-0.2-1.5-0.5c-0.2-0.3-0.3-0.8-0.3-1.5v-5.2h-1.2v-0.9h1.2
		v-1.5l1.3-0.6v2h1.4v0.9h-1.4v5.1c0,0.4,0.1,0.7,0.2,0.9c0.1,0.2,0.4,0.2,0.7,0.2c0.1,0,0.3,0,0.6-0.1V202.4z"/>
	<path class="st1" d="M202,202.4h-1.3v-5.2c0-0.7,0-1.2-0.1-1.4c-0.2-0.5-0.5-0.7-1.1-0.7c-1.1,0-1.6,0.8-1.6,2.4v4.9h-1.3v-11.6
		h1.3v4.4c0.5-0.7,1.2-1.1,2-1.1c1.4,0,2.1,0.8,2.1,2.5V202.4z"/>
	<path class="st1" d="M209.4,202.4h-1.2l0-0.9c-0.5,0.7-1.1,1.1-1.9,1.1c-1,0-1.7-0.5-2.1-1.4c-0.2-0.6-0.4-1.6-0.4-2.9
		c0-1.2,0.1-2.2,0.4-2.8c0.4-0.9,1.1-1.3,2-1.3c0.8,0,1.4,0.3,1.8,0.9v-4.3h1.3v10C209.3,201.2,209.4,201.7,209.4,202.4z
		 M208.1,198.5c0-1.1-0.1-1.9-0.2-2.4c-0.2-0.7-0.7-1-1.3-1c-0.6,0-1.1,0.4-1.3,1.1c-0.2,0.5-0.2,1.2-0.2,2.1c0,1.1,0.1,1.8,0.3,2.3
		c0.2,0.7,0.6,1,1.2,1c0.7,0,1.1-0.3,1.4-1C208,200.2,208.1,199.4,208.1,198.5z"/>
	<path class="st1" d="M214.8,195.4c-0.1,0-0.2,0-0.3,0c-0.6,0-1.1,0.2-1.4,0.6c-0.3,0.4-0.5,0.9-0.5,1.5v5h-1.3v-6.6
		c0-0.5,0-1,0-1.5h1.2v1.1c0.4-0.8,1.1-1.2,2-1.2C214.8,194.2,214.8,194.6,214.8,195.4z"/>
	<path class="st1" d="M221.1,202.4h-1.2l0-1.1c-0.5,0.8-1.3,1.2-2.2,1.2c-0.7,0-1.2-0.2-1.6-0.7c-0.3-0.4-0.5-1-0.5-1.7
		c0-1.1,0.4-1.9,1.3-2.3c0.6-0.3,1.5-0.4,2.8-0.4v-0.4c0-0.7-0.1-1.1-0.2-1.4c-0.2-0.4-0.5-0.6-1.1-0.6c-0.4,0-0.7,0.1-1,0.3
		c-0.3,0.2-0.4,0.5-0.4,0.9v0.1h-1.3v-0.1c0-0.7,0.3-1.3,0.8-1.6c0.5-0.3,1.1-0.5,1.9-0.5c0.9,0,1.6,0.2,1.9,0.7
		c0.3,0.4,0.5,1.1,0.5,2v3C221,200.8,221.1,201.7,221.1,202.4z M219.8,199.3v-1h-0.3c-1.7,0-2.5,0.6-2.5,1.7c0,1,0.4,1.6,1.2,1.6
		c0.6,0,1-0.3,1.3-0.8C219.7,200.4,219.8,199.9,219.8,199.3z"/>
	<path class="st1" d="M232.5,194.3l-2,8.1H229l-1.6-6.7l-1.5,6.7h-1.5l-2-8.1h1.4l1.5,6.9l1.6-6.9h1.5l1.6,6.9l1.5-6.9H232.5z"/>
	<path class="st1" d="M238.9,202.4h-1.2l0-1.1c-0.5,0.8-1.3,1.2-2.2,1.2c-0.7,0-1.2-0.2-1.6-0.7c-0.3-0.4-0.5-1-0.5-1.7
		c0-1.1,0.4-1.9,1.3-2.3c0.6-0.3,1.5-0.4,2.8-0.4v-0.4c0-0.7-0.1-1.1-0.2-1.4c-0.2-0.4-0.5-0.6-1.1-0.6c-0.4,0-0.7,0.1-1,0.3
		c-0.3,0.2-0.4,0.5-0.4,0.9v0.1h-1.3v-0.1c0-0.7,0.3-1.3,0.8-1.6c0.5-0.3,1.1-0.5,1.9-0.5c0.9,0,1.6,0.2,1.9,0.7
		c0.3,0.4,0.5,1.1,0.5,2v3C238.8,200.8,238.8,201.7,238.9,202.4z M237.6,199.3v-1h-0.3c-1.7,0-2.5,0.6-2.5,1.7c0,1,0.4,1.6,1.2,1.6
		c0.6,0,1-0.3,1.3-0.8C237.4,200.4,237.6,199.9,237.6,199.3z"/>
	<path class="st1" d="M242.2,202.4h-1.3v-11.6h1.3V202.4z"/>
	<path class="st1" d="M251.1,202.4c-0.4,0-0.7,0.1-0.9,0.1c-0.7,0-1.2-0.2-1.5-0.5c-0.2-0.3-0.3-0.8-0.3-1.5v-5.2h-1.2v-0.9h1.2
		v-1.5l1.3-0.6v2h1.4v0.9h-1.4v5.1c0,0.4,0.1,0.7,0.2,0.9c0.1,0.2,0.4,0.2,0.7,0.2c0.1,0,0.3,0,0.6-0.1V202.4z"/>
	<path class="st1" d="M257.7,198.3c0,1.5-0.2,2.5-0.5,3.1c-0.4,0.7-1.2,1.1-2.3,1.1c-1.2,0-1.9-0.4-2.3-1.1c-0.3-0.6-0.4-1.6-0.4-3
		c0-1.4,0.2-2.4,0.5-3c0.4-0.8,1.2-1.3,2.4-1.3c1.2,0,1.9,0.4,2.3,1.2C257.6,195.9,257.7,196.9,257.7,198.3z M256.4,199.2V198
		c0-0.9-0.1-1.6-0.2-1.9c-0.2-0.7-0.6-1-1.3-1c-0.7,0-1.2,0.3-1.4,1c-0.1,0.4-0.2,1-0.2,1.9v1.2c0,0.8,0.1,1.3,0.2,1.7
		c0.2,0.6,0.7,0.8,1.3,0.8c0.6,0,1.1-0.3,1.3-0.8C256.3,200.5,256.4,199.9,256.4,199.2z"/>
	<path class="st1" d="M264.8,198.3c0,1.5-0.2,2.5-0.5,3.1c-0.4,0.7-1.2,1.1-2.3,1.1c-1.2,0-1.9-0.4-2.3-1.1c-0.3-0.6-0.4-1.6-0.4-3
		c0-1.4,0.2-2.4,0.5-3c0.4-0.8,1.2-1.3,2.4-1.3c1.2,0,1.9,0.4,2.3,1.2C264.7,195.9,264.8,196.9,264.8,198.3z M263.5,199.2V198
		c0-0.9-0.1-1.6-0.2-1.9c-0.2-0.7-0.6-1-1.3-1c-0.7,0-1.2,0.3-1.4,1c-0.1,0.4-0.2,1-0.2,1.9v1.2c0,0.8,0.1,1.3,0.2,1.7
		c0.2,0.6,0.7,0.8,1.3,0.8c0.6,0,1.1-0.3,1.3-0.8C263.4,200.5,263.5,199.9,263.5,199.2z"/>
	<path class="st1" d="M267.9,202.4h-1.3v-11.6h1.3V202.4z M272.1,202.4h-1.5l-2.7-4.5l2.4-3.6h1.5l-2.5,3.5L272.1,202.4z"/>
	<path class="st1" d="M282.1,198.3c0,1.5-0.2,2.5-0.5,3.1c-0.4,0.7-1.2,1.1-2.3,1.1c-1.2,0-1.9-0.4-2.3-1.1c-0.3-0.6-0.4-1.6-0.4-3
		c0-1.4,0.2-2.4,0.5-3c0.4-0.8,1.2-1.3,2.4-1.3c1.2,0,1.9,0.4,2.3,1.2C282,195.9,282.1,196.9,282.1,198.3z M280.8,199.2V198
		c0-0.9-0.1-1.6-0.2-1.9c-0.2-0.7-0.6-1-1.3-1c-0.7,0-1.2,0.3-1.4,1c-0.1,0.4-0.2,1-0.2,1.9v1.2c0,0.8,0.1,1.3,0.2,1.7
		c0.2,0.6,0.7,0.8,1.3,0.8c0.6,0,1.1-0.3,1.3-0.8C280.7,200.5,280.8,199.9,280.8,199.2z"/>
	<path class="st1" d="M289.3,202.4h-1.3v-5.2c0-0.7,0-1.2-0.1-1.4c-0.2-0.5-0.5-0.7-1.1-0.7c-0.5,0-1,0.3-1.3,0.8
		c-0.2,0.5-0.4,1-0.4,1.6v4.8h-1.3v-6.3c0-0.7,0-1.3-0.1-1.8h1.2v1.1c0.4-0.9,1.1-1.3,2.1-1.3c1.4,0,2.1,0.8,2.1,2.5V202.4z"/>
	<path class="st1" d="M296.7,198.6h-4.2v0.5c0,0.8,0.1,1.4,0.2,1.8c0.2,0.5,0.6,0.8,1.2,0.8c0.9,0,1.4-0.6,1.5-1.8h1.2
		c-0.1,1.8-1,2.7-2.7,2.7c-1.1,0-1.9-0.4-2.3-1.1c-0.3-0.6-0.5-1.5-0.5-2.7c0-1.4,0.1-2.5,0.4-3.1c0.4-1,1.2-1.5,2.5-1.5
		c1.2,0,1.9,0.4,2.3,1.3c0.2,0.5,0.4,1.4,0.4,2.7V198.6z M295.4,197.7c0-0.8-0.1-1.3-0.2-1.6c-0.2-0.6-0.6-1-1.2-1
		c-0.9,0-1.4,0.5-1.5,1.6c0,0.4-0.1,0.7-0.1,1H295.4z"/>
	<path class="st1" d="M303.4,192.4H302V191h1.4V192.4z M303.3,202.4h-1.3v-8.1h1.3V202.4z"/>
	<path class="st1" d="M310.9,202.4h-1.3v-5.2c0-0.7,0-1.2-0.1-1.4c-0.2-0.5-0.5-0.7-1.1-0.7c-0.5,0-1,0.3-1.3,0.8
		c-0.2,0.5-0.4,1-0.4,1.6v4.8h-1.3v-6.3c0-0.7,0-1.3-0.1-1.8h1.2v1.1c0.4-0.9,1.1-1.3,2.1-1.3c1.4,0,2.1,0.8,2.1,2.5V202.4z"/>
	<path class="st1" d="M132.5,216.6h-4.2v0.5c0,0.8,0.1,1.4,0.2,1.8c0.2,0.5,0.6,0.8,1.2,0.8c0.9,0,1.4-0.6,1.5-1.8h1.2
		c-0.1,1.8-1,2.7-2.7,2.7c-1.1,0-1.9-0.4-2.3-1.1c-0.3-0.6-0.5-1.5-0.5-2.7c0-1.4,0.1-2.5,0.4-3.1c0.4-1,1.2-1.5,2.5-1.5
		c1.2,0,1.9,0.4,2.3,1.3c0.2,0.5,0.4,1.4,0.4,2.7V216.6z M131.2,215.7c0-0.8-0.1-1.3-0.2-1.6c-0.2-0.6-0.6-1-1.2-1
		c-0.9,0-1.4,0.5-1.5,1.6c0,0.4-0.1,0.7-0.1,1H131.2z"/>
	<path class="st1" d="M139.2,220.4H138l0-1.1c-0.5,0.8-1.3,1.2-2.2,1.2c-0.7,0-1.2-0.2-1.6-0.7c-0.3-0.4-0.5-1-0.5-1.7
		c0-1.1,0.4-1.9,1.3-2.3c0.6-0.3,1.5-0.4,2.8-0.4v-0.4c0-0.7-0.1-1.1-0.2-1.4c-0.2-0.4-0.5-0.6-1.1-0.6c-0.4,0-0.7,0.1-1,0.3
		c-0.3,0.2-0.4,0.5-0.4,0.9v0.1h-1.3v-0.1c0-0.7,0.3-1.3,0.8-1.6c0.5-0.3,1.1-0.5,1.9-0.5c0.9,0,1.6,0.2,1.9,0.7
		c0.3,0.4,0.5,1.1,0.5,2v3C139.2,218.8,139.2,219.7,139.2,220.4z M137.9,217.3v-1h-0.3c-1.7,0-2.5,0.6-2.5,1.7c0,1,0.4,1.6,1.2,1.6
		c0.6,0,1-0.3,1.3-0.8C137.8,218.4,137.9,217.9,137.9,217.3z"/>
	<path class="st1" d="M146.2,217.9c0,1.8-0.8,2.7-2.5,2.7c-1.2,0-1.9-0.4-2.3-1.1c-0.3-0.6-0.4-1.5-0.4-2.9c0-1.4,0.1-2.4,0.4-3
		c0.4-0.9,1.2-1.4,2.4-1.4c0.9,0,1.6,0.2,2,0.6c0.4,0.4,0.5,1.1,0.5,2H145c0-1.1-0.4-1.7-1.2-1.7c-0.7,0-1.1,0.4-1.3,1.1
		c-0.1,0.4-0.2,1.2-0.2,2.2c0,1.2,0.1,2.1,0.3,2.5c0.2,0.5,0.6,0.8,1.2,0.8c0.5,0,0.9-0.2,1.1-0.5c0.1-0.3,0.2-0.7,0.2-1.2H146.2z"
		/>
	<path class="st1" d="M153.2,220.4h-1.3v-5.2c0-0.7,0-1.2-0.1-1.4c-0.2-0.5-0.5-0.7-1.1-0.7c-1.1,0-1.6,0.8-1.6,2.4v4.9h-1.3v-11.6
		h1.3v4.4c0.5-0.7,1.2-1.1,2-1.1c1.4,0,2.1,0.8,2.1,2.5V220.4z"/>
	<path class="st1" d="M164.2,216.3c0,1.5-0.2,2.5-0.5,3.1c-0.4,0.7-1.2,1.1-2.3,1.1c-1.2,0-1.9-0.4-2.3-1.1c-0.3-0.6-0.4-1.6-0.4-3
		c0-1.4,0.2-2.4,0.5-3c0.4-0.8,1.2-1.3,2.4-1.3c1.2,0,1.9,0.4,2.3,1.2C164.1,213.9,164.2,214.9,164.2,216.3z M162.9,217.2V216
		c0-0.9-0.1-1.6-0.2-1.9c-0.2-0.7-0.6-1-1.3-1c-0.7,0-1.2,0.3-1.4,1c-0.1,0.4-0.2,1-0.2,1.9v1.2c0,0.8,0.1,1.3,0.2,1.7
		c0.2,0.6,0.7,0.8,1.3,0.8c0.6,0,1.1-0.3,1.3-0.8C162.8,218.5,162.9,217.9,162.9,217.2z"/>
	<path class="st1" d="M169.2,209.8c-0.1,0-0.3,0-0.5,0c-0.4,0-0.7,0.1-0.8,0.4c-0.1,0.2-0.1,0.5-0.1,1v1.2h1.4v0.9h-1.4v7.1h-1.3
		v-7.1h-1.2v-0.9h1.2v-0.9c0-0.9,0.1-1.5,0.3-1.9c0.3-0.6,0.9-0.8,1.7-0.8c0.2,0,0.4,0,0.6,0V209.8z"/>
	<path class="st1" d="M177.2,220.4c-0.4,0-0.7,0.1-0.9,0.1c-0.7,0-1.2-0.2-1.5-0.5c-0.2-0.3-0.3-0.8-0.3-1.5v-5.2h-1.2v-0.9h1.2
		v-1.5l1.3-0.6v2h1.4v0.9h-1.4v5.1c0,0.4,0.1,0.7,0.2,0.9c0.1,0.2,0.4,0.2,0.7,0.2c0.1,0,0.3,0,0.6-0.1V220.4z"/>
	<path class="st1" d="M184,220.4h-1.3v-5.2c0-0.7,0-1.2-0.1-1.4c-0.2-0.5-0.5-0.7-1.1-0.7c-1.1,0-1.6,0.8-1.6,2.4v4.9h-1.3v-11.6
		h1.3v4.4c0.5-0.7,1.2-1.1,2-1.1c1.4,0,2.1,0.8,2.1,2.5V220.4z"/>
	<path class="st1" d="M191.3,216.6h-4.2v0.5c0,0.8,0.1,1.4,0.2,1.8c0.2,0.5,0.6,0.8,1.2,0.8c0.9,0,1.4-0.6,1.5-1.8h1.2
		c-0.1,1.8-1,2.7-2.7,2.7c-1.1,0-1.9-0.4-2.3-1.1c-0.3-0.6-0.5-1.5-0.5-2.7c0-1.4,0.1-2.5,0.4-3.1c0.4-1,1.2-1.5,2.5-1.5
		c1.2,0,1.9,0.4,2.3,1.3c0.2,0.5,0.4,1.4,0.4,2.7V216.6z M190.1,215.7c0-0.8-0.1-1.3-0.2-1.6c-0.2-0.6-0.6-1-1.2-1
		c-0.9,0-1.4,0.5-1.5,1.6c0,0.4-0.1,0.7-0.1,1H190.1z"/>
	<path class="st1" d="M202.3,216.2c0,1.3-0.1,2.3-0.4,2.9c-0.4,0.9-1.1,1.4-2.1,1.4c-0.8,0-1.4-0.3-1.8-0.9v3.8h-1.3v-9.2
		c0-0.9,0-1.5-0.1-1.9h1.2v1c0.5-0.8,1.1-1.1,2-1.1c1,0,1.7,0.4,2,1.3C202.2,214.1,202.3,215,202.3,216.2z M201,216.2
		c0-0.9-0.1-1.6-0.2-2c-0.2-0.7-0.6-1-1.3-1c-0.6,0-1.1,0.3-1.3,1c-0.2,0.5-0.3,1.3-0.3,2.3c0,1,0.1,1.7,0.2,2.1
		c0.2,0.7,0.7,1,1.4,1c0.7,0,1.1-0.4,1.3-1.2C200.9,217.9,201,217.2,201,216.2z"/>
	<path class="st1" d="M209.1,220.4h-1.2l0-1.1c-0.5,0.8-1.3,1.2-2.2,1.2c-0.7,0-1.2-0.2-1.6-0.7c-0.3-0.4-0.5-1-0.5-1.7
		c0-1.1,0.4-1.9,1.3-2.3c0.6-0.3,1.5-0.4,2.8-0.4v-0.4c0-0.7-0.1-1.1-0.2-1.4c-0.2-0.4-0.5-0.6-1.1-0.6c-0.4,0-0.7,0.1-1,0.3
		c-0.3,0.2-0.4,0.5-0.4,0.9v0.1h-1.3v-0.1c0-0.7,0.3-1.3,0.8-1.6c0.5-0.3,1.1-0.5,1.9-0.5c0.9,0,1.6,0.2,1.9,0.7
		c0.3,0.4,0.5,1.1,0.5,2v3C209,218.8,209.1,219.7,209.1,220.4z M207.8,217.3v-1h-0.3c-1.7,0-2.5,0.6-2.5,1.7c0,1,0.4,1.6,1.2,1.6
		c0.6,0,1-0.3,1.3-0.8C207.7,218.4,207.8,217.9,207.8,217.3z"/>
	<path class="st1" d="M215.6,218.2c0,1.6-0.8,2.4-2.5,2.4c-1.7,0-2.5-0.9-2.4-2.6h1.3c0,0.2,0,0.3,0,0.4c0.1,0.8,0.5,1.3,1.2,1.3
		c0.8,0,1.2-0.4,1.2-1.2c0-0.4-0.1-0.8-0.4-1.1c-0.2-0.2-0.5-0.4-1.1-0.7c-0.8-0.4-1.2-0.7-1.4-0.9c-0.4-0.4-0.6-0.9-0.6-1.5
		c0-0.7,0.2-1.2,0.7-1.6c0.4-0.3,1-0.5,1.7-0.5c0.8,0,1.4,0.2,1.8,0.6c0.4,0.4,0.5,1,0.6,1.8h-1.3c0-1-0.4-1.5-1.1-1.5
		c-0.3,0-0.6,0.1-0.8,0.3c-0.2,0.2-0.3,0.5-0.3,0.8c0,0.4,0.2,0.7,0.5,0.9c0.2,0.1,0.5,0.4,1.1,0.7c0.7,0.4,1.1,0.7,1.3,0.9
		C215.4,217.1,215.6,217.6,215.6,218.2z"/>
	<path class="st1" d="M220.4,220.4c-0.4,0-0.7,0.1-0.9,0.1c-0.7,0-1.2-0.2-1.5-0.5c-0.2-0.3-0.3-0.8-0.3-1.5v-5.2h-1.2v-0.9h1.2
		v-1.5l1.3-0.6v2h1.4v0.9h-1.4v5.1c0,0.4,0.1,0.7,0.2,0.9c0.1,0.2,0.4,0.2,0.7,0.2c0.1,0,0.3,0,0.6-0.1V220.4z"/>
	<path class="st1" d="M228.4,209.8c-0.1,0-0.3,0-0.5,0c-0.4,0-0.7,0.1-0.8,0.4c-0.1,0.2-0.1,0.5-0.1,1v1.2h1.4v0.9H227v7.1h-1.3
		v-7.1h-1.2v-0.9h1.2v-0.9c0-0.9,0.1-1.5,0.3-1.9c0.3-0.6,0.9-0.8,1.7-0.8c0.2,0,0.4,0,0.6,0V209.8z M230.5,210.4h-1.4V209h1.4
		V210.4z M230.5,220.4h-1.3v-8.1h1.3V220.4z"/>
	<path class="st1" d="M237.7,212.3l-2.3,8.1H234l-2.2-8.1h1.4l1.6,6.8l1.7-6.8H237.7z"/>
	<path class="st1" d="M244.2,216.6H240v0.5c0,0.8,0.1,1.4,0.2,1.8c0.2,0.5,0.6,0.8,1.2,0.8c0.9,0,1.4-0.6,1.5-1.8h1.2
		c-0.1,1.8-1,2.7-2.7,2.7c-1.1,0-1.9-0.4-2.3-1.1c-0.3-0.6-0.5-1.5-0.5-2.7c0-1.4,0.1-2.5,0.4-3.1c0.4-1,1.2-1.5,2.5-1.5
		c1.2,0,1.9,0.4,2.3,1.3c0.2,0.5,0.4,1.4,0.4,2.7V216.6z M243,215.7c0-0.8-0.1-1.3-0.2-1.6c-0.2-0.6-0.6-1-1.2-1
		c-0.9,0-1.4,0.5-1.5,1.6c0,0.4-0.1,0.7-0.1,1H243z"/>
	<path class="st1" d="M254.8,212.3l-3.2,11.1h-1.2l0.9-3.1l-2.4-8.1h1.4l1.7,6.5l1.6-6.5H254.8z"/>
	<path class="st1" d="M261.3,216.6H257v0.5c0,0.8,0.1,1.4,0.2,1.8c0.2,0.5,0.6,0.8,1.2,0.8c0.9,0,1.4-0.6,1.5-1.8h1.2
		c-0.1,1.8-1,2.7-2.7,2.7c-1.1,0-1.9-0.4-2.3-1.1c-0.3-0.6-0.5-1.5-0.5-2.7c0-1.4,0.1-2.5,0.4-3.1c0.4-1,1.2-1.5,2.5-1.5
		c1.2,0,1.9,0.4,2.3,1.3c0.2,0.5,0.4,1.4,0.4,2.7V216.6z M260,215.7c0-0.8-0.1-1.3-0.2-1.6c-0.2-0.6-0.6-1-1.2-1
		c-0.9,0-1.4,0.5-1.5,1.6c0,0.4-0.1,0.7-0.1,1H260z"/>
	<path class="st1" d="M268,220.4h-1.2l0-1.1c-0.5,0.8-1.3,1.2-2.2,1.2c-0.7,0-1.2-0.2-1.6-0.7c-0.3-0.4-0.5-1-0.5-1.7
		c0-1.1,0.4-1.9,1.3-2.3c0.6-0.3,1.5-0.4,2.8-0.4v-0.4c0-0.7-0.1-1.1-0.2-1.4c-0.2-0.4-0.5-0.6-1.1-0.6c-0.4,0-0.7,0.1-1,0.3
		c-0.3,0.2-0.4,0.5-0.4,0.9v0.1h-1.3v-0.1c0-0.7,0.3-1.3,0.8-1.6c0.5-0.3,1.1-0.5,1.9-0.5c0.9,0,1.6,0.2,1.9,0.7
		c0.3,0.4,0.5,1.1,0.5,2v3C268,218.8,268,219.7,268,220.4z M266.7,217.3v-1h-0.3c-1.7,0-2.5,0.6-2.5,1.7c0,1,0.4,1.6,1.2,1.6
		c0.6,0,1-0.3,1.3-0.8C266.6,218.4,266.7,217.9,266.7,217.3z"/>
	<path class="st1" d="M273.4,213.4c-0.1,0-0.2,0-0.3,0c-0.6,0-1.1,0.2-1.4,0.6c-0.3,0.4-0.5,0.9-0.5,1.5v5H270v-6.6c0-0.5,0-1,0-1.5
		h1.2v1.1c0.4-0.8,1.1-1.2,2-1.2C273.4,212.2,273.4,212.6,273.4,213.4z"/>
	<path class="st1" d="M279.2,218.2c0,1.6-0.8,2.4-2.5,2.4c-1.7,0-2.5-0.9-2.4-2.6h1.3c0,0.2,0,0.3,0,0.4c0.1,0.8,0.5,1.3,1.2,1.3
		c0.8,0,1.2-0.4,1.2-1.2c0-0.4-0.1-0.8-0.4-1.1c-0.2-0.2-0.5-0.4-1.1-0.7c-0.8-0.4-1.2-0.7-1.4-0.9c-0.4-0.4-0.6-0.9-0.6-1.5
		c0-0.7,0.2-1.2,0.7-1.6c0.4-0.3,1-0.5,1.7-0.5c0.8,0,1.4,0.2,1.8,0.6c0.4,0.4,0.5,1,0.6,1.8h-1.3c0-1-0.4-1.5-1.1-1.5
		c-0.3,0-0.6,0.1-0.8,0.3c-0.2,0.2-0.3,0.5-0.3,0.8c0,0.4,0.2,0.7,0.5,0.9c0.2,0.1,0.5,0.4,1.1,0.7c0.7,0.4,1.1,0.7,1.3,0.9
		C279,217.1,279.2,217.6,279.2,218.2z"/>
	<path class="st1" d="M282.3,220.4h-1.4v-1.5h1.4V220.4z"/>
</g>
</svg>
