<?xml version="1.0" encoding="utf-8"?>
<!-- Generator: Adobe Illustrator 21.0.2, SVG Export Plug-In . SVG Version: 6.00 Build 0)  -->
<svg version="1.1" id="Layer_1" xmlns="http://www.w3.org/2000/svg" xmlns:xlink="http://www.w3.org/1999/xlink" x="0px" y="0px"
	 viewBox="0 0 1440 425" style="enable-background:new 0 0 1440 425;" xml:space="preserve">
<style type="text/css">
	.st0{opacity:0.15;fill:#0099D9;enable-background:new    ;}
	.st1{fill:#DCEDF8;}
	.st2{fill:#F3F8FC;}
	.st3{fill:#79C8EA;}
	.st4{fill:#8FB9D0;}
	.st5{fill:#0099D9;}
	.st6{fill:#DFF2FA;}
	.st7{fill:#74B8E5;}
	.st8{fill:#BFE5F5;}
	.st9{fill:#9A9CB6;}
	.st10{fill:#CEBFD3;}
	.st11{fill:#00355F;}
	.st12{fill:#D7BFCA;}
	.st13{fill:#B20838;}
	.st14{fill:#003660;}
	.st15{fill:#00305C;}
	.st16{fill:#CEE2F4;}
	.st17{fill:#FEFEFE;}
</style>
<polygon class="st0" points="989.5,425 1097.1,347.1 1097.1,347.1 1097.1,347.1 1134,246.5 890.1,425 "/>
<polygon class="st1" points="948.8,0 869.1,57.6 869.1,57.6 869.1,57.6 844.8,132 1027.5,0 "/>
<polygon class="st1" points="1008.6,198.5 904.1,198 904.1,198 904.1,198 590,424.5 702.3,425 "/>
<polygon class="st2" points="621.6,323.1 920.4,106.7 913.9,89.5 630.9,294.4 631,294.4 630.9,294.4 "/>
<polygon class="st3" points="1042.4,425 1161.8,338.6 1161.7,338.6 1161.8,338.6 1200,221.4 918.9,425 "/>
<polygon class="st4" points="1095.9,425 1203.5,347.1 1203.5,347.1 1203.5,347.1 1236.1,250.8 996.5,425 "/>
<polygon class="st5" points="1200.4,425 1306.2,348.3 1210.3,348.5 1210.3,348.5 1210.3,348.5 1105.3,425 "/>
<polygon class="st6" points="580.3,425 949.9,157.3 980.7,63 480.8,425 "/>
<polygon class="st7" points="890.1,425 1181.6,212.5 1089,212.7 1089,212.7 1089,212.7 797.7,425 "/>
<polygon class="st8" points="661.8,425 1181.6,40.5 1087.4,40.6 1087.4,40.6 1087.4,40.6 567.8,425 "/>
<polygon class="st9" points="804.2,425 848.2,425 962.2,343.5 977.6,296.3 "/>
<polygon class="st10" points="816.3,425 1137.3,187.6 1023.9,187.1 702.3,425 "/>
<polygon class="st11" points="1143.2,425 1396.7,241.5 1396.7,241.5 1396.7,241.5 1420.8,167.6 1065.3,425 "/>
<polygon class="st2" points="966,0 934.3,0 808.1,91.2 808.1,91.2 808.1,91.2 789.3,148.8 957,27.6 957,27.6 957,27.6 "/>
<polygon class="st8" points="869.1,57.6 869.1,57.6 854.8,101.4 957,27.6 957,27.6 957,27.6 966,0 948.8,0 "/>
<polygon class="st12" points="1141.9,0 963.8,129.6 1056.5,129.5 1234.3,0 "/>
<polygon class="st13" points="1259.9,0 1119.2,101.5 1196.1,101.8 1196.1,101.8 1196.1,101.8 1337.3,0 "/>
<polygon class="st14" points="1440,165.8 1279.1,282.2 1279.1,286.5 1279.1,286.6 1248.3,380.9 1440,242.1 "/>
<polygon class="st13" points="1440,317.7 1292.8,425 1393.1,425 1440,390.8 "/>
<polygon class="st15" points="1440,242.1 1187.4,425 1275.6,425 1440,305.9 "/>
<polygon class="st16" points="1375.6,0 1226.3,105.2 1226.3,105.2 1226.3,105.2 1207,164.3 1440,0 "/>
<polygon class="st3" points="1003.5,167.7 1003.5,167.7 1003.5,167.7 832,292.2 807.7,366.6 1082,167.6 "/>
<polygon class="st14" points="1440,0 1409.6,0 1226.7,132.5 1226.7,132.5 1226.7,132.5 1195.9,226.8 1440,50 "/>
<polygon class="st15" points="1226.7,132.5 1226.7,132.5 1219.1,155.7 1440,0 1409.6,0 "/>
<polygon class="st16" points="1440,102.1 1247.3,241.9 1247.3,241.9 1247.3,241.9 1220.3,324.5 1440,165.8 "/>
<polygon class="st4" points="879.5,257.6 776.6,332.5 760.4,382 863.4,306.1 "/>
<polygon class="st17" points="1440,102.7 1440,87.6 1241.6,87.6 1213.2,0 1134.6,0 1106.1,87.6 886.9,87.6 1064.3,216.4 996.5,425 
	1173.9,296.1 1351.3,425 1283.5,216.4 "/>
</svg>
