
<svg viewBox="0 0 355 156" xmlns="http://www.w3.org/2000/svg" width="355" height="156">
    <style type="text/css">

        .st0 {
        fill: #DB4437;
        }

        .st1 {
        fill: #FFF;
        }

        .st2 {
        fill: #4267B2;
        }

        .st3 {
        fill: #0077B5;
        }

        .st4 {
        fill: #FF0000;
        }

        .st5 {
        fill: none;
        }

        .st6 {
        fill: #1DA1F2;
        }

        .st7 {
        fill: #96151D;
        }

        .st8 {
        fill: #E37222;
        }

        .st9 {
        fill: none;
        stroke: #FFFFFF;
        stroke-width: 2.3333333;
        stroke-miterlimit: 10;
        }

        .st10 {
        fill: none;
        stroke: #FFF;
        stroke-width: 1.75;
        stroke-miterlimit: 10;
        }

        .st11 {
        fill: #666;
        }

        .st12 {
        fill: none;
        stroke: #B3B3B3;
        stroke-width: 0.8248333;
        stroke-linecap: round;
        stroke-linejoin: round;
        stroke-miterlimit: 10;
        }

        .st13 {
        fill: none;
        stroke: #B3B3B3;
        stroke-width: 0.5833333;
        stroke-linecap: round;
        stroke-linejoin: round;
        stroke-miterlimit: 10;
        }

        .st14 {
        fill: #6D943E;
        }

        .st15 {
        fill: none;
        stroke: #6D943E;
        stroke-width: 0.8248333;
        stroke-linecap: round;
        stroke-miterlimit: 10;
        }

        .st16 {
        fill: none;
        stroke: #FFF;
        stroke-width: 0.5833333;
        stroke-linecap: round;
        stroke-linejoin: round;
        stroke-miterlimit: 10;
        }

        .st17 {
        fill: none;
        stroke: #FFFFFF;
        stroke-width: 0.5833333;
        stroke-linecap: round;
        stroke-miterlimit: 10;
        }

        .st18 {
        fill: #010101;
        }

        .st19 {
        fill: none;
        stroke: #FFF;
        stroke-width: 1.6;
        stroke-miterlimit: 10;
        }

        .st20 {
        fill: none;
        stroke: #FFF;
        stroke-width: 2.8284271;
        stroke-miterlimit: 10;
        }

        .st21 {
        fill: none;
        stroke: #999;
        stroke-width: 1.6;
        stroke-miterlimit: 10;
        }

        .st22 {
        fill: none;
        stroke: #999;
        stroke-width: 2.8284271;
        stroke-miterlimit: 10;
        }

        .st23 {
        fill: none;
        stroke: #666;
        stroke-width: 1.6;
        stroke-miterlimit: 10;
        }

        .st24 {
        fill: none;
        stroke: #666;
        stroke-width: 2.8284271;
        stroke-miterlimit: 10;
        }

        .st25 {
        fill: #999;
        }

        .st26 {
        fill: none;
        stroke: #FFF;
        stroke-width: 1.6666666;
        stroke-linecap: round;
        stroke-miterlimit: 10;
        }

        .st27 {
        fill: #808080;
        }

        .st28 {
        fill: none;
        stroke: #E5E5E5;
        stroke-width: 2.4041631;
        stroke-miterlimit: 10;
        }

        .st29 {
        fill: #8D4900;
        }

        .st30 {
        fill: none;
        stroke: #FFF;
        stroke-width: 2;
        stroke-miterlimit: 10;
        }

        .st31 {
        fill: #2DAAC2;
        }

        .st32 {
        fill: #CCC;
        }

        .st33 {
        fill: #555;
        }

        .st34 {
        fill: #333;
        }

        .st35 {
        fill: #E6E6FA;
        }

        .st36 {
        fill: #191970;
        }

    </style>
    <view id="facebook-view" viewBox="25 2 21 21"></view>
    <view id="linkedin-view" viewBox="48 2 21 21"></view>
    <view id="youtube-view" viewBox="71 2 21 21"></view>
    <view id="twitter-view" viewBox="94 2 21 21"></view>
    <view id="mobile-apps-view" viewBox="117 2 21 21"></view>
    <view id="blog-view" viewBox="140 2 21 21"></view>
    <view id="rss-view" viewBox="163 2 21 21"></view>
    <view id="phone-view" viewBox="186 2 21 21"></view>
    <view id="subscribe-view" viewBox="209 2 21 21"></view>
    <view id="ship-w-signature-view" viewBox="2 25 157 44"></view>
    <view id="white-signature-view" viewBox="161 25 91 20"></view>
    <view id="search-white-view" viewBox="161 47 20 20"></view>
    <view id="search-cg5-view" viewBox="183 47 20 20"></view>
    <view id="search-cg7-view" viewBox="205 47 20 20"></view>
    <view id="close-cg5-view" viewBox="254 25 25 25"></view>
    <view id="close-cg6-view" viewBox="281 25 25 25"></view>
    <view id="close-cg7-view" viewBox="308 25 25 25"></view>
    <view id="clear-cg5-view" viewBox="227 57 17 17"></view>
    <view id="clear-cg7-view" viewBox="246 57 17 17"></view>
    <view id="link-offsite-cg5-view" viewBox="265 57 9 9"></view>
    <view id="link-offsite-inactive-red-view" viewBox="276 257 9 9"></view>
    <view id="link-offsite-vg-red-view" viewBox="287 57 9 9"></view>
    <view id="right-caret-view" viewBox="298 57 13 22"></view>
    <view id="site-preference-view" viewBox="313 57 12 12"></view>
    <view id="ad-choices-view" viewBox="336 25 18 72"></view>
    <view id="cart-view" viewBox="265 68 15 15"></view>
    <view id="back-view" viewBox="150 71 47 22"></view>
    <view id="paper-view" viewBox="199 71 25 30"></view>
    <view id="co-brand-view" viewBox="2 71 146 42"></view>
    <view id="ship-w-signature-small" viewBox="2 115 136 39"></view>
    <g id="facebook">
        <rect class="st2" x="25" y="2" width="21" height="21"/>
        <path class="st1" d="M39.499 23v-8.12109h2.73779l0.410156-3.17871h-3.14795V9.67566c0-0.918135 0.254913-1.54383 1.57151-1.54383h1.66872V5.29643c-0.29039-0.0385547-1.28646-0.124892-2.44535-0.124892 -2.41992 0-4.07613 1.47656-4.07613 4.18934v2.33933h-2.72754v3.17871h2.72754V23H39.499Z"/>
    </g>
    <g id="linkedin">
        <rect class="st3" x="48" y="2" width="21" height="21"/>
        <path class="st1" d="M51.1134 9.87289h3.11487v10.0216h-3.11487V9.87289ZM52.6716 4.89113c0.99575 0 1.80494 0.809262 1.80494 1.8053 0 0.997034-0.809189 1.80644-1.80494 1.80644 -0.998318 0-1.80637-0.809407-1.80637-1.80644C50.8652 5.7004 51.6733 4.89113 52.6716 4.89113"/>
        <path class="st1" d="M56.1818 9.87289h2.98783v1.36924h0.0414467c0.415558-0.787897 1.43167-1.61867 2.94696-1.61867 3.15403 0 3.73636 2.07568 3.73636 4.7739v5.49715h-3.1126v-4.87352c0-1.16267-0.0213623-2.65751-1.61852-2.65751 -1.62081 0-1.86903 1.26614-1.86903 2.57334v4.9577h-3.11245V9.87289Z"/>
    </g>
    <g id="youtube">
        <rect class="st4" x="71" y="2" width="21" height="21"/>
        <path class="st1" d="M88.1696 9.12757c-0.160095-0.602834-0.631805-1.07761-1.23075-1.23874C85.8532 7.59605 81.5 7.59605 81.5 7.59605s-4.35319 0-5.4388 0.292778c-0.598946 0.161136-1.07066 0.635908-1.23075 1.23874 -0.290894 1.09267-0.290894 3.37243-0.290894 3.37243s0 2.27977 0.290894 3.37244c0.160095 0.602833 0.631805 1.0776 1.23075 1.23874C77.1468 17.404 81.5 17.404 81.5 17.404s4.35319 0 5.43881-0.292784c0.598946-0.161137 1.07066-0.635904 1.23075-1.23874 0.290886-1.09267 0.290886-3.37244 0.290886-3.37244S88.4604 10.2202 88.1696 9.12757Z"/>
        <polygon class="st4" points="80.0763 14.5699 83.7147 12.5001 80.0763 10.4301"/>
    </g>
    <g id="twitter">
        <rect class="st5" x="94" y="2" width="21" height="21"/>
        <path class="st6" d="M101.532 19.0004c6.03777 0 9.34016-5.00224 9.34016-9.34016 0-0.14208 0-0.28352-0.0095978-0.42432 0.642448-0.464697 1.19702-1.04008 1.63776-1.6992 -0.599114 0.265473-1.23466 0.43957-1.88544 0.516481 0.685272-0.410252 1.19816-1.05551 1.4432-1.81568 -0.644379 0.382371-1.34935 0.651848-2.08448 0.7968 -1.2432-1.32193-3.32265-1.38575-4.64458-0.142555 -0.852531 0.801761-1.21426 1.99647-0.949661 3.13647 -2.63942-0.13232-5.09857-1.37899-6.76543-3.42976 -0.871284 1.49993-0.426247 3.41879 1.01632 4.38208 -0.522407-0.0154829-1.03342-0.156406-1.48992-0.410879 0 0.0134401 0 0.0275192 0 0.0415993 0.0004272 1.56262 1.10192 2.9085 2.6336 3.21792 -0.483284 0.131802-0.990349 0.151068-1.48224 0.0563202 0.430046 1.33723 1.66245 2.2533 3.06688 2.27968 -1.16241 0.913555-2.59836 1.40949-4.0768 1.408 -0.261185-0.0005016-0.52211-0.0163155-0.781441-0.0473614 1.50121 0.963377 3.24795 1.47438 5.03168 1.472"/>
    </g>
    <g id="mobile-apps">
        <rect class="st7" x="117" y="2" width="21" height="21"/>
        <path class="st1" d="M129.787 6.9238v0.0983715c1.16379 0.45406 0.728638 1.59769 0.728638 1.59769l-2.12959 6.8038 -2.87943-8.48033h-4.02306v0.120494c0.690536 0.157972 1.02571 1.35896 1.02571 1.35896l2.64199 7.35656c0.72995 2.0706 2.09823 2.47951 2.09823 2.47951l1.689 0.65625 4.06245-11.9913h-3.21393"/>
    </g>
    <g id="blog">
        <rect class="st8" x="140" y="2" width="21" height="21"/>
        <circle class="st9" cx="146.417" cy="16.5833" r="2.91667"/>
        <line class="st9" x1="143.5" y1="8.41667" x2="143.5" y2="16.5833"/>
        <path class="st9" d="M153.417 16.5833c0-3.86599-3.13402-7-7-7"/>
        <path class="st9" d="M157.5 16.5833C157.5 10.4622 152.538 5.5 146.417 5.5"/>
    </g>
    <g id="rss">
        <rect class="st8" x="163" y="2" width="21" height="21"/>
        <circle class="st1" cx="168.25" cy="17.75" r="1.75"/>
        <path class="st10" d="M174.375 19.5c0-4.34924-3.52576-7.875-7.875-7.875"/>
        <path class="st10" d="M178.75 19.5c0-6.7655-5.4845-12.25-12.25-12.25"/>
    </g>
    <g id="phone">
        <rect class="st5" x="186" y="2" width="21" height="21"/>
        <path class="st11" d="M186.267 9.28401c3.92616 11.0839 13.2456 13.324 14.6743 13.4302 3.4257 0.362881 5.62862-1.78349 6.05876-5.03158 0 0-3.46379-2.20285-5.19186-2.56464l-2.73166 2.73172c0 0-1.47009 0.0641479-4.68903-3.15462 -3.21861-3.21891-3.15448-4.68904-3.15448-4.68904l2.35155-2.3516c-0.393005-2.3831-1.77234-6.15115-4.46999-5.28055C186.456 3.21076 185.474 6.95927 186.267 9.28401Z"/>
    </g>
    <g id="subscribe">
        <rect class="st5" x="209" y="2" width="21" height="21"/>
        <polyline class="st12" points="222.708 6.66667 219.5 9.875 216.292 6.66667"/>
        <line class="st13" x1="219.5" y1="2.29167" x2="219.5" y2="9.875"/>
        <path class="st14" d="M229.094 18.4946l-8.16667 4.08335c-0.387863 0.193888-0.844208-0.0881519-0.844208-0.521744v-9.73525c0-0.24316 0.150833-0.460813 0.378509-0.546192l8.16359-3.06133c0.382843-0.143548 0.791245 0.139427 0.791245 0.548344v8.71109C229.417 18.1938 229.292 18.3958 229.094 18.4946Z"/>
        <path class="st14" d="M209.906 18.4946l8.16667 4.08334c0.387878 0.193893 0.844223-0.0881462 0.844223-0.521738v-9.73525c0-0.24316-0.150833-0.460813-0.378525-0.546193l-8.16357-3.06132c-0.382843-0.143559-0.791245 0.139475-0.791245 0.548333v8.71109C209.583 18.1938 209.708 18.3958 209.906 18.4946Z"/>
        <line class="st15" x1="224.75" y1="7.54672" x2="228.833" y2="9.07799"/>
        <line class="st15" x1="214.25" y1="7.54672" x2="210.167" y2="9.07799"/>
        <polyline class="st16" points="227.819 10.8792 225.009 16.4051 221.997 13.1966"/>
        <line class="st16" x1="226.788" y1="16.1427" x2="227.819" y2="17.2685"/>
        <line class="st16" x1="221.997" y1="20.0456" x2="223.15" y2="17.8082"/>
        <line class="st17" x1="212.844" y1="11.5411" x2="211.181" y2="10.8792"/>
        <line class="st17" x1="212.844" y1="13.7146" x2="217.003" y2="15.4796"/>
        <line class="st17" x1="211.181" y1="15.1387" x2="217.003" y2="17.7626"/>
        <line class="st17" x1="211.181" y1="17.2685" x2="217.003" y2="20.0456"/>
    </g>
    <g id="ship-w-signature" transform="translate(2 40)">
        <rect class="st5" x="2" y="25" width="157" height="44"/>
        <path class="st7" d="M13.1132011 0.0692208c0 0 0 0.1323673 0 0.1544487 c1.8382702 0.7159541 1.1537609 2.5227785 1.1537609 2.5227785l-3.3645153 10.7446976L6.3548093 0.0980605H0v0.190064 C1.0926075 0.5374315 1.6211036 2.435987 1.6211036 2.435987L5.7931304 14.054388 c1.1537614 3.267746 3.3118739 3.9122963 3.3118739 3.9122963l2.6669769 1.0349274l6.418395-18.9323902H13.1132011z"/>
        <path class="st7" d="M39.1689987 18.8626251h5.7955589l-0.0050354-0.1594868c0.0050354 0-1.1723366-0.0305767-1.1351738-2.1275349 c0 0-0.0067749-6.4590664-0.0100746-6.4625416c0.0100746-4.4908099-4.5366936-4.328022-4.5366936-4.328022 c-1.9037666 0.0373526-3.1930428 1.1911139-3.5087128 1.5065966V5.8020658l-5.8396912 0.2289801v0.1697373 c1.2079659 0.0762515 1.1028576 1.9086318 1.1028576 1.9527602v8.7714367 c-0.3971539 0.0034752-1.0893078 0.0034752-1.0893078-0.0135517c-1.9544964-0.1118832-1.957798-2.1105089-1.9510231-2.1649046 c0 0-0.0509033-4.0479813-0.0509033-4.0243368c0.0236282-2.8976941-1.7034531-3.824039-1.6796513-3.8478408 c-3.2642708-2.0224266-7.9444675-0.6346469-7.9444675-0.6346469s-0.9993134 3.1659384-1.0246773 3.1421366 c4.9684181-2.1716633 5.7794056-0.0203266 5.7523022-0.0948582c0.0847816 0.2136917 0.0950317 0.400281 0.0576801 0.5700188 c-0.162775 0.9416332-1.8865681 1.1909399-1.9070549 1.1909399c-2.0460682 0.3665771-3.1216507 0.7500057-3.1216507 0.7500057 c-3.144742 1.0687895-2.7316046 3.7257071-2.7316046 3.7494917c0.5370216 3.4135246 5.144063 3.3184929 5.144063 3.3184929 h1.9749985l0.9975758-2.04953c-2.0462151 0.4140072-2.6807022-0.7039661-2.6807022-0.7039661 c-0.8516407-1.4167938 0.4378071-2.248106 0.4378071-2.248106c0.5055637-0.3867302 2.12076-0.7498322 2.12076-0.7498322v2.0663643 c0.1627884 3.8277054 4.2380447 3.6918278 4.3636551 3.6782932h3.3355007l0 0l5.8584538 0.0034752v-0.1527119 c-0.0034752 0-1.084095-0.0408268-1.1316948-1.8594818l0.0034714-5.9143791l0 0 c-0.0373497-2.1886892 1.7609596-2.2192659 1.7576599-2.2192659c1.7576561-0.0168524 1.6320496 1.5404739 1.6422997 1.8900423 c0 0 0.0034752 5.9687748 0.0034752 5.9755497c0 0 0.0135498 0 0.0406532 0L39.1689987 16.58568V18.8626251z"/>
        <path class="st7" d="M65.0439377 5.7850399H51.5134277c-1.593132 0.0764427-3.3761559 0.3869038-4.7809601 1.7493186 c0 0-2.4465103 2.3870931-0.3495522 5.4103961c0.0203285 0 1.0010529 1.4015055 2.6534271 1.9306965 c0 0 0.0152893 0 0.0373535 0.0069494l-0.0271034 0.0067749c0.1492348-0.0067749-1.1638374 0.1492205-1.7441063 0.492012 c-0.3224487 0.2051792-0.4240837 0.4308586-0.3359871 0.9941006c0.0882416 0.5564671 0.5905037 2.3752804 2.5076485 2.4838619 c1.3724937 0.0611553 3.3389778-0.1832867 4.3772087 0.590519c0 0 0.7465286 0.5394421 0.7465286 1.452219 c0 0.6888695-0.0797424 2.0936737-2.9487724 2.2463684c-0.135685 0-2.3818779-0.0170078-2.8214226-1.6118774 c-0.0017395-0.0100765-0.2357559-1.3572197 1.0790558-1.5437927c0 0-1.7270813-0.4039307-3.1878281 0 c-1.9800377 0.549675-2.5653458 2.3718033-1.4506721 3.6781025c-0.0152893-0.0168686 1.6134567 1.9173183 6.0059509 1.8832664 c4.4298477 0.1170979 8.8649063-1.2079659 8.077549-5.6496258c-0.0203285 0-0.5309296-3.169239-5.3256149-3.1556873h-2.3667679 c0 0-1.0111237 0.0745316-1.2147255-0.4037743c-0.0034752 0-0.4478989-0.7194109 0.9501305-0.7670135h0.001564l0.2562561-0.0304203 c0 0 4.1379776-0.5055637 5.417347-2.3142824c0.018589-0.0220642 1.9560623-2.168189-0.0356026-4.7470827 c-0.0017357 0-0.1765251-0.2392311-0.3106461-0.3495512h3.5544052c-0.0033035 1.6237097-0.0118141 6.3793058 0.0034752 6.4131842 c-0.0067787 4.4892635 4.6181679 4.3229828 4.6181679 4.3229828c1.9850769-0.0338612 3.3016281-1.2927303 3.5425949-1.5404739 v1.5269394l5.8973694 0.0034752v-0.1527119c-1.2639084-0.0576782-1.1570587-2.0834064-1.1570587-2.1343098V9.656682l0 0 l0.0032959-3.8546162l-5.841423 0.2289801v0.1697373c1.206398 0.0762515 1.1045914 1.9086318 1.1045914 1.9527602v4.0549307 v1.5201645c-0.0034714 0-0.0034714-0.0050383-0.0034714-0.0050383c-0.0694962 2.495676-1.8103027 2.1970291-1.8035278 2.2276058 c-1.6405563 0.0170259-1.5981674-1.7950106-1.5981674-1.7950106V5.7850399z M51.7085304 12.9006262 c-0.1289101 0.0305777-1.8323631-0.1221342-1.6440353-2.5041885c0.0205154 0.0203266-0.0474281-2.12076 1.6457748-2.12076 c0 0 1.5387535-0.0677557 1.576107 2.0834074C53.286377 10.3964376 53.4934654 12.9006262 51.7085304 12.9006262z"/>
        <path class="st7" d="M95.2012253 7.4952688v-1.693203l-5.8396912 0.2289801v0.1697373 c1.2097015 0.0762515 1.102684 1.9086318 1.102684 1.9562345v7.7330341l0 0v1.0349283 c-0.3799591 0.0034752-1.1638412 0.0067749-1.1638412-0.0135517c-1.9544983-0.1118832-1.9544983-2.1105089-1.9477234-2.1649046 c0 0-0.0541992-4.0479813-0.0541992-4.0243368c0.0253601-2.8976941-1.7034531-3.824039-1.679657-3.8478408 c-3.264267-2.0224266-7.9435959-0.6346469-7.9435959-0.6346469s-0.9975739 3.1659384-1.0246658 3.1421366 c4.9675369-2.1716633 5.7785263-0.0203266 5.7548981-0.0948582c0.0847778 0.2136917 0.0950317 0.400281 0.0542068 0.5700188 c-0.1627731 0.9416332-1.8865738 1.1909399-1.9068985 1.1909399c-2.0462265 0.3665771-3.1200714 0.7500057-3.1200714 0.7500057 c-3.1438751 1.0687895-2.729866 3.7257071-2.729866 3.7494917c0.5361404 3.4135246 5.1407623 3.3184929 5.1407623 3.3184929 h1.974823l1.0010529-2.04953c-2.04953 0.4140072-2.6841812-0.7039661-2.6841812-0.7039661 c-0.8498993-1.4167938 0.4411087-2.248106 0.4411087-2.248106c0.5022659-0.3867302 2.1207581-0.7498322 2.1207581-0.7498322 v2.0663643c0.1612244 3.8277054 4.2382202 3.6918278 4.3603592 3.6782932h3.4067307l0 0h5.8940659v-0.15271 c-0.0541992 0.0067749-1.184166 0.0917301-1.1603622-2.1308365V11.331296h0.0033035 c0.0034714 0.0152712-0.1594849-2.9809132 3.7766113-2.3193378v-3.213367 C98.9778366 5.7985911 96.4974442 5.0419836 95.2012253 7.4952688z"/>
        <path class="st7" d="M112.9409409 16.5823784l-0.0033035-16.4810162l-5.9076233 0.2308913v0.1627879 c1.2079697 0.0847818 1.1028595 1.9138439 1.1028595 1.9595356v4.268796 c-4.1296387-2.6348362-7.1258392 0.7821465-7.1055069 0.7176743c-1.9289627 1.9272385-1.8459167 4.9710426-1.8627548 4.950716 c0 3.2098923 1.8627548 4.8454161 1.8627548 4.8454161c2.4532852 2.6468239 5.4138641 1.6151962 5.4138641 1.6151962 s1.2776337-2.2870216 1.2776337-2.3073483c-3.6476974 0.6073704-3.6476974-4.1329374-3.6273727-4.153264 c0-4.0719566 2.1614304-3.8377647 2.1801758-3.8615656c1.8612061 0.0203266 1.8612061 2.1648703 1.8612061 2.0868816v0.1662626 v8.0792837v-0.0034752v0.0034752l5.9653015 0.0033016v-0.1560135 C114.094696 18.7099133 112.9105301 18.8252735 112.9409409 16.5823784z"/>
        <path class="st7" d="M114.1553192 1.8865614c0 0.9804001 0.7998047 1.7811902 1.7841949 1.7811902 c0.9804993 0 1.7832031-0.8007901 1.7832031-1.7811902c0-0.9843999-0.8027039-1.7851999-1.7832031-1.7851999 C114.9551239 0.1013615 114.1553192 0.9021615 114.1553192 1.8865614z M114.4034195 1.8865614 c0-0.8515999 0.6884995-1.5371 1.5360947-1.5371c0.8447037 0 1.535202 0.6855 1.535202 1.5371 c0 0.8476-0.6904984 1.5341902-1.535202 1.5341902C115.0919189 3.4207516 114.4034195 2.7341614 114.4034195 1.8865614z"/>
        <path class="st7" d="M115.5469131 1.7488614h0.4794998c0.3233032-0.0146999 0.3964996-0.1611099 0.3964996-0.3271999 c0-0.1689099-0.0731964-0.3125-0.3964996-0.3261h-0.4794998V1.7488614z M115.5528183 1.9998615v0.9471998h-0.2891006V0.8455614 h0.7471008c0.3535004 0 0.7177963 0.1113 0.7177963 0.5263c0 0.253-0.1533966 0.4483-0.3974915 0.5088v0.0058999 c0.2558899 0.0576 0.2900009 0.1914001 0.3212891 0.4297001c0.0332031 0.2089999 0.0547104 0.4325998 0.1299057 0.6307998 h-0.3096008c-0.0253983-0.1229999-0.0615005-0.2616999-0.0771027-0.3866999 c-0.0195999-0.1914001-0.0195999-0.3632998-0.1171951-0.4668c-0.0860062-0.0936999-0.2022018-0.0878999-0.3194046-0.0936999 H115.5528183z"/>
    </g>
    <g id="white-signature">
        <rect class="st5" x="161" y="25" width="91" height="20"/>
        <path class="st1" d="M248.557 25.9909c0 0.51672 0.420853 0.937567 0.938019 0.937567 0.516266 0 0.937118-0.420847 0.937118-0.937567s-0.420853-0.938433-0.937118-0.938433C248.978 25.0525 248.557 25.4742 248.557 25.9909ZM248.687 25.9909c0-0.445669 0.362213-0.808378 0.80838-0.808378 0.445267 0 0.80748 0.362709 0.80748 0.808378 0 0.445713-0.362213 0.807968-0.80748 0.807968C249.049 26.7989 248.687 26.4366 248.687 25.9909Z"/>
        <path class="st1" d="M249.288 25.9185h0.253021c0.169601-0.0075512 0.207779-0.0843258 0.207779-0.171331 0-0.0879154-0.0381775-0.164694-0.207779-0.171785h-0.253021V25.9185ZM249.292 26.0504v0.498537h-0.153595v-1.10494h0.394669c0.185562 0 0.376434 0.0585957 0.376434 0.27702 0 0.133143-0.07901 0.23529-0.206879 0.266333v0.0031414c0.132324 0.0315037 0.150055 0.102963 0.166916 0.226835 0.0168762 0.110098 0.0293274 0.227289 0.0692749 0.331615h-0.163818c-0.0133209-0.065733-0.0319672-0.137648-0.039505-0.203333 -0.0124054-0.0994167-0.0124054-0.190014-0.0625916-0.245474 -0.0444183-0.0497303-0.105652-0.0452747-0.166931-0.0497303H249.292Z"/>
        <path class="st1" d="M191.013 39.4004h4.44061l-0.000885-0.119831c0.000885 0-0.901459-0.023941-0.874115-1.62997 0 0-0.0041962-4.95178-0.0050812-4.95344 0.0050812-3.4407-3.47664-3.31656-3.47664-3.31656 -1.45883 0.0273514-2.44762 0.913475-2.68993 1.15569l0.000885-1.14203 -4.4749 0.176392v0.126677c0.926285 0.0624962 0.84581 1.46226 0.84581 1.49987v6.71877c-0.304733 0.0025406-0.837204 0.005085-0.837204-0.0094681 -1.4948-0.0846863-1.49655-1.61716-1.49225-1.6617 0 0-0.0393677-3.09819-0.0393677-3.07943 0.0179749-2.22328-1.3056-2.93303-1.28842-2.95012 -2.50241-1.55037-6.08696-0.48628-6.08696-0.48628s-0.767075 2.42798-0.785034 2.40993c3.80624-1.66766 4.42868-0.017971 4.40808-0.0753059 0.0650482 0.162708 0.0753784 0.308231 0.0445251 0.436653 -0.12413 0.722549-1.44682 0.913395-1.46227 0.913395 -1.56833 0.279129-2.39195 0.572807-2.39195 0.572807 -2.4108 0.821865-2.09319 2.85597-2.09319 2.87482 0.412643 2.61452 3.94241 2.54264 3.94241 2.54264h1.51276l0.76532-1.57017c-1.5701 0.316822-2.05463-0.541073-2.05463-0.541073 -0.653198-1.08548 0.336456-1.71903 0.336456-1.71903 0.386093-0.299648 1.62314-0.577015 1.62314-0.577015v1.58552c0.125 2.93135 3.24634 2.82862 3.34399 2.8166h2.55721v0.0008774l4.48856 0.000782v-0.11808c-0.002533 0-0.82869-0.0291023-0.868149-1.4229l0.004303-4.52967v-0.001667c-0.0316467-1.67713 1.35013-1.69852 1.34837-1.70106 1.34584-0.0137634 1.24818 1.1805 1.25677 1.44674 0 0 0.0017548 4.57683 0.000885 4.57851 0 0 0.0111237 0 0.0334015 0l-0.0325317 0.0042953V39.4004Z"/>
        <path class="st1" d="M171.046 24.9999c0 0 0 0.102743 0 0.118172 1.40913 0.548691 0.883499 1.9339 0.883499 1.9339l-2.57771 8.23407 -3.48357-10.263H161v0.145523c0.834747 0.19006 1.24135 1.64373 1.24135 1.64373l3.19585 8.90261c0.883499 2.50671 2.53923 3.0007 2.53923 3.0007l2.04445 0.794418 4.91576-14.5101H171.046Z"/>
        <path class="st1" d="M247.541 37.6523l-0.0025482-12.6276 -4.52626 0.176382v0.127554c0.924622 0.0625057 0.844925 1.46305 0.844925 1.4982v3.27203c-3.16331-2.01956-5.46025 0.598404-5.44569 0.550451 -1.4776 1.47848-1.41431 3.80968-1.42964 3.79425 0 2.45876 1.42964 3.71211 1.42964 3.71211 1.88174 2.02726 4.14957 1.2388 4.14957 1.2388s0.980286-1.75418 0.980286-1.76953c-2.79689 0.467434-2.79689-3.16595-2.78156-3.18138 0-3.11958 1.65662-2.94241 1.67204-2.9595 1.42535 0.0170937 1.42456 1.6574 1.42456 1.59831l0.0016785 0.128437v6.18962l0.0008698-0.000782v0.000782l4.56903 0.0035057v-0.121586C248.427 39.2823 247.518 39.3731 247.541 37.6523Z"/>
        <path class="st1" d="M233.949 30.6922v-1.2979l-4.47488 0.176392v0.126677c0.924606 0.0624962 0.845886 1.46226 0.845886 1.50075l-0.0026245 5.92426 0 0 0.000885 0.793636c-0.291061 0.0025406-0.89122 0.005085-0.89122-0.0094681 -1.49733-0.0846863-1.49908-1.61716-1.49391-1.6617 0 0-0.0376892-3.09819-0.0376892-3.07943 0.0162964-2.22328-1.30727-2.93303-1.28842-2.95012 -2.50241-1.55037-6.08775-0.48628-6.08775-0.48628s-0.765411 2.42798-0.785934 2.40993c3.80794-1.66766 4.42781-0.017971 4.40897-0.0753059 0.0650482 0.162708 0.0736389 0.308231 0.0427856 0.436653 -0.12413 0.722549-1.44508 0.913395-1.46227 0.913395 -1.56746 0.279129-2.3902 0.572807-2.3902 0.572807 -2.40993 0.821865-2.09232 2.85597-2.09232 2.87482 0.411774 2.61452 3.93977 2.54264 3.93977 2.54264h1.51364l0.76532-1.57017c-1.56921 0.316822-2.05295-0.541073-2.05295-0.541073 -0.652328-1.08548 0.334702-1.71903 0.334702-1.71903 0.386169-0.299648 1.62575-0.577015 1.62575-0.577015v1.58552c0.123352 2.93135 3.24643 2.82862 3.34059 2.8166h2.61287v0.0008774h4.51503v-0.117298c-0.0427704 0.0025444-0.90918 0.0693436-0.888565-1.63348l0.0016632-4.02024h0.0017548c0.0016632 0.0136757-0.12413-2.27895 2.89366-1.77391v-2.46218C236.844 29.3925 234.941 28.8087 233.949 30.6922Z"/>
        <path class="st1" d="M210.84 29.3806h-10.3675c-1.21996 0.0598755-2.58719 0.29447-3.66328 1.34067 0 0-1.87402 1.82862-0.266235 4.14526 0.0136719 0 0.764435 1.07355 2.0298 1.48014 0.000885-0.0007896 0.0128021 0 0.030777 0.0051727l-0.0213928 0.0042953c0.114746-0.003418-0.893753 0.113003-1.33725 0.376698 -0.246521 0.157536-0.325333 0.330406-0.255981 0.761902 0.0693359 0.426319 0.451218 1.82011 1.92198 1.90401 1.04961 0.0461998 2.55632-0.140438 3.35251 0.45034 0 0 0.571915 0.417725 0.571915 1.11458 0 0.527393-0.0607452 1.60612-2.2601 1.72 -0.102737-0.0008774-1.82353-0.012886-2.16087-1.23284 -0.0016632-0.0077133-0.179794-1.04015 0.826172-1.18313 0 0-1.32269-0.310776-2.44246 0 -1.51529 0.42202-1.96564 1.81923-1.11299 2.81748 -0.0119324-0.0120125 1.23625 1.46821 4.60419 1.4442 3.39362 0.0907364 6.79233-0.925404 6.18962-4.33102 -0.0153351 0-0.407471-2.42965-4.08188-2.41597h-1.81494c0 0-0.773117 0.0574188-0.929779-0.308144 -0.0016632-0.0034218-0.344086-0.553082 0.729462-0.590698h0.0007935l0.196106-0.0222588c0 0 3.17017-0.38871 4.1521-1.77558 0.0136719-0.0154305 1.50075-1.65916-0.0290985-3.6368 -0.0017548 0-0.135269-0.181467-0.237137-0.267126h2.72499c-0.003418 1.2431-0.0111389 4.88675 0.0016632 4.91243 -0.0068359 3.44324 3.53748 3.31735 3.53748 3.31735 1.52214-0.0282249 2.53065-0.99387 2.71562-1.18313l-0.0008698 1.17121 4.52107 0.000782v-0.11808c-0.969132-0.042778-0.888657-1.59578-0.887787-1.63093V32.3461l0 0 0.000885-2.95188 -4.474 0.176392v0.126677c0.925385 0.0624962 0.84491 1.46226 0.84491 1.49987v3.10424l-0.0007935 1.16516c-0.0017548 0-0.0017548-0.0025406-0.0042877-0.0042076 -0.0505066 1.91251-1.38345 1.68563-1.37837 1.70877 -1.25677 0.0128021-1.22504-1.37661-1.22504-1.37661V29.3806ZM200.62 34.834c-0.09758 0.0222664-1.40054-0.0959053-1.25844-1.91943 0.0154266 0.0170937-0.0359497-1.62663 1.26195-1.62663 0 0 1.17796-0.0496197 1.20619 1.59841C201.83 32.9146 201.989 34.834 200.62 34.834Z"/>
    </g>
    <g id="search-white">
        <circle class="st19" cx="168.6" cy="54.6" r="6.8"/>
        <line class="st20" x1="180" y1="66" x2="173.408" y2="59.4083"/>
        <rect class="st5" x="161" y="47" width="20" height="20"/>
    </g>
    <g id="search-cg5">
        <circle class="st21" cx="190.6" cy="54.6" r="6.8"/>
        <line class="st22" x1="202" y1="66" x2="195.408" y2="59.4083"/>
        <rect class="st5" x="183" y="47" width="20" height="20"/>
    </g>
    <g id="search-cg7">
        <circle class="st23" cx="212.6" cy="54.6" r="6.8"/>
        <line class="st24" x1="224" y1="66" x2="217.408" y2="59.4083"/>
        <rect class="st5" x="205" y="47" width="20" height="20"/>
    </g>
    <g id="close-cg5">
        <rect class="st5" x="254" y="25" width="25" height="25"/>
        <circle class="st25" cx="266.5" cy="37.5" r="12.5"/>
        <line class="st26" x1="262.333" y1="33.3333" x2="270.667" y2="41.6667"/>
        <line class="st26" x1="270.667" y1="33.3333" x2="262.333" y2="41.6667"/>
    </g>
    <g id="close-cg6">
        <rect class="st5" x="281" y="25" width="25" height="25"/>
        <circle class="st27" cx="293.5" cy="37.5" r="12.5"/>
        <line class="st26" x1="289.333" y1="33.3333" x2="297.667" y2="41.6667"/>
        <line class="st26" x1="297.667" y1="33.3333" x2="289.333" y2="41.6667"/>
    </g>
    <g id="close-cg7">
        <rect class="st5" x="308" y="25" width="25" height="25"/>
        <circle class="st11" cx="320.5" cy="37.5" r="12.5"/>
        <line class="st26" x1="316.333" y1="33.3333" x2="324.667" y2="41.6667"/>
        <line class="st26" x1="324.667" y1="33.3333" x2="316.333" y2="41.6667"/>
    </g>
    <g id="clear-cg5">
        <rect class="st5" x="227" y="57" width="17" height="17"/>
        <circle class="st25" cx="235.5" cy="65.5" r="8.5"/>
        <line class="st28" x1="238.9" y1="62.1" x2="232.1" y2="68.9"/>
        <line class="st28" x1="238.9" y1="68.9" x2="232.1" y2="62.1"/>
    </g>
    <g id="clear-cg7">
        <rect class="st5" x="246" y="57" width="17" height="17"/>
        <circle class="st11" cx="254.5" cy="65.5" r="8.5"/>
        <line class="st28" x1="257.9" y1="62.1" x2="251.1" y2="68.9"/>
        <line class="st28" x1="257.9" y1="68.9" x2="251.1" y2="62.1"/>
    </g>
    <g id="link-offsite-cg5">
        <rect class="st5" x="265" y="57" width="9" height="9"/>
        <polygon class="st25" points="265.5 61 270 61 270 65.5 268.5 64 266.5 66 265 64.5 267 62.5"/>
        <polygon class="st25" points="266 57 266 60 271 60 271 65 274 65 274 57"/>
    </g>
    <g id="link-offsite-inactive-red">
        <rect class="st5" x="276" y="57" width="9" height="9"/>
        <polygon class="st29" points="276.5 61 281 61 281 65.5 279.5 64 277.5 66 276 64.5 278 62.5"/>
        <polygon class="st29" points="277 57 277 60 282 60 282 65 285 65 285 57"/>
    </g>
    <g id="link-offsite-vg-red">
        <rect class="st5" x="287" y="57" width="9" height="9"/>
        <polygon class="st7" points="287.5 61 292 61 292 65.5 290.5 64 288.5 66 287 64.5 289 62.5"/>
        <polygon class="st7" points="288 57 288 60 293 60 293 65 296 65 296 57"/>
    </g>
    <g id="right-caret">
        <rect class="st5" x="298" y="57" width="13" height="22"/>
        <polyline class="st30" points="298.707 57.707 309 68 298.707 78.293"/>
    </g>
    <g id="site-preference">
        <rect class="st5" x="313" y="57" width="12" height="12"/>
        <path class="st7" d="M315 65v4h3v-4h2v4h3v-4l-4-4L315 65 315 65ZM319 57l-6 6.31L314.13 64.5 319 59.38 323.87 64.5 325 63.31 319 57 319 57Z"/>
    </g>
    <g id="ad-choices">
        <rect class="st5" x="335" y="25" width="18" height="72"/>
        <path class="st31" d="M336 41c-0.200012 0-0.399994 0-0.5-0.0999985 -0.299988-0.200001-0.5-0.5-0.5-0.800003V25.9c0-0.299999 0.200012-0.6 0.5-0.799999 0.299988-0.1 0.700012-0.200001 1 0L350.5 32c0.299988 0.0999985 0.5 0.400001 0.5 0.799999 0 0.299999-0.200012 0.600002-0.5 0.799999L341 39c-0.299988 0.200001-0.700012 0.200001-1 0 -0.299988-0.0999985-0.5-0.5-0.5-0.799999v-4.3c0-0.5 0.399994-0.900002 1-0.900002 0.5 0 1 0.400001 1 0.900002V36.5l6.5-3.6L337.1 27.5v11.1l0.699982-0.299999c0.5-0.200001 1.10001 0 1.30002 0.400001 0.199982 0.399998 0 1-0.5 1.2L336.5 40.8C336.3 41 336.2 41 336 41Z"/>
        <path class="st31" d="M340.4 32.3c0.600006 0 1.10001-0.4 1.10001-1 0-0.599998-0.5-1-1.10001-1s-1.10001 0.400001-1.10001 1C339.3 31.9 339.8 32.3 340.4 32.3"/>
        <path class="st32" d="M336 59c-0.200012 0-0.399994 0-0.5-0.0999985 -0.299988-0.200001-0.5-0.5-0.5-0.800003V43.9c0-0.300003 0.200012-0.600002 0.5-0.800003 0.299988-0.0999985 0.700012-0.199997 1 0L350.5 50c0.299988 0.0999985 0.5 0.400001 0.5 0.799999 0 0.299999-0.200012 0.600002-0.5 0.799999L341 57c-0.299988 0.200001-0.700012 0.200001-1 0 -0.299988-0.0999985-0.5-0.5-0.5-0.799999v-4.3c0-0.5 0.399994-0.900002 1-0.900002 0.5 0 1 0.400001 1 0.900002V54.5l6.5-3.6L337.1 45.5v11.1l0.699982-0.299999c0.5-0.200001 1.10001 0 1.30002 0.400001 0.199982 0.399998 0 1-0.5 1.2L336.5 58.8C336.3 59 336.2 59 336 59Z"/>
        <path class="st32" d="M340.4 50.3c0.600006 0 1.10001-0.399998 1.10001-1 0-0.599998-0.5-1-1.10001-1s-1.10001 0.400001-1.10001 1C339.3 49.9 339.8 50.3 340.4 50.3"/>
        <path class="st1" d="M336 77c-0.200012 0-0.399994 0-0.5-0.0999985 -0.299988-0.200005-0.5-0.5-0.5-0.800003V61.9c0-0.300003 0.200012-0.600002 0.5-0.800003 0.299988-0.0999985 0.700012-0.199997 1 0L350.5 68c0.299988 0.0999985 0.5 0.400001 0.5 0.800003 0 0.299995-0.200012 0.599998-0.5 0.799995L341 75c-0.299988 0.199997-0.700012 0.199997-1 0 -0.299988-0.0999985-0.5-0.5-0.5-0.800003v-4.3c0-0.5 0.399994-0.900002 1-0.900002 0.5 0 1 0.400001 1 0.900002V72.5l6.5-3.6L337.1 63.5v11.1l0.699982-0.299995c0.5-0.200005 1.10001 0 1.30002 0.399994 0.199982 0.400001 0 1-0.5 1.2L336.5 76.8C336.3 77 336.2 77 336 77Z"/>
        <path class="st1" d="M340.4 68.3c0.600006 0 1.10001-0.400001 1.10001-1 0-0.600006-0.5-1-1.10001-1s-1.10001 0.399994-1.10001 1C339.3 67.9 339.8 68.3 340.4 68.3"/>
        <path class="st33" d="M336 95c-0.200012 0-0.399994 0-0.5-0.0999985 -0.299988-0.200005-0.5-0.5-0.5-0.800003V79.9c0-0.300003 0.200012-0.599998 0.5-0.800003 0.299988-0.0999985 0.700012-0.199997 1 0L350.5 86c0.299988 0.0999985 0.5 0.400001 0.5 0.800003 0 0.299995-0.200012 0.599998-0.5 0.799995L341 93c-0.299988 0.199997-0.700012 0.199997-1 0 -0.299988-0.0999985-0.5-0.5-0.5-0.800003v-4.3c0-0.5 0.399994-0.900002 1-0.900002 0.5 0 1 0.400001 1 0.900002V90.5l6.5-3.6L337.1 81.5v11.1l0.699982-0.299995c0.5-0.200005 1.10001 0 1.30002 0.399994 0.199982 0.400001 0 1-0.5 1.2L336.5 94.8C336.3 95 336.2 95 336 95Z"/>
        <path class="st33" d="M340.4 86.3c0.600006 0 1.10001-0.400001 1.10001-1 0-0.600006-0.5-1-1.10001-1s-1.10001 0.399994-1.10001 1C339.3 85.9 339.8 86.3 340.4 86.3"/>
    </g>
    <g id="cart">
        <rect class="st5" x="265" y="68" width="15" height="15"/>
        <circle class="st34" cx="278.105" cy="80.849" r="1.487"/>
        <circle class="st34" cx="269.096" cy="80.849" r="1.487"/>
        <polygon class="st34" points="269 78 280 78 280 77 269.66 77 270.254 75 277.508 75 279.594 69 269 69 269 68 265 68 265 69 267.314 69 269.336 74.729 268.615 77.062"/>
    </g>
    <g id="back">
        <rect class="st5" x="150" y="71" width="47" height="22"/>
        <polygon class="st1" points="161.7 71 150.7 82 161.7 93 197 93 197 71"/>
        <path d="M163.014 78.4209h2.86133c0.566406 0 0.988769 0.0234375 1.26709 0.0712891 0.27832 0.046875 0.527344 0.144531 0.74707 0.294922s0.402832 0.349609 0.549316 0.597656c0.146484 0.25 0.219727 0.529297 0.219727 0.837891 0 0.335938-0.090332 0.642578-0.270996 0.922852s-0.425781 0.489258-0.734863 0.629883c0.436035 0.126953 0.771484 0.34375 1.00586 0.649414s0.351563 0.665039 0.351563 1.0791c0 0.326172-0.0756836 0.642578-0.227051 0.949219 -0.151367 0.308594-0.35791 0.553711-0.620117 0.738281 -0.262207 0.183594-0.584961 0.296875-0.969238 0.338867 -0.240723 0.0263672-0.821777 0.0419922-1.74316 0.0488281h-2.43652V78.4209ZM164.459 79.6123v1.65527h0.947266c0.562988 0 0.913086-0.0078125 1.0498-0.0244141 0.247559-0.0292969 0.441895-0.114258 0.583496-0.256836 0.141602-0.140625 0.212402-0.328125 0.212402-0.558594 0-0.220703-0.0610352-0.401367-0.183105-0.539063 -0.12207-0.138672-0.303711-0.222656-0.544434-0.251953 -0.143066-0.015625-0.555176-0.0244141-1.23535-0.0244141H164.459ZM164.459 82.459v1.91406h1.33789c0.520996 0 0.851074-0.0146484 0.991211-0.0439453 0.214844-0.0390625 0.389648-0.133789 0.524902-0.286133 0.135254-0.150391 0.202637-0.353516 0.202637-0.607422 0-0.214844-0.0522461-0.396484-0.15625-0.546875s-0.254883-0.258789-0.45166-0.327148 -0.624023-0.102539-1.28174-0.102539H164.459Z"/>
        <path d="M176.686 85.5791h-1.57227l-0.625-1.62598h-2.86084l-0.59082 1.62598h-1.5332l2.78809-7.1582h1.52783L176.686 85.5791ZM174.024 82.7471l-0.986328-2.65625 -0.966309 2.65625H174.024Z"/>
        <path d="M182.032 82.9473l1.40137 0.444336c-0.214844 0.78125-0.572266 1.36133-1.07227 1.74121 -0.499023 0.378906-1.13281 0.568359-1.90137 0.568359 -0.950195 0-1.73145-0.324219-2.34375-0.974609 -0.611328-0.648438-0.917969-1.53711-0.917969-2.66309 0-1.19141 0.307617-2.11621 0.922852-2.77637 0.615234-0.658203 1.4248-0.988281 2.42676-0.988281 0.875977 0 1.58691 0.258789 2.13379 0.776367 0.325195 0.305664 0.569336 0.745117 0.732422 1.31836l-1.43066 0.341797c-0.0849609-0.371094-0.260742-0.664063-0.530273-0.878906 -0.267578-0.214844-0.594727-0.322266-0.978516-0.322266 -0.530273 0-0.960938 0.19043-1.29102 0.571289 -0.331055 0.380859-0.496094 0.998047-0.496094 1.85059 0 0.905273 0.163086 1.5498 0.488281 1.93359 0.326172 0.383789 0.749023 0.576172 1.26953 0.576172 0.383789 0 0.714844-0.12207 0.991211-0.366211S181.912 83.4707 182.032 82.9473Z"/>
        <path d="M184.693 85.5791v-7.1582h1.44531v3.17871l2.91992-3.17871h1.94336l-2.69531 2.78809 2.8418 4.37012h-1.87012l-1.96777-3.35938 -1.17188 1.19629v2.16309H184.693Z"/>
    </g>
    <g id="paper">
        <rect x="199" y="71" class="st5" width="21.875" height="26.25"/>
        <radialGradient id="SVGID_1_" cx="496.589447" cy="-8595.4873047" r="16.5482635" gradientTransform="matrix(1.0057 0 0 -1.0084 -291.51651 -8588.7910156)" gradientUnits="userSpaceOnUse">
            <stop offset="0" style="stop-color:#FFFFFF"/>
            <stop offset="0.9834" style="stop-color:#E3E1DB"/>
        </radialGradient>
        <polygon fill="url(#SVGID_1_)" points="220.875,93.1374969 216.7624969,97.25 199,97.25 199,71 220.875,71 	"/>
        <linearGradient id="SVGID_2_" gradientUnits="userSpaceOnUse" x1="504.0681763" y1="-8606.4433594" x2="506.8531189" y2="-8609.2285156" gradientTransform="matrix(1 0 0 -1 -287 -8513)">
            <stop offset="0" style="stop-color:#FFFFFF"/>
            <stop offset="1" style="stop-color:#E3E1DB"/>
        </linearGradient>
        <polygon fill="url(#SVGID_2_)" points="216.7624969,97.25 216.7624969,93.1374969 220.875,93.1374969 	"/>
        <rect x="199" y="71" fill="#981E21" width="21.875" height="8.75"/>
        <path class="st1" d="M210.7250061,72.2249985L210.7250061,72.2249985c0.6124878,0.2625046,0.3499908,0.875,0.3499908,0.875
        l-1.0500031,3.4124985l-1.4874878-4.2874985h-2.0125122V72.3125c0.3500061,0.0875015,0.5250092,0.6999969,0.5250092,0.6999969
        l1.3125,3.7625046C208.7124939,77.8249969,209.4125061,78,209.4125061,78l0.875,0.3499985l2.0999908-6.125H210.7250061
        L210.7250061,72.2249985z"/>
    </g>
    <g id="co-brand">
        <rect class="st35" x="2" y="71" width="146" height="42"/>
        <path class="st36" d="M19 87.6c-0.1-0.400001-0.299999-2-2.5-2 -2.8 0-3.3 2.8-3.3 4.8 0 2.2 0.6 4.5 3.3 4.5 0.700001 0 1.4-0.200005 1.9-0.700005C18.8 93.8 18.9 93.3 19 93h1.8C20.6 95.3 18.5 96.2 16.5 96.2c-4.1 0-4.9-3.6-4.9-5.8 0-2.4 0.900001-6.1 5.1-6.1 1.6 0 3.9 0.699997 4.1 3.3H19Z"/>
        <path class="st36" d="M23.7 85.7c1.2-1.3 2.8-1.6 3.9-1.6 3.2 0 5.2 2 5.2 6 0 3.1-1.2 6.2-5.3 6.2 -3.9 0-5.2-2.8-5.2-6C22.2 89 22.4 87.1 23.7 85.7ZM24.9 93.9C25.6 94.7 26.5 95 27.5 95c0.9 0 1.9-0.300003 2.6-1.1 0.9-1.2 1-3 1-3.8 0-2.6-0.9-4.6-3.5-4.6 -2.9 0-3.7 2.4-3.7 4.7C23.9 91.5 24.1 92.9 24.9 93.9Z"/>
        <path class="st36" d="M35.2 84.5h4.1c1.4 0 2.2 0.0999985 2.9 0.800003C42.7 85.8 43 86.5 43 87.4 43 89.3 41.6 89.8 41 90c0.700001 0.199997 2.3 0.699997 2.3 2.9 0 1.6-1 2.4-1.4 2.6C41.2 96 40.4 96 39.4 96h-4.2V84.5ZM36.8 89.4H39c0.5 0 2.4 0 2.4-1.8 0-1.7-1.5-1.7-2.3-1.7h-2.3L36.8 89.4ZM36.8 94.7H39.5c1.3 0 2.3-0.699997 2.3-2 0-1.2-0.799999-2-2.2-2h-2.8V94.7Z"/>
        <path class="st36" d="M45.8 84.5h4.1c0.599998 0 1.8 0 2.7 0.5s1.3 1.4 1.3 2.4c0 0.799995-0.299999 1.5-0.799999 2s-1 0.699997-1.4 0.799995C52.8 90.5 53.3 91 53.5 92.4S53.8 94.8 54.2 96h-1.7c-0.299999-0.800003-0.400001-2.2-0.5-3.1 -0.200001-1.7-0.599998-2.2-2.5-2.2h-2V96h-1.6V84.5H45.8ZM47.3 89.5h2.5c0.200001 0 1.1 0 1.5-0.300003 0.200001-0.0999985 0.799999-0.5 0.799999-1.5 0-1.89999-1.7-1.89999-2.3-1.89999h-2.5V89.5Z"/>
        <path class="st36" d="M60.1 84.5h1.7L66.4 96h-1.7L63.5 93h-5.4l-1.2 3h-1.6L60.1 84.5ZM58.6 91.7H63L60.9 86 58.6 91.7Z"/>
        <path class="st36" d="M68.1 84.5h2.2L76 94v-9.6h1.5V96h-2l-5.9-9.8V96h-1.5V84.5Z"/>
        <path class="st36" d="M80.5 84.5h3.3c1.6 0 3.4 0 4.7 1.5 1 1.2 1.4 2.8 1.4 4.4 0 2.5-1 4-1.9 4.7C86.8 96 85.4 96 83.7 96H80.5V84.5ZM82.1 94.7h1.6c1.1 0 2.3-0.0999985 3-0.599998 1.5-1.1 1.5-3 1.5-3.7 0-0.400001 0-2.4-1.1-3.6 -0.699997-0.800003-1.7-1-3.1-1h-1.9V94.7Z"/>
        <path class="st36" d="M96.5 84.5h1.6v10.1H103.5V96h-7V84.5Z"/>
        <path class="st36" d="M105.6 85.7c1.2-1.3 2.8-1.6 3.9-1.6 3.2 0 5.2 2 5.2 6 0 3.1-1.2 6.2-5.3 6.2 -3.9 0-5.2-2.8-5.2-6C104.1 89 104.3 87.1 105.6 85.7ZM106.8 93.9C107.5 94.7 108.4 95 109.4 95c0.900002 0 1.9-0.300003 2.6-1.1 0.900002-1.2 1-3 1-3.8C113 87.5 112.1 85.5 109.5 85.5c-2.9 0-3.7 2.4-3.7 4.7C105.8 91.5 106 92.9 106.8 93.9Z"/>
        <path class="st36" d="M124.8 87.4c-0.199997-1.1-1-1.8-2.6-1.8 -1.1 0-2 0.300003-2.6 1 -1 1.1-1.2 2.6-1.2 3.7 0 1 0.199997 2.6 1.1 3.6C120.3 94.8 121.4 95 122.6 95c1.3 0 2.1-0.300003 2.5-0.400001v-3.4h-2.6v-1.3h4.2v5.7c-0.699997 0.199997-2.1 0.699997-4.1 0.699997 -2.1 0-3.4-0.599998-4.2-1.4 -1.1-1.2-1.6-2.8-1.6-4.4 0-1.2 0.300003-3.89999 2.5-5.3 1.1-0.800003 2.6-0.800003 3.2-0.800003 0.900002 0 2.3 0.0999985 3.4 1.2 0.699997 0.699997 0.699997 1.39999 0.800003 1.8H124.8Z"/>
        <path class="st36" d="M130.5 85.7c1.2-1.3 2.8-1.6 3.89999-1.6 3.2 0 5.2 2 5.2 6 0 3.1-1.2 6.2-5.3 6.2 -3.89999 0-5.2-2.8-5.2-6C129 89 129.2 87.1 130.5 85.7ZM131.7 93.9C132.4 94.7 133.3 95 134.3 95c0.899994 0 1.89999-0.300003 2.60001-1.1 0.899994-1.2 1-3 1-3.8 0-2.6-0.899994-4.6-3.5-4.6 -2.90001 0-3.7 2.4-3.7 4.7C130.7 91.5 130.9 92.9 131.7 93.9Z"/>
    </g>
    <g id="ship-w-signature-small" transform="translate(-55,0)">
        <rect class="st5" x="2" y="115" width="136" height="39"/>
        <path class="st7" d="M84.1087 148.47h3.87241l-0.0007629-0.104507c0.0007629 0-0.786118-0.020874-0.762268-1.4214 0 0-0.0036697-4.31818-0.0044327-4.31963 0.0044327-3.00044-3.03178-2.8922-3.03178-2.8922 -1.27217 0.0238495-2.13444 0.796585-2.34574 1.00781l0.0007706-0.995895 -3.90231 0.153824v0.110474c0.807755 0.0544891 0.737572 1.27515 0.737572 1.30795v5.85907c-0.265732 0.0022125-0.73008 0.004425-0.73008-0.008255 -1.30352-0.0738525-1.30505-1.41025-1.3013-1.44908 0 0-0.0343246-2.70175-0.0343246-2.68539 0.0156708-1.93881-1.13854-2.55774-1.12356-2.57265 -2.18222-1.35199-5.30811-0.424057-5.30811-0.424057s-0.668922 2.11731-0.684586 2.10156c3.31922-1.45427 3.86201-0.0156708 3.84404-0.0656586 0.0567245 0.141876 0.0657425 0.268784 0.0388336 0.380783 -0.108246 0.630081-1.2617 0.796509-1.27515 0.796509 -1.36766 0.243424-2.08589 0.499512-2.08589 0.499512 -2.10233 0.716705-1.82536 2.49054-1.82536 2.50697 0.35984 2.27998 3.43796 2.2173 3.43796 2.2173h1.31919l0.667389-1.36926c-1.36919 0.276291-1.79172-0.471832-1.79172-0.471832 -0.569611-0.946579 0.293411-1.49907 0.293411-1.49907 0.336678-0.261307 1.41544-0.503189 1.41544-0.503189v1.38264c0.109016 2.55627 2.83096 2.46667 2.91612 2.45621h2.23v0.0007629l3.91423 0.0006866v-0.102982c-0.0022202 0-0.722672-0.0253754-0.757072-1.24083l0.003746-3.95007v-0.0014496c-0.0275955-1.46254 1.17738-1.48119 1.17585-1.48341 1.17364-0.0119934 1.08847 1.02945 1.09596 1.26163 0 0 0.0015335 3.99121 0.0007706 3.99266 0 0 0.0097046 0 0.0291214 0l-0.0283585 0.0037537V148.47Z"/>
        <path class="st7" d="M66.6973 135.912c0 0 0 0.0895996 0 0.103043 1.22883 0.478485 0.770447 1.68645 0.770447 1.68645l-2.24789 7.18048 -3.03782-8.9498H57.9363v0.126907c0.72794 0.165741 1.08251 1.43341 1.08251 1.43341l2.78692 7.76347c0.770451 2.18596 2.21432 2.61674 2.21432 2.61674l1.78284 0.692764 4.28677-12.6535H66.6973Z"/>
        <path class="st7" d="M133.404 146.946l-0.0022125-11.0118 -3.9471 0.153809v0.111237c0.80629 0.0545044 0.736801 1.27583 0.736801 1.3065v2.85335c-2.75855-1.76114-4.76157 0.521835-4.74889 0.480011 -1.28854 1.28931-1.23334 3.32222-1.24672 3.30876 0 2.14415 1.24672 3.23712 1.24672 3.23712 1.64096 1.76787 3.61861 1.08029 3.61861 1.08029s0.854843-1.52972 0.854843-1.54311c-2.43901 0.407623-2.43901-2.76085-2.42563-2.77431 0-2.72041 1.44464-2.5659 1.4581-2.58081 1.24297 0.0149078 1.24228 1.44533 1.24228 1.3938l0.0014496 0.111999v5.39763l0.0007629-0.0006866v0.0006866l3.98442 0.0030518v-0.106033C134.176 148.367 133.384 148.446 133.404 146.946Z"/>
        <path class="st7" d="M121.551 140.876v-1.13182l-3.9023 0.153824v0.110474c0.806297 0.0544891 0.737656 1.27515 0.737656 1.30872l-0.0022964 5.16621 0 0 0.0007629 0.692093c-0.253807 0.0022125-0.777176 0.004425-0.777176-0.008255 -1.30574-0.0738525-1.30727-1.41025-1.30276-1.44908 0 0-0.0328674-2.70175-0.0328674-2.68539 0.0142136-1.93881-1.14-2.55774-1.12357-2.57265 -2.18221-1.35199-5.30879-0.424057-5.30879-0.424057s-0.667473 2.11731-0.685364 2.10156c3.32069-1.45427 3.86125-0.0156708 3.84482-0.0656586 0.0567245 0.141876 0.0642166 0.268784 0.0373001 0.380783 -0.108246 0.630081-1.26017 0.796509-1.27515 0.796509 -1.3669 0.243424-2.08436 0.499512-2.08436 0.499512 -2.10156 0.716705-1.82459 2.49054-1.82459 2.50697 0.359078 2.27998 3.43566 2.2173 3.43566 2.2173h1.31995l0.667396-1.36926c-1.36842 0.276291-1.79027-0.471832-1.79027-0.471832 -0.568855-0.946579 0.291878-1.49907 0.291878-1.49907 0.336754-0.261307 1.41773-0.503189 1.41773-0.503189v1.38264c0.107567 2.55627 2.83103 2.46667 2.91314 2.45621h2.27855v0.0007629h3.93731v-0.102295c-0.0373077 0.0022278-0.792847 0.0604706-0.77488-1.42447l0.0014496-3.50583h0.0015259c0.0014572 0.0119324-0.108238-1.98735 2.52341-1.54692v-2.14714C124.075 139.743 122.416 139.234 121.551 140.876Z"/>
        <path class="st7" d="M101.399 139.732h-9.04092c-1.06385 0.0522156-2.25614 0.25679-3.19454 1.16913 0 0-1.63423 1.59464-0.23217 3.61485 0.0119247 0 0.666626 0.936188 1.77008 1.29076 0.0007629-0.0006866 0.0111618 0 0.0268326 0.0045013l-0.0186539 0.0037537c0.100075-0.0029907-0.779388 0.0985413-1.16614 0.328491 -0.214973 0.137375-0.283699 0.288132-0.223228 0.664414 0.0604706 0.371765 0.393478 1.58722 1.67605 1.66039 0.915314 0.0402832 2.22923-0.122467 2.92354 0.392716 0 0 0.498749 0.364273 0.498749 0.971954 0 0.459915-0.0529785 1.40062-1.97092 1.49992 -0.0895996-0.0007629-1.5902-0.0112457-1.88437-1.07509 -0.0014572-0.0067291-0.156799-0.907059 0.720444-1.03175 0 0-1.15344-0.271011-2.12992 0 -1.32141 0.368027-1.71413 1.58646-0.970589 2.45697 -0.0103989-0.0104675 1.07807 1.28035 4.01506 1.25941 2.95939 0.0791168 5.92321-0.807007 5.39763-3.77686 -0.0133743 0-0.355331-2.11876-3.55959-2.10684h-1.5827c0 0-0.674202 0.0500793-0.810814-0.268707 -0.0014496-0.0029907-0.300049-0.482315 0.636124-0.515122h0.0006943l0.171013-0.0194092c0 0 2.76452-0.338974 3.62082-1.54839 0.0119247-0.0134583 1.30872-1.44685-0.025383-3.17145 -0.0015259 0-0.11795-0.158249-0.206795-0.232956h2.37632c-0.0029831 1.08405-0.0097046 4.26147 0.0014572 4.28387 -0.0059662 3.00266 3.08484 2.89287 3.08484 2.89287 1.32737-0.0246124 2.20684-0.866699 2.36814-1.03174l-0.0007629 1.02135 3.94258 0.0006866v-0.102982c-0.845131-0.0373077-0.774956-1.39159-0.774193-1.42224v-4.62642l0 0 0.0007706-2.57417 -3.90154 0.153824v0.110474c0.806984 0.0544891 0.736801 1.27515 0.736801 1.30795v2.70703l-0.0006866 1.01607c-0.0015259 0-0.0015259-0.0022125-0.0037384-0.0036621 -0.0440445 1.66779-1.20644 1.46994-1.202 1.49013 -1.09596 0.0111542-1.06829-1.20047-1.06829-1.20047V139.732ZM92.4866 144.488c-0.0850906 0.0194244-1.22134-0.0836334-1.09742-1.67383 0.0134583 0.0149078-0.0313416-1.4185 1.10048-1.4185 0 0 1.02723-0.0432739 1.05184 1.39389C93.5415 142.814 93.6804 144.488 92.4866 144.488Z"/>
        <path class="st7" d="M134.464 137.519c0 0.868988 0.707779 1.57675 1.57751 1.57675 0.868225 0 1.57599-0.707764 1.57599-1.57675s-0.707764-1.57819-1.57599-1.57819C135.172 135.941 134.464 136.65 134.464 137.519ZM134.683 137.519c0-0.749497 0.609146-1.35947 1.35948-1.35947 0.74881 0 1.35796 0.60997 1.35796 1.35947 0 0.749588-0.609146 1.3588-1.35796 1.3588C135.292 138.878 134.683 138.269 134.683 137.519Z"/>
        <path class="st7" d="M135.694 137.398h0.425507c0.285233-0.0126953 0.349457-0.1418 0.349457-0.288132 0-0.147842-0.0642242-0.276962-0.349457-0.288895h-0.425507V137.398ZM135.7 137.62v0.838409h-0.258316v-1.85823h0.663727c0.312057 0 0.633057 0.0985413 0.633057 0.465866 0 0.223908-0.132858 0.395706-0.347916 0.447906v0.0052795c0.222549 0.0529785 0.252365 0.173157 0.280716 0.381485 0.0283813 0.18515 0.0493164 0.382233 0.116516 0.557693h-0.275528c-0.0223999-0.11055-0.0537415-0.231491-0.0664215-0.341965 -0.020874-0.167191-0.020874-0.31955-0.10527-0.412811 -0.0746918-0.0836334-0.177673-0.0761414-0.280731-0.0836334H135.7Z"/>
    </g>
</svg>
